<?xml version="1.0" encoding="UTF-8"?>
<svg version="1.1" xmlns="http://www.w3.org/2000/svg" width="1132" height="424">
<path d="M0 0 C3.39861694 1.89594693 6.69570258 3.9451858 10 6 C15.44518199 9.31047052 20.9171019 12.54074879 26.5 15.61328125 C31.30166009 18.27670208 36.05595305 21.02403319 40.8203125 23.75341797 C43.28474584 25.16284859 45.75163709 26.56792149 48.21875 27.97265625 C49.13237305 28.49335693 50.04599609 29.01405762 50.98730469 29.55053711 C52.77914997 30.57171157 54.571441 31.59210443 56.36425781 32.61157227 C64.96326057 37.51602449 73.42633812 42.63633198 81.87109375 47.80078125 C84.07286228 49.12989008 84.07286228 49.12989008 87 50 C87 50.66 87 51.32 87 52 C87.721875 52.28875 88.44375 52.5775 89.1875 52.875 C91.79166667 53.91666667 94.39583333 54.95833333 97 56 C97 56.66 97 57.32 97 58 C97.50917969 58.08765625 98.01835937 58.1753125 98.54296875 58.265625 C102.03203037 59.30846059 105.12162222 61.02964568 108.3125 62.75 C108.95123047 63.08515625 109.58996094 63.4203125 110.24804688 63.765625 C110.88419922 64.1059375 111.52035156 64.44625 112.17578125 64.796875 C112.74208252 65.09948242 113.30838379 65.40208984 113.8918457 65.71386719 C114.58753662 66.13829102 115.28322754 66.56271484 116 67 C116.84452501 67.47279884 116.84452501 67.47279884 117.70611113 67.95514917 C121.331859 70.19502441 122.79472603 71.19132378 123.87809467 75.4592514 C123.91508739 76.81066695 123.9138916 78.16346542 123.88215637 79.51501465 C123.89237074 80.26304903 123.90258511 81.0110834 123.913109 81.78178549 C123.93865939 84.28457718 123.91425429 86.784343 123.88989258 89.28710938 C123.89774204 91.08268216 123.90858442 92.87824399 123.92219543 94.67378235 C123.94984177 99.54799617 123.93334611 104.42114868 123.90734696 109.29533577 C123.88590653 114.3952722 123.89940427 119.49513429 123.90763855 124.59509277 C123.91579949 133.15975741 123.89512629 141.72399558 123.85766602 150.28857422 C123.81472858 160.19143959 123.81827021 170.09346867 123.8465336 179.99636793 C123.8725636 189.5213492 123.86475358 199.04601962 123.84183311 208.57099915 C123.83273061 212.62520136 123.83568386 216.67913111 123.84833717 220.73332214 C123.86177313 225.50741616 123.84565862 230.28051929 123.80669975 235.05446434 C123.79716597 236.80680503 123.79783948 238.55923527 123.80944061 240.31156349 C123.82359235 242.70381725 123.8008178 245.09297073 123.76863098 247.48498535 C123.78133319 248.17905408 123.7940354 248.87312282 123.80712253 249.58822393 C123.73793394 252.32941542 123.50808604 254.41082234 121.68383729 256.52622509 C117.58297951 259.99417244 112.49106952 264 107 264 C107 264.66 107 265.32 107 266 C100.375 270 100.375 270 97 270 C97 270.66 97 271.32 97 272 C96.40574219 272.27972656 95.81148437 272.55945313 95.19921875 272.84765625 C90.48048565 275.12996728 86.01181363 277.56404129 81.625 280.4375 C76.81843493 283.57606444 71.86342744 286.10080055 66.703125 288.6015625 C63.85113872 290.07701205 61.44431599 291.77964159 58.90234375 293.71875 C55.45318136 296.04179982 51.65036531 297.71373515 47.91796875 299.53125 C44.80702758 301.09713203 41.90336392 302.83633422 38.98046875 304.72265625 C33.23633263 308.4274541 27.33997482 311.84234222 21.3125 315.0625 C18.23259359 316.71859493 15.34620377 318.38519592 12.5625 320.5 C9.51868774 322.74435313 6.33078774 324.58372134 3 326.375 C2.030625 326.89835937 1.06125 327.42171875 0.0625 327.9609375 C-4.4191465 329.48149613 -7.74549305 329.0278451 -12.05419922 327.06347656 C-14.22183885 325.91330043 -16.33102896 324.69598636 -18.4375 323.4375 C-19.16904297 323.01275391 -19.90058594 322.58800781 -20.65429688 322.15039062 C-22.44213758 321.11040486 -24.22192662 320.05659823 -26 319 C-26 318.34 -26 317.68 -26 317 C-26.72574219 316.89300781 -27.45148438 316.78601563 -28.19921875 316.67578125 C-31.22167309 315.94651402 -33.20011822 314.85452876 -35.8125 313.1875 C-40.10905266 310.5142326 -44.44207432 308.19455681 -49 306 C-49 305.34 -49 304.68 -49 304 C-49.85078125 303.74734375 -50.7015625 303.4946875 -51.578125 303.234375 C-55.25347925 301.90856228 -58.37703256 300.2188362 -61.75 298.25 C-62.36198242 297.89437988 -62.97396484 297.53875977 -63.60449219 297.17236328 C-68.76590261 294.16446957 -73.89242517 291.09831399 -79 288 C-84.43560789 284.70492607 -89.88839141 281.47537216 -95.45703125 278.41015625 C-103.5887834 273.90084361 -111.65086527 269.26419432 -119.60546875 264.44921875 C-123.08057666 262.34601315 -126.57465789 260.27465732 -130.06640625 258.19921875 C-132 257 -132 257 -133 256 C-133.29219153 250.63957996 -133.314057 245.27655804 -133.35009766 239.90893555 C-133.36665127 238.09988536 -133.3939337 236.29090041 -133.43212891 234.48217773 C-133.48688253 231.87709549 -133.50876915 229.27354883 -133.5234375 226.66796875 C-133.54610687 225.86054733 -133.56877625 225.05312592 -133.59213257 224.22123718 C-133.5772773 220.27417191 -133.43381292 218.45091343 -130.64648438 215.55371094 C-127.85353322 213.91401157 -125.05789498 212.43753258 -122.125 211.0625 C-118.0364542 209.07549662 -114.43462371 207.01355864 -110.82421875 204.27734375 C-106.79680772 201.45729363 -102.33727361 199.29998089 -98 197 C-92.07338541 193.82301204 -86.23711172 190.64279985 -80.65625 186.8828125 C-79 186 -79 186 -76 186 C-76 185.34 -76 184.68 -76 184 C-73.1875 182.4375 -73.1875 182.4375 -70 181 C-69.01 181.33 -68.02 181.66 -67 182 C-66.67 216.98 -66.34 251.96 -66 288 C-63.69 287.34 -61.38 286.68 -59 286 C-59 285.34 -59 284.68 -59 284 C-57.96552734 283.43732422 -57.96552734 283.43732422 -56.91015625 282.86328125 C-55.97042969 282.35152344 -55.03070313 281.83976562 -54.0625 281.3125 C-53.06347656 280.76980469 -52.06445312 280.22710937 -51.03515625 279.66796875 C-49.1376308 278.62518449 -47.24807129 277.56761306 -45.37109375 276.48828125 C-44.58863281 276.03839844 -43.80617188 275.58851563 -43 275.125 C-42.29875 274.71507812 -41.5975 274.30515625 -40.875 273.8828125 C-39 273 -39 273 -36 273 C-36 272.34 -36 271.68 -36 271 C-35.27554688 270.61328125 -34.55109375 270.2265625 -33.8046875 269.828125 C-27.50363796 266.47236837 -27.50363796 266.47236837 -21.5 262.625 C-19 261 -19 261 -16 261 C-16 260.34 -16 259.68 -16 259 C-10.375 256 -10.375 256 -7 256 C-6.67 219.04 -6.34 182.08 -6 144 C-0.72 141.03 4.56 138.06 10 135 C12.69652403 133.38208558 15.38348441 131.74434373 18 130 C18.99 130 19.98 130 21 130 C21 129.34 21 128.68 21 128 C21.64324219 127.6596875 22.28648437 127.319375 22.94921875 126.96875 C29.43975133 123.48738017 35.72736207 119.75556202 41.95703125 115.83203125 C49.98294243 111 49.98294243 111 54 111 C54 110.34 54 109.68 54 109 C54.66 108.67 55.32 108.34 56 108 C56.495 73.35 56.495 73.35 57 38 C53.7 39.98 50.4 41.96 47 44 C44.52601596 45.46915835 42.05032402 46.9300943 39.5625 48.375 C38.6662793 48.90673828 38.6662793 48.90673828 37.75195312 49.44921875 C34.93993922 51.07673071 33.30806285 52 30 52 C30 52.66 30 53.32 30 54 C23.375 58 23.375 58 20 58 C20 58.66 20 59.32 20 60 C19.45214844 60.25652344 18.90429688 60.51304688 18.33984375 60.77734375 C12.16794092 63.75792121 6.32256536 67.13962497 0.47167969 70.69433594 C-3.60175498 73.16815699 -7.71108035 75.54019584 -11.89453125 77.82421875 C-15.06223861 79.59319819 -18.15443711 81.48326712 -21.25 83.375 C-23.54634194 84.73192933 -25.85868152 86.03123358 -28.1953125 87.31640625 C-33.16606017 90.065022 -38.01963686 92.99122313 -42.875 95.9375 C-48.99098544 99.63139616 -55.12474068 103.22130177 -61.43359375 106.578125 C-64.52012605 108.28816725 -67.50411438 110.13589339 -70.5 112 C-75.24414013 114.94906008 -80.03517151 117.71642136 -84.95703125 120.35546875 C-88.82737115 122.44714153 -92.66469418 124.5949234 -96.5 126.75 C-97.54281128 127.33382446 -97.54281128 127.33382446 -98.60668945 127.92944336 C-101.47153502 129.540501 -104.26388084 131.17592056 -107 133 C-107.99 133 -108.98 133 -110 133 C-110 133.66 -110 134.32 -110 135 C-116.03359805 139.37756795 -125.39971759 146 -133 146 C-133.34852994 136.37757035 -133.61452793 126.7573299 -133.77718258 117.12995243 C-133.85528135 112.65849576 -133.9610325 108.19137308 -134.1315918 103.72241211 C-134.29537312 99.40369676 -134.38440397 95.08912769 -134.42315865 90.7675457 C-134.45074439 89.12478729 -134.50463223 87.4822411 -134.58595085 85.84126472 C-134.83835987 80.5334982 -134.79559736 76.04455234 -133 71 C-127.99632822 65.54747892 -120.24212376 62.01361797 -113 61 C-113 60.34 -113 59.68 -113 59 C-112.32195312 58.63648438 -111.64390625 58.27296875 -110.9453125 57.8984375 C-105.34372423 54.87264882 -99.83984725 51.73791986 -94.3984375 48.43359375 C-92.12263211 47.07329965 -89.82385479 45.77608167 -87.5 44.5 C-84.28808701 42.73570977 -81.13552789 40.89680082 -78 39 C-74.258985 36.73705831 -70.47387018 34.59424423 -66.63671875 32.5 C-64.46608272 31.26514928 -62.33522191 29.99297159 -60.20703125 28.6875 C-59.53502686 28.27669189 -58.86302246 27.86588379 -58.1706543 27.44262695 C-56.82356673 26.616111 -55.47986693 25.78404389 -54.13989258 24.94604492 C-49.33128358 22 -49.33128358 22 -46 22 C-46 21.34 -46 20.68 -46 20 C-44.71029297 19.36771484 -44.71029297 19.36771484 -43.39453125 18.72265625 C-40.09808277 17.04977503 -36.89375211 15.27677516 -33.6875 13.4375 C-33.09864014 13.10032959 -32.50978027 12.76315918 -31.90307617 12.41577148 C-28.39173959 10.39854305 -24.89804901 8.35316017 -21.4140625 6.2890625 C-20.64876221 5.8360376 -19.88346191 5.3830127 -19.0949707 4.91625977 C-17.59446241 4.02629095 -16.09554931 3.13362609 -14.59838867 2.23803711 C-13.56935425 1.62714233 -13.56935425 1.62714233 -12.51953125 1.00390625 C-11.91214111 0.64111572 -11.30475098 0.2783252 -10.67895508 -0.09545898 C-6.35135154 -2.42696562 -4.42976825 -1.85244854 0 0 Z " fill="#D2EBF7" transform="translate(166,51)"/>
<path d="M0 0 C3.39861694 1.89594693 6.69570258 3.9451858 10 6 C15.44268916 9.30895497 20.91226857 12.53750325 26.4921875 15.609375 C30.66453114 17.92301104 34.80297753 20.29541596 38.9375 22.67578125 C41.98576142 24.42853157 45.05246225 26.14565839 48.125 27.85546875 C49.87511481 28.84094196 51.62511572 29.82661749 53.375 30.8125 C54.22626465 31.28059082 55.0775293 31.74868164 55.95458984 32.23095703 C56.74043457 32.67681152 57.5262793 33.12266602 58.3359375 33.58203125 C59.04282715 33.97624268 59.7497168 34.3704541 60.47802734 34.77661133 C61.23140381 35.38218872 61.23140381 35.38218872 62 36 C62 36.99 62 37.98 62 39 C61.01 38.34 60.02 37.68 59 37 C58.67 46.9 58.34 56.8 58 67 C57.67 67 57.34 67 57 67 C57 57.43 57 47.86 57 38 C53.7 39.98 50.4 41.96 47 44 C44.52601596 45.46915835 42.05032402 46.9300943 39.5625 48.375 C38.6662793 48.90673828 38.6662793 48.90673828 37.75195312 49.44921875 C34.93993922 51.07673071 33.30806285 52 30 52 C30 52.66 30 53.32 30 54 C23.375 58 23.375 58 20 58 C20 58.66 20 59.32 20 60 C19.45214844 60.25652344 18.90429688 60.51304688 18.33984375 60.77734375 C12.16794092 63.75792121 6.32256536 67.13962497 0.47167969 70.69433594 C-3.60175498 73.16815699 -7.71108035 75.54019584 -11.89453125 77.82421875 C-15.06223861 79.59319819 -18.15443711 81.48326712 -21.25 83.375 C-23.54634194 84.73192933 -25.85868152 86.03123358 -28.1953125 87.31640625 C-33.16606017 90.065022 -38.01963686 92.99122313 -42.875 95.9375 C-48.99098544 99.63139616 -55.12474068 103.22130177 -61.43359375 106.578125 C-64.52012605 108.28816725 -67.50411438 110.13589339 -70.5 112 C-75.24414013 114.94906008 -80.03517151 117.71642136 -84.95703125 120.35546875 C-88.82737115 122.44714153 -92.66469418 124.5949234 -96.5 126.75 C-97.54281128 127.33382446 -97.54281128 127.33382446 -98.60668945 127.92944336 C-101.47153502 129.540501 -104.26388084 131.17592056 -107 133 C-107.99 133 -108.98 133 -110 133 C-110 133.66 -110 134.32 -110 135 C-116.03359805 139.37756795 -125.39971759 146 -133 146 C-133.34852994 136.37757035 -133.61452793 126.7573299 -133.77718258 117.12995243 C-133.85528135 112.65849576 -133.9610325 108.19137308 -134.1315918 103.72241211 C-134.29537312 99.40369676 -134.38440397 95.08912769 -134.42315865 90.7675457 C-134.45074439 89.12478729 -134.50463223 87.4822411 -134.58595085 85.84126472 C-134.83835987 80.5334982 -134.79559736 76.04455234 -133 71 C-127.99632822 65.54747892 -120.24212376 62.01361797 -113 61 C-113 60.34 -113 59.68 -113 59 C-112.32195312 58.63648438 -111.64390625 58.27296875 -110.9453125 57.8984375 C-105.34372423 54.87264882 -99.83984725 51.73791986 -94.3984375 48.43359375 C-92.12263211 47.07329965 -89.82385479 45.77608167 -87.5 44.5 C-84.28808701 42.73570977 -81.13552789 40.89680082 -78 39 C-74.258985 36.73705831 -70.47387018 34.59424423 -66.63671875 32.5 C-64.46608272 31.26514928 -62.33522191 29.99297159 -60.20703125 28.6875 C-59.53502686 28.27669189 -58.86302246 27.86588379 -58.1706543 27.44262695 C-56.82356673 26.616111 -55.47986693 25.78404389 -54.13989258 24.94604492 C-49.33128358 22 -49.33128358 22 -46 22 C-46 21.34 -46 20.68 -46 20 C-44.71029297 19.36771484 -44.71029297 19.36771484 -43.39453125 18.72265625 C-40.09808277 17.04977503 -36.89375211 15.27677516 -33.6875 13.4375 C-33.09864014 13.10032959 -32.50978027 12.76315918 -31.90307617 12.41577148 C-28.39173959 10.39854305 -24.89804901 8.35316017 -21.4140625 6.2890625 C-20.64876221 5.8360376 -19.88346191 5.3830127 -19.0949707 4.91625977 C-17.59446241 4.02629095 -16.09554931 3.13362609 -14.59838867 2.23803711 C-13.56935425 1.62714233 -13.56935425 1.62714233 -12.51953125 1.00390625 C-11.91214111 0.64111572 -11.30475098 0.2783252 -10.67895508 -0.09545898 C-6.35135154 -2.42696562 -4.42976825 -1.85244854 0 0 Z " fill="#DEF3FD" transform="translate(166,51)"/>
<path d="M0 0 C0.33 34.98 0.66 69.96 1 106 C4.465 105.01 4.465 105.01 8 104 C8 103.34 8 102.68 8 102 C8.68964844 101.62488281 9.37929687 101.24976563 10.08984375 100.86328125 C11.02957031 100.35152344 11.96929687 99.83976562 12.9375 99.3125 C13.93652344 98.76980469 14.93554688 98.22710937 15.96484375 97.66796875 C17.8623692 96.62518449 19.75192871 95.56761306 21.62890625 94.48828125 C22.41136719 94.03839844 23.19382812 93.58851563 24 93.125 C24.70125 92.71507812 25.4025 92.30515625 26.125 91.8828125 C28 91 28 91 31 91 C31 90.34 31 89.68 31 89 C31.72445312 88.61328125 32.44890625 88.2265625 33.1953125 87.828125 C39.49636204 84.47236837 39.49636204 84.47236837 45.5 80.625 C48 79 48 79 51 79 C51 78.34 51 77.68 51 77 C56.625 74 56.625 74 60 74 C60 73.34 60 72.68 60 72 C60.66 72 61.32 72 62 72 C62.39832031 72.41636719 62.79664063 72.83273437 63.20703125 73.26171875 C65.70767567 75.68609079 68.65036994 77.16481238 71.6875 78.8125 C79.87423899 83.33556551 87.963221 88.01596083 96.02807617 92.75268555 C100.76887284 95.53683095 105.51482951 98.30222971 110.31640625 100.98046875 C111.11377197 101.43107666 111.9111377 101.88168457 112.73266602 102.34594727 C114.20685064 103.17756709 115.68756345 103.99775492 117.17553711 104.80444336 C119.125 105.9140625 119.125 105.9140625 122 108 C122 112 122 112 120.484375 113.97265625 C117.28320407 116.58493253 113.8789688 118.48253804 110.25 120.4375 C108.80259985 121.23294725 107.3559742 122.02980554 105.91015625 122.828125 C105.2258252 123.20517578 104.54149414 123.58222656 103.83642578 123.97070312 C101.13068507 125.48724166 98.5287106 127.14592415 95.921875 128.82421875 C93.47898734 130.31874962 90.96375607 131.65152548 88.4375 133 C85.31580161 134.67630927 82.38160761 136.35472787 79.5625 138.5 C76.51868774 140.74435313 73.33078774 142.58372134 70 144.375 C69.030625 144.89835938 68.06125 145.42171875 67.0625 145.9609375 C62.5808535 147.48149613 59.25450695 147.0278451 54.94580078 145.06347656 C52.77816115 143.91330043 50.66897104 142.69598636 48.5625 141.4375 C47.83095703 141.01275391 47.09941406 140.58800781 46.34570312 140.15039062 C44.55786242 139.11040486 42.77807338 138.05659823 41 137 C41 136.34 41 135.68 41 135 C40.27425781 134.89300781 39.54851562 134.78601563 38.80078125 134.67578125 C35.77832691 133.94651402 33.79988178 132.85452876 31.1875 131.1875 C26.89094734 128.5142326 22.55792568 126.19455681 18 124 C18 123.34 18 122.68 18 122 C16.72382813 121.62101562 16.72382813 121.62101562 15.421875 121.234375 C11.74652075 119.90856228 8.62296744 118.2188362 5.25 116.25 C4.63801758 115.89437988 4.02603516 115.53875977 3.39550781 115.17236328 C-1.76590261 112.16446957 -6.89242517 109.09831399 -12 106 C-17.43560789 102.70492607 -22.88839141 99.47537216 -28.45703125 96.41015625 C-36.5887834 91.90084361 -44.65086527 87.26419432 -52.60546875 82.44921875 C-56.08057666 80.34601315 -59.57465789 78.27465732 -63.06640625 76.19921875 C-65 75 -65 75 -66 74 C-66.29219153 68.63957996 -66.314057 63.27655804 -66.35009766 57.90893555 C-66.36665127 56.09988536 -66.3939337 54.29090041 -66.43212891 52.48217773 C-66.48688253 49.87709549 -66.50876915 47.27354883 -66.5234375 44.66796875 C-66.54610687 43.86054733 -66.56877625 43.05312592 -66.59213257 42.22123718 C-66.5772773 38.27417191 -66.43381292 36.45091343 -63.64648438 33.55371094 C-60.85353322 31.91401157 -58.05789498 30.43753258 -55.125 29.0625 C-51.0364542 27.07549662 -47.43462371 25.01355864 -43.82421875 22.27734375 C-39.79680772 19.45729363 -35.33727361 17.29998089 -31 15 C-25.07338541 11.82301204 -19.23711172 8.64279985 -13.65625 4.8828125 C-12 4 -12 4 -9 4 C-9 3.34 -9 2.68 -9 2 C-3.375 -1.125 -3.375 -1.125 0 0 Z " fill="#DCF3FD" transform="translate(99,233)"/>
<path d="M0 0 C3.48070182 1.13412597 6.67480289 2.20544325 9.8125 4.1015625 C10.48740479 4.5047168 11.16230957 4.90787109 11.85766602 5.32324219 C12.56463623 5.75282227 13.27160645 6.18240234 14 6.625 C15.52951135 7.53979283 17.05946462 8.45384714 18.58984375 9.3671875 C19.34249512 9.81803711 20.09514648 10.26888672 20.87060547 10.73339844 C23.74641742 12.44398229 26.65162435 14.09990853 29.5625 15.75 C37.4141632 20.21431026 45.20702016 24.77876035 53.00219727 29.34082031 C54.50931274 30.22205566 54.50931274 30.22205566 56.046875 31.12109375 C56.95276367 31.6514624 57.85865234 32.18183105 58.79199219 32.72827148 C60.17328309 33.5238425 61.57426572 34.28713286 63 35 C63 70.64 63 106.28 63 143 C63.66 143.33 64.32 143.66 65 144 C62 145 62 145 59.51757812 143.89868164 C58.53208984 143.32496826 57.54660156 142.75125488 56.53125 142.16015625 C55.41516357 141.5165918 54.29907715 140.87302734 53.14916992 140.20996094 C51.93261738 139.49441695 50.71623142 138.77858967 49.5 138.0625 C48.25085656 137.33679057 47.00125713 136.6118655 45.7512207 135.88769531 C41.8248232 133.60756109 37.91123227 131.30602693 34 129 C33.36092712 128.62357361 32.72185425 128.24714722 32.06341553 127.85931396 C25.56751973 124.03214127 19.08148089 120.18886265 12.60546875 116.328125 C8.42816832 113.83987383 4.2333883 111.39147185 0 109 C0 108.34 0 107.68 0 107 C-0.66 106.67 -1.32 106.34 -2 106 C-1.505 105.505 -1.505 105.505 -1 105 C-0.89258229 103.63438234 -0.85321012 102.26332757 -0.84178162 100.89353943 C-0.8319928 100.00867859 -0.82220398 99.12381775 -0.81211853 98.21214294 C-0.80636307 97.23391068 -0.8006076 96.25567841 -0.79467773 95.24780273 C-0.78477814 94.2235318 -0.77487854 93.19926086 -0.76467896 92.14395142 C-0.73295829 88.7405228 -0.70826493 85.33708019 -0.68359375 81.93359375 C-0.66303334 79.58089321 -0.64203712 77.22819644 -0.62062073 74.87550354 C-0.56530576 68.66947474 -0.51593819 62.46341208 -0.46777344 56.25732422 C-0.41762705 49.92998221 -0.36190525 43.60268963 -0.30664062 37.27539062 C-0.19894385 24.8503026 -0.09752463 12.42517174 0 0 Z " fill="#C1DBEB" transform="translate(161,198)"/>
<path d="M0 0 C0.74886475 0.00523682 1.49772949 0.01047363 2.26928711 0.01586914 C3.07817383 0.0190918 3.88706055 0.02231445 4.72045898 0.02563477 C5.5705957 0.03401367 6.42073242 0.04239258 7.29663086 0.05102539 C8.15063477 0.05553711 9.00463867 0.06004883 9.88452148 0.06469727 C12.00108749 0.07652166 14.11761771 0.0944577 16.23413086 0.11352539 C18.8851072 5.06706865 20.88336961 9.76902082 22.29663086 15.23852539 C23.5058201 19.89883413 25.06267055 23.82715321 27.23413086 28.11352539 C27.924656 30.18247525 28.5700385 32.26698894 29.17163086 34.36352539 C30.59740966 39.13772412 32.18185824 43.74057224 34.09912109 48.3371582 C35.39903542 51.51690131 36.63381848 54.71831154 37.86303711 57.92602539 C38.30848877 59.0874707 38.75394043 60.24891602 39.21289062 61.44555664 C39.5498999 62.32598633 39.88690918 63.20641602 40.23413086 64.11352539 C40.24443832 63.3264772 40.25474579 62.53942902 40.2653656 61.72853088 C40.36317274 54.32654432 40.46566272 46.92464471 40.57347012 39.52279758 C40.6287338 35.71705134 40.68215915 31.91129747 40.73144531 28.10546875 C40.77903827 24.43553205 40.83137895 20.76569148 40.88707161 17.09586906 C40.90751823 15.69280312 40.92622743 14.28971079 40.94320488 12.88659859 C40.96719773 10.92775613 40.99783285 8.96899838 41.02880859 7.01025391 C41.04435287 5.89328629 41.05989716 4.77631866 41.07591248 3.62550354 C41.23413086 1.11352539 41.23413086 1.11352539 42.23413086 0.11352539 C43.56456711 0.01515329 44.9000643 -0.01726053 46.23413086 -0.01928711 C47.03850586 -0.02057617 47.84288086 -0.02186523 48.67163086 -0.02319336 C49.51725586 -0.01932617 50.36288086 -0.01545898 51.23413086 -0.01147461 C52.50256836 -0.01727539 52.50256836 -0.01727539 53.79663086 -0.02319336 C54.60100586 -0.0219043 55.40538086 -0.02061523 56.23413086 -0.01928711 C56.97663086 -0.01815918 57.71913086 -0.01703125 58.48413086 -0.01586914 C60.23413086 0.11352539 60.23413086 0.11352539 61.23413086 1.11352539 C61.33227281 2.70542512 61.36044992 4.30168446 61.3611145 5.89660645 C61.36534424 7.44891212 61.36534424 7.44891212 61.36965942 9.03257751 C61.36662308 10.75003929 61.36662308 10.75003929 61.36352539 12.50219727 C61.36615387 14.29954063 61.36615387 14.29954063 61.36883545 16.13319397 C61.3724936 19.42857331 61.37162056 22.72389023 61.36845636 26.01926613 C61.36593235 29.46080233 61.36827042 32.90233577 61.36984253 36.34387207 C61.3716641 42.12435386 61.36925823 47.90482288 61.36450195 53.68530273 C61.35905935 60.37736073 61.36082202 67.06938826 61.36632836 73.76144552 C61.37085983 79.49731759 61.37150987 85.23318047 61.36888969 90.96905375 C61.3673271 94.39912827 61.36713265 97.82918847 61.37042618 101.25926208 C61.37383929 105.08113803 61.36911459 108.90297959 61.36352539 112.72485352 C61.36554962 113.86982803 61.36757385 115.01480255 61.36965942 116.19447327 C61.3668396 117.22934372 61.36401978 118.26421417 61.3611145 119.33044434 C61.36054896 120.68767986 61.36054896 120.68767986 61.359972 122.07233429 C61.23413086 124.11352539 61.23413086 124.11352539 60.23413086 125.11352539 C58.89145673 125.19984413 57.54438764 125.22059012 56.19897461 125.21118164 C55.39008789 125.20795898 54.58120117 125.20473633 53.74780273 125.20141602 C52.89766602 125.19303711 52.0475293 125.1846582 51.17163086 125.17602539 C50.31762695 125.17151367 49.46362305 125.16700195 48.58374023 125.16235352 C46.46717422 125.15052912 44.35064401 125.13259308 42.23413086 125.11352539 C39.43390876 118.34701169 36.93704047 111.50304813 34.52563477 104.59106445 C32.56588096 98.99566365 30.48181562 93.46347029 28.31225586 87.94555664 C27.19988797 85.02357576 26.20443525 82.08575891 25.23413086 79.11352539 C24.21639469 76.00833383 23.19451613 72.90452401 22.17163086 69.80102539 C21.90286133 68.97795898 21.6340918 68.15489258 21.35717773 67.30688477 C20.96949219 66.13416016 20.96949219 66.13416016 20.57397461 64.93774414 C20.34057373 64.22706787 20.10717285 63.5163916 19.86669922 62.78417969 C19.36119757 61.10362442 19.36119757 61.10362442 18.23413086 60.11352539 C17.90413086 81.56352539 17.57413086 103.01352539 17.23413086 125.11352539 C10.96413086 125.11352539 4.69413086 125.11352539 -1.76586914 125.11352539 C-3.40777278 123.47162175 -2.89190963 121.59392369 -2.89285278 119.33044434 C-2.89567261 118.29557388 -2.89849243 117.26070343 -2.90139771 116.19447327 C-2.89937347 115.04949875 -2.89734924 113.90452423 -2.89526367 112.72485352 C-2.89701599 111.5266246 -2.89876831 110.32839569 -2.90057373 109.09385681 C-2.90423189 105.79847747 -2.90335884 102.50316055 -2.90019464 99.20778465 C-2.89767063 95.76624846 -2.9000087 92.32471501 -2.90158081 88.88317871 C-2.90340239 83.10269693 -2.90099651 77.3222279 -2.89624023 71.54174805 C-2.89079763 64.84969005 -2.8925603 58.15766252 -2.89806664 51.46560526 C-2.90259811 45.72973319 -2.90324815 39.99387032 -2.90062797 34.25799704 C-2.89906538 30.82792251 -2.89887093 27.39786232 -2.90216446 23.9677887 C-2.90557757 20.14591275 -2.90085287 16.32407119 -2.89526367 12.50219727 C-2.8972879 11.35722275 -2.89931213 10.21224823 -2.90139771 9.03257751 C-2.89857788 7.99770706 -2.89575806 6.96283661 -2.89285278 5.89660645 C-2.89247576 4.99178276 -2.89209873 4.08695908 -2.89171028 3.15471649 C-2.73288518 0.57851301 -2.58710842 0.16632178 0 0 Z " fill="#B7D8E8" transform="translate(678.765869140625,153.886474609375)"/>
<path d="M0 0 C6.27 0 12.54 0 19 0 C19 17.49 19 34.98 19 53 C25.27 53 31.54 53 38 53 C37.99476318 51.43000244 37.98952637 49.86000488 37.98413086 48.24243164 C37.96608857 42.4410051 37.95457083 36.63958106 37.94506836 30.83813477 C37.94002637 28.32283105 37.93319297 25.80753028 37.92456055 23.29223633 C37.91248906 19.68570225 37.90677051 16.07920677 37.90234375 12.47265625 C37.89718246 11.34038101 37.89202118 10.20810577 37.88670349 9.04151917 C37.88662796 8.00051559 37.88655243 6.95951202 37.88647461 5.88696289 C37.884254 4.96540909 37.88203339 4.04385529 37.87974548 3.09437561 C38 1 38 1 39 0 C40.41570123 -0.08651611 41.835595 -0.10704904 43.25390625 -0.09765625 C44.53491211 -0.09282227 44.53491211 -0.09282227 45.84179688 -0.08789062 C46.73962891 -0.07951172 47.63746094 -0.07113281 48.5625 -0.0625 C49.46419922 -0.05798828 50.36589844 -0.05347656 51.29492188 -0.04882812 C53.53001314 -0.03700225 55.76497437 -0.0205222 58 0 C59.23619121 2.47238241 59.12582049 4.09952257 59.12698364 6.8653717 C59.12980347 7.89320267 59.13262329 8.92103363 59.13552856 9.98001099 C59.13350433 11.11203949 59.1314801 12.24406799 59.12939453 13.41040039 C59.13114685 14.59902176 59.13289917 15.78764313 59.13470459 17.01228333 C59.13835866 20.27660439 59.13749241 23.5408851 59.1343255 26.80520558 C59.13179883 30.21603943 59.13414025 33.62687052 59.13571167 37.03770447 C59.13753222 42.76513149 59.1351298 48.49254563 59.13037109 54.2199707 C59.1249261 60.8501336 59.12669331 67.48026576 59.1321975 74.11042792 C59.1367288 79.79536518 59.13737917 85.48029316 59.13475883 91.16523165 C59.13319648 94.56399219 59.13300118 97.96273826 59.13629532 101.36149788 C59.13881995 105.14735146 59.13498404 108.93314505 59.12939453 112.71899414 C59.13141876 113.85304688 59.13344299 114.98709961 59.13552856 116.15551758 C59.13270874 117.18052872 59.12988892 118.20553986 59.12698364 119.26161194 C59.12660662 120.15776246 59.12622959 121.05391298 59.12584114 121.97721958 C59 124 59 124 58 125 C51.4 125 44.8 125 38 125 C38 107.18 38 89.36 38 71 C31.73 71 25.46 71 19 71 C19 88.82 19 106.64 19 125 C12.73 125 6.46 125 0 125 C-0.98125467 122.056236 -1.12566899 120.16396421 -1.12698364 117.09703064 C-1.12980347 116.08609848 -1.13262329 115.07516632 -1.13552856 114.03359985 C-1.13350433 112.92543915 -1.1314801 111.81727844 -1.12939453 110.67553711 C-1.13114685 109.50788315 -1.13289917 108.34022919 -1.13470459 107.13719177 C-1.13911555 103.26722743 -1.13618793 99.39730858 -1.1328125 95.52734375 C-1.13348571 92.84599246 -1.13445423 90.16464257 -1.13571167 87.48329163 C-1.13753127 81.86019393 -1.13513228 76.23710937 -1.13037109 70.61401367 C-1.12492623 64.10824976 -1.1266936 57.60251717 -1.1321975 51.09675401 C-1.13673144 45.51454014 -1.13737788 39.93233572 -1.13475883 34.3501206 C-1.13319795 31.0144993 -1.13338848 27.67889599 -1.13629532 24.34327507 C-1.13882298 20.62718433 -1.13497971 16.91115454 -1.12939453 13.19506836 C-1.13243088 11.52979095 -1.13243088 11.52979095 -1.13552856 9.83087158 C-1.13270874 8.82275925 -1.12988892 7.81464691 -1.12698364 6.77598572 C-1.12660662 5.89680449 -1.12622959 5.01762327 -1.12584114 4.11180019 C-1 2 -1 2 0 0 Z " fill="#BCD7E7" transform="translate(596,154)"/>
<path d="M0 0 C7.79034045 6.01980853 11.92341893 12.22222136 13.29638672 22.02685547 C13.92079995 27.99502818 13.89333497 33.95017174 13.8828125 39.9453125 C13.88376923 41.16217743 13.88472595 42.37904236 13.88571167 43.63278198 C13.88638968 46.19952445 13.88456195 48.76626867 13.88037109 51.33300781 C13.87504547 55.21683714 13.88031467 59.10054936 13.88671875 62.984375 C13.89843071 98.50902853 13.89843071 98.50902853 9.75 107.125 C9.3375 107.99125 8.925 108.8575 8.5 109.75 C4.14970664 115.65396956 -1.74690251 119.94561732 -8.875 121.8125 C-18.4103562 122.69540335 -26.55821757 122.60828212 -35.25 118.125 C-38.25 115.5625 -38.25 115.5625 -40.25 113.125 C-40.74242187 112.67253906 -41.23484375 112.22007812 -41.7421875 111.75390625 C-43.51647043 109.83712909 -44.35887586 108.02529324 -45.375 105.625 C-45.70757813 104.8515625 -46.04015625 104.078125 -46.3828125 103.28125 C-48.11927071 98.96357012 -48.4096613 95.28419464 -48.42700195 90.69116211 C-48.43357315 89.93625488 -48.44014435 89.18134766 -48.44691467 88.40356445 C-48.46663525 85.90315649 -48.4783108 83.40280871 -48.48828125 80.90234375 C-48.49235678 80.04600405 -48.4964323 79.18966434 -48.50063133 78.30737495 C-48.52149214 73.77010464 -48.53579078 69.23286453 -48.54516602 64.69555664 C-48.55619818 60.02743441 -48.59056078 55.35979309 -48.63033772 50.69184017 C-48.65659646 47.08766344 -48.66486629 43.48359936 -48.66844749 39.8793354 C-48.67329379 38.15988499 -48.68485145 36.44043895 -48.70348549 34.72108269 C-48.82821513 22.44388928 -48.11010673 12.24923001 -39.3125 2.8828125 C-27.86946153 -6.86977711 -12.7142255 -7.3351301 0 0 Z M-26.25 18.125 C-28.35006212 22.20364892 -28.50302785 25.6912676 -28.50878906 30.23852539 C-28.5122937 30.93508743 -28.51579834 31.63164948 -28.51940918 32.34931946 C-28.52817666 34.64053455 -28.52239577 36.93143828 -28.515625 39.22265625 C-28.51697293 40.82018594 -28.51891454 42.41771524 -28.52142334 44.01524353 C-28.52436771 47.35826536 -28.52009851 50.7011801 -28.51074219 54.04418945 C-28.49933877 58.32709032 -28.50591702 62.60974076 -28.51788712 66.89263248 C-28.52511639 70.18946721 -28.52281304 73.48624263 -28.51763153 76.78307915 C-28.51629847 78.36231961 -28.51793073 79.94156548 -28.52259064 81.52079964 C-28.52767447 83.72763454 -28.51992024 85.93406437 -28.50878906 88.14086914 C-28.50719788 89.39597794 -28.50560669 90.65108673 -28.50396729 91.94422913 C-28.26195076 94.97532473 -27.91827418 96.6257119 -26.25 99.125 C-22.74114851 102.0146424 -19.61751158 102.72327407 -15.1796875 102.5390625 C-11.73823177 101.80061248 -10.28068502 99.87239737 -8.25 97.125 C-6.50416565 92.79753237 -5.99416616 89.14603751 -5.9753418 84.49633789 C-5.96580978 83.19801529 -5.95627777 81.89969269 -5.94645691 80.56202698 C-5.94671836 79.15723646 -5.94765554 77.75244592 -5.94921875 76.34765625 C-5.94532703 74.89326354 -5.94099139 73.43887195 -5.93623352 71.98448181 C-5.92879067 68.94249785 -5.92904858 65.90062999 -5.93432617 62.85864258 C-5.94011986 58.97392345 -5.92318326 55.08968126 -5.8999815 51.20504093 C-5.88520031 48.20317337 -5.88437836 45.20141953 -5.88749123 42.19952202 C-5.88698027 40.76788831 -5.88178509 39.33624786 -5.87167931 37.90464973 C-5.58352565 26.19354092 -5.58352565 26.19354092 -10.9375 16.1875 C-16.29186214 13.72738766 -21.80316528 14.33211156 -26.25 18.125 Z " fill="#BCD9E9" transform="translate(808.25,157.875)"/>
<path d="M0 0 C0 35.97 0 71.94 0 109 C-4.91684378 108.01663124 -8.1100679 106.35240717 -12.25 103.75 C-13.59701305 102.92212964 -14.94466592 102.09529937 -16.29296875 101.26953125 C-16.93669434 100.87330566 -17.58041992 100.47708008 -18.24365234 100.06884766 C-20.99417431 98.3949826 -23.80888445 96.84985568 -26.6328125 95.3046875 C-34.71554428 90.84984853 -42.71041056 86.22815115 -50.60546875 81.44921875 C-54.08057666 79.34601315 -57.57465789 77.27465732 -61.06640625 75.19921875 C-63 74 -63 74 -64 73 C-64.29219153 67.63957996 -64.314057 62.27655804 -64.35009766 56.90893555 C-64.36665127 55.09988536 -64.3939337 53.29090041 -64.43212891 51.48217773 C-64.48688253 48.87709549 -64.50876915 46.27354883 -64.5234375 43.66796875 C-64.54610687 42.86054733 -64.56877625 42.05312592 -64.59213257 41.22123718 C-64.5772773 37.27417191 -64.43381292 35.45091343 -61.64648438 32.55371094 C-58.85353322 30.91401157 -56.05789498 29.43753258 -53.125 28.0625 C-49.0364542 26.07549662 -45.43462371 24.01355864 -41.82421875 21.27734375 C-37.79680772 18.45729363 -33.33727361 16.29998089 -29 14 C-23.07338541 10.82301204 -17.23711172 7.64279985 -11.65625 3.8828125 C-10 3 -10 3 -7 3 C-7 2.34 -7 1.68 -7 1 C-5 0 -5 0 0 0 Z " fill="#CDE7F4" transform="translate(97,234)"/>
<path d="M0 0 C3.95055475 3.57995862 8.86237799 10.25039453 9.19555664 15.76611328 C9.19031982 16.50974121 9.18508301 17.25336914 9.1796875 18.01953125 C9.17646484 18.82519531 9.17324219 19.63085938 9.16992188 20.4609375 C9.15735352 21.72357422 9.15735352 21.72357422 9.14453125 23.01171875 C9.14001953 23.86121094 9.13550781 24.71070313 9.13085938 25.5859375 C9.11905999 27.68622784 9.10112431 29.78648205 9.08203125 31.88671875 C5.93621702 31.91560389 2.79043656 31.93347798 -0.35546875 31.94921875 C-1.25330078 31.95759766 -2.15113281 31.96597656 -3.07617188 31.97460938 C-4.35717773 31.97944336 -4.35717773 31.97944336 -5.6640625 31.984375 C-6.45482178 31.98961182 -7.24558105 31.99484863 -8.06030273 32.00024414 C-9.91796875 31.88671875 -9.91796875 31.88671875 -10.91796875 30.88671875 C-11.02394042 29.15879172 -11.10259994 27.42915769 -11.16796875 25.69921875 C-11.49327683 22.13012436 -11.77814037 19.21421373 -13.79296875 16.19921875 C-18.35249243 12.82517123 -22.43091031 13.36780254 -27.91796875 13.88671875 C-27.91796875 14.54671875 -27.91796875 15.20671875 -27.91796875 15.88671875 C-28.57796875 16.21671875 -29.23796875 16.54671875 -29.91796875 16.88671875 C-31.80428468 24.02328068 -32.97539945 31.03807397 -29.91796875 37.88671875 C-25.14450999 42.45263583 -19.96926557 44.04764682 -13.7265625 45.98046875 C-10.60024034 46.9892403 -7.79412542 48.30483258 -4.91796875 49.88671875 C-3.74234375 50.47453125 -3.74234375 50.47453125 -2.54296875 51.07421875 C-2.00671875 51.34234375 -1.47046875 51.61046875 -0.91796875 51.88671875 C-0.91796875 52.54671875 -0.91796875 53.20671875 -0.91796875 53.88671875 C0.40203125 54.54671875 1.72203125 55.20671875 3.08203125 55.88671875 C3.08203125 56.54671875 3.08203125 57.20671875 3.08203125 57.88671875 C3.74203125 57.88671875 4.40203125 57.88671875 5.08203125 57.88671875 C8.64784047 66.00218376 9.70680874 73.00141024 9.58203125 81.82421875 C9.5975 82.91412109 9.61296875 84.00402344 9.62890625 85.12695312 C9.58257086 94.87476046 7.87256507 105.15202677 0.8515625 112.421875 C-7.83360162 119.6115804 -16.9293016 120.70487369 -27.91796875 119.88671875 C-32.56238716 118.82710329 -36.69300387 117.05578554 -40.91796875 114.88671875 C-40.91796875 114.22671875 -40.91796875 113.56671875 -40.91796875 112.88671875 C-41.90796875 112.88671875 -42.89796875 112.88671875 -43.91796875 112.88671875 C-50.09375812 106.13194913 -52.97137577 99.1698148 -53.60546875 90.07421875 C-53.69183594 88.93339844 -53.77820313 87.79257813 -53.8671875 86.6171875 C-53.88394531 85.71613281 -53.90070312 84.81507813 -53.91796875 83.88671875 C-51.8049283 81.7736783 -47.4063736 82.42334469 -44.48046875 82.26171875 C-43.69091797 82.21015625 -42.90136719 82.15859375 -42.08789062 82.10546875 C-36.16695414 81.76222606 -36.16695414 81.76222606 -33.91796875 82.88671875 C-33.57684946 84.62438625 -33.31932755 86.37884643 -33.10546875 88.13671875 C-32.46600788 91.83405263 -31.94353968 93.84596508 -29.91796875 97.07421875 C-26.2412088 99.29559456 -23.64372415 99.48475382 -19.41796875 99.55078125 C-15.5551912 98.52473096 -14.21671169 97.16831645 -11.91796875 93.88671875 C-11.28872292 90.15854984 -11.40121525 86.5304067 -11.54296875 82.76171875 C-11.55714844 81.76011719 -11.57132813 80.75851563 -11.5859375 79.7265625 C-11.67504266 74.21672691 -11.67504266 74.21672691 -12.91796875 68.88671875 C-14.93305233 68.15348079 -14.93305233 68.15348079 -16.91796875 67.88671875 C-16.91796875 67.22671875 -16.91796875 66.56671875 -16.91796875 65.88671875 C-17.74296875 65.80421875 -18.56796875 65.72171875 -19.41796875 65.63671875 C-23.03412939 64.86182719 -25.67865923 63.63696859 -28.9140625 61.91796875 C-31.12563547 60.73728057 -31.12563547 60.73728057 -34.41796875 59.51171875 C-42.43011645 55.79179303 -47.56045093 51.17243869 -50.91796875 42.88671875 C-54.28489099 30.79153312 -52.84065186 15.85046421 -46.91796875 4.88671875 C-34.4500489 -9.91893608 -15.32438934 -10.65461045 0 0 Z " fill="#C1D9E9" transform="translate(892.91796875,160.11328125)"/>
<path d="M0 0 C0.598125 0.33 1.19625 0.66 1.8125 1 C4.05386471 2.20787988 4.05386471 2.20787988 7 2 C9.03710938 2.99389648 9.03710938 2.99389648 11.34375 4.37109375 C12.17777344 4.86287109 13.01179687 5.35464844 13.87109375 5.86132812 C14.73863281 6.38146484 15.60617188 6.90160156 16.5 7.4375 C18.21730544 8.4594626 19.93599848 9.47909806 21.65625 10.49609375 C22.79803711 11.17949829 22.79803711 11.17949829 23.96289062 11.87670898 C26.09371265 13.13188851 26.09371265 13.13188851 29 14 C29 14.66 29 15.32 29 16 C29.721875 16.28875 30.44375 16.5775 31.1875 16.875 C32.115625 17.24625 33.04375 17.6175 34 18 C34.9075 18.309375 35.815 18.61875 36.75 18.9375 C37.86375 19.4634375 37.86375 19.4634375 39 20 C39.495 21.485 39.495 21.485 40 23 C41.71522265 24.28714283 41.71522265 24.28714283 43.859375 25.375 C44.64570313 25.80296875 45.43203125 26.2309375 46.2421875 26.671875 C47.06976563 27.11015625 47.89734375 27.5484375 48.75 28 C50.37013732 28.87435982 51.98993811 29.74934357 53.609375 30.625 C54.33092773 31.00914063 55.05248047 31.39328125 55.79589844 31.7890625 C56.52325195 32.18867187 57.25060547 32.58828125 58 33 C58.85875229 33.37473953 59.71750458 33.74947906 60.60227966 34.13557434 C63 36 63 36 63.60127258 39.13212585 C63.59016953 40.42230118 63.57906647 41.7124765 63.56762695 43.04174805 C63.56835709 43.75419678 63.56908722 44.46664551 63.56983948 45.20068359 C63.56635644 47.55513714 63.52746648 49.90761102 63.48828125 52.26171875 C63.47895555 53.89409809 63.47183829 55.52649143 63.46684265 57.15888977 C63.44775339 61.45499319 63.39863694 65.75025112 63.34332275 70.04602051 C63.29217126 74.42965252 63.26933744 78.81342119 63.24414062 83.19726562 C63.19051919 91.79856506 63.10518419 100.39917735 63 109 C59.35940269 107.57804418 56.05032971 105.98056149 52.66796875 104.015625 C51.63333496 103.41669434 50.59870117 102.81776367 49.53271484 102.20068359 C47.8768335 101.23509521 47.8768335 101.23509521 46.1875 100.25 C45.03351334 99.57998686 43.87937705 98.91023137 42.72509766 98.24072266 C39.7402334 96.50826956 36.7578427 94.77160169 33.77593994 93.03405762 C30.92917593 91.37650269 28.07960388 89.72378743 25.23046875 88.0703125 C23.1117994 86.8388509 20.9933025 85.60709254 18.875 84.375 C17.41163208 83.52470215 17.41163208 83.52470215 15.91870117 82.65722656 C14.99420166 82.11807617 14.06970215 81.57892578 13.1171875 81.0234375 C12.31909668 80.55856934 11.52100586 80.09370117 10.69873047 79.61474609 C9.80814941 79.08187988 8.91756836 78.54901367 8 78 C7.31653503 77.76160904 6.63307007 77.52321808 5.92889404 77.27760315 C3.27331001 76.14529786 1.84034367 75.24749454 0 73 C-1.16463454 67.52304234 -0.93067789 62.11629262 -0.78125 56.54296875 C-0.76632105 54.91346516 -0.7549371 53.28392556 -0.74694824 51.65437317 C-0.7164639 47.37411612 -0.63793821 43.09604584 -0.54931641 38.81665039 C-0.46734175 34.44642725 -0.4309123 30.07584918 -0.390625 25.70507812 C-0.30493561 17.13571737 -0.16847918 8.56813101 0 0 Z " fill="#C1DBEB" transform="translate(224,87)"/>
<path d="M0 0 C1.58669495 -0.00472824 1.58669495 -0.00472824 3.20544434 -0.009552 C4.93196228 -0.00651566 4.93196228 -0.00651566 6.69335938 -0.00341797 C8.45226501 -0.00485306 8.45226501 -0.00485306 10.2467041 -0.00631714 C12.73169 -0.00699917 15.21667766 -0.00514331 17.70166016 -0.00097656 C21.52054825 0.00437134 25.33931872 -0.00092083 29.15820312 -0.00732422 C31.56575547 -0.00666344 33.97330774 -0.00538229 36.38085938 -0.00341797 C38.10737732 -0.00645432 38.10737732 -0.00645432 39.86877441 -0.009552 C40.92657104 -0.00639984 41.98436768 -0.00324768 43.07421875 0 C44.47867249 0.00119339 44.47867249 0.00119339 45.91149902 0.00241089 C48.03710938 0.12939453 48.03710938 0.12939453 49.03710938 1.12939453 C49.13697912 3.97274501 49.17588819 6.78636616 49.16210938 9.62939453 C49.16791016 10.82628906 49.16791016 10.82628906 49.17382812 12.04736328 C49.16371705 18.00278686 49.16371705 18.00278686 48.03710938 19.12939453 C45.51642756 19.21786287 43.02256521 19.24473978 40.50195312 19.22705078 C39.50089539 19.22554016 39.50089539 19.22554016 38.47961426 19.22399902 C35.97792858 19.21875262 33.47626731 19.20479144 30.97460938 19.19189453 C22.59054687 19.16095703 22.59054687 19.16095703 14.03710938 19.12939453 C14.03710938 30.34939453 14.03710938 41.56939453 14.03710938 53.12939453 C23.93710938 53.12939453 33.83710937 53.12939453 44.03710938 53.12939453 C44.05773438 56.07876953 44.07835937 59.02814453 44.09960938 62.06689453 C44.10871338 62.99751709 44.11781738 63.92813965 44.12719727 64.88696289 C44.12969482 65.61536377 44.13219238 66.34376465 44.13476562 67.09423828 C44.14000244 67.84310303 44.14523926 68.59196777 44.15063477 69.36352539 C44.03710938 71.12939453 44.03710938 71.12939453 43.03710938 72.12939453 C40.89152111 72.21715058 38.74306516 72.23634672 36.59570312 72.22705078 C35.42064209 72.22455322 34.24558105 72.22205566 33.03491211 72.21948242 C31.53001221 72.21037842 30.0251123 72.20127441 28.47460938 72.19189453 C23.71023438 72.17126953 18.94585938 72.15064453 14.03710938 72.12939453 C14.03710938 83.01939453 14.03710938 93.90939453 14.03710938 105.12939453 C16.47988281 105.11779297 18.92265625 105.10619141 21.43945312 105.09423828 C23.79581574 105.08644769 26.15217693 105.08037094 28.50854492 105.07446289 C30.15080402 105.06942279 31.79305861 105.06259075 33.43530273 105.05395508 C35.79086416 105.04187528 38.14636646 105.03616315 40.50195312 105.03173828 C41.24050034 105.026577 41.97904755 105.02141571 42.73997498 105.01609802 C44.50609025 105.01590203 46.27208083 105.06744734 48.03710938 105.12939453 C49.03710938 106.12939453 49.03710938 106.12939453 49.15063477 107.98706055 C49.14539795 108.77781982 49.14016113 109.5685791 49.13476562 110.38330078 C49.13154297 111.23730469 49.12832031 112.09130859 49.125 112.97119141 C49.11243164 114.31793945 49.11243164 114.31793945 49.09960938 115.69189453 C49.09509766 116.59359375 49.09058594 117.49529297 49.0859375 118.42431641 C49.07411162 120.65940767 49.05763158 122.8943689 49.03710938 125.12939453 C41.36499735 125.15466058 33.69289598 125.17222576 26.02075195 125.18432617 C23.40844319 125.1893683 20.79613726 125.19620178 18.18383789 125.20483398 C14.43830669 125.21690489 10.69281266 125.22262389 6.94726562 125.22705078 C5.77124283 125.23221207 4.59522003 125.23737335 3.38356018 125.24269104 C2.30251511 125.24276657 1.22147003 125.2428421 0.10766602 125.24291992 C-0.84941757 125.24514053 -1.80650116 125.24736115 -2.79258728 125.24964905 C-4.96289062 125.12939453 -4.96289062 125.12939453 -5.96289062 124.12939453 C-6.06103258 122.53749481 -6.08920969 120.94123546 -6.08987427 119.34631348 C-6.09269409 118.31144302 -6.09551392 117.27657257 -6.09841919 116.21034241 C-6.09639496 115.06536789 -6.09437073 113.92039337 -6.09228516 112.74072266 C-6.09403748 111.54249374 -6.09578979 110.34426483 -6.09759521 109.10972595 C-6.10125337 105.81434661 -6.10038033 102.51902969 -6.09721613 99.22365379 C-6.09469212 95.7821176 -6.09703018 92.34058415 -6.09860229 88.89904785 C-6.10042387 83.11856607 -6.098018 77.33809704 -6.09326172 71.55761719 C-6.08781912 64.86555919 -6.08958178 58.17353166 -6.09508812 51.4814744 C-6.0996196 45.74560233 -6.10026964 40.00973946 -6.09764946 34.27386618 C-6.09608687 30.84379165 -6.09589241 27.41373146 -6.09918594 23.98365784 C-6.10259905 20.16178189 -6.09787436 16.33994033 -6.09228516 12.51806641 C-6.09430939 11.37309189 -6.09633362 10.22811737 -6.09841919 9.04844666 C-6.09559937 8.0135762 -6.09277954 6.97870575 -6.08987427 5.91247559 C-6.08949724 5.0076519 -6.08912022 4.10282822 -6.08873177 3.17058563 C-5.84173303 -0.83582776 -3.45756504 0.00293796 0 0 Z " fill="#C2D8E8" transform="translate(1047.962890625,153.87060546875)"/>
<path d="M0 0 C1.58669495 -0.00472824 1.58669495 -0.00472824 3.20544434 -0.009552 C4.93196228 -0.00651566 4.93196228 -0.00651566 6.69335938 -0.00341797 C8.45226501 -0.00485306 8.45226501 -0.00485306 10.2467041 -0.00631714 C12.73169 -0.00699917 15.21667766 -0.00514331 17.70166016 -0.00097656 C21.52054825 0.00437134 25.33931872 -0.00092083 29.15820312 -0.00732422 C31.56575547 -0.00666344 33.97330774 -0.00538229 36.38085938 -0.00341797 C38.10737732 -0.00645432 38.10737732 -0.00645432 39.86877441 -0.009552 C40.92657104 -0.00639984 41.98436768 -0.00324768 43.07421875 0 C44.47867249 0.00119339 44.47867249 0.00119339 45.91149902 0.00241089 C48.03710938 0.12939453 48.03710938 0.12939453 49.03710938 1.12939453 C49.13697912 3.97274501 49.17588819 6.78636616 49.16210938 9.62939453 C49.16791016 10.82628906 49.16791016 10.82628906 49.17382812 12.04736328 C49.16371705 18.00278686 49.16371705 18.00278686 48.03710938 19.12939453 C45.51642756 19.21786287 43.02256521 19.24473978 40.50195312 19.22705078 C39.50089539 19.22554016 39.50089539 19.22554016 38.47961426 19.22399902 C35.97792858 19.21875262 33.47626731 19.20479144 30.97460938 19.19189453 C22.59054687 19.16095703 22.59054687 19.16095703 14.03710938 19.12939453 C14.03710938 30.34939453 14.03710938 41.56939453 14.03710938 53.12939453 C23.93710937 53.12939453 33.83710938 53.12939453 44.03710938 53.12939453 C44.05773437 56.07876953 44.07835937 59.02814453 44.09960938 62.06689453 C44.10871338 62.99751709 44.11781738 63.92813965 44.12719727 64.88696289 C44.12969482 65.61536377 44.13219238 66.34376465 44.13476562 67.09423828 C44.14000244 67.84310303 44.14523926 68.59196777 44.15063477 69.36352539 C44.03710938 71.12939453 44.03710938 71.12939453 43.03710938 72.12939453 C40.89152111 72.21715058 38.74306516 72.23634672 36.59570312 72.22705078 C35.42064209 72.22455322 34.24558105 72.22205566 33.03491211 72.21948242 C31.53001221 72.21037842 30.0251123 72.20127441 28.47460938 72.19189453 C23.71023438 72.17126953 18.94585937 72.15064453 14.03710938 72.12939453 C14.03710938 83.01939453 14.03710938 93.90939453 14.03710938 105.12939453 C16.47988281 105.11779297 18.92265625 105.10619141 21.43945312 105.09423828 C23.79581574 105.08644769 26.15217693 105.08037094 28.50854492 105.07446289 C30.15080402 105.06942279 31.79305861 105.06259075 33.43530273 105.05395508 C35.79086416 105.04187528 38.14636646 105.03616315 40.50195312 105.03173828 C41.24050034 105.026577 41.97904755 105.02141571 42.73997498 105.01609802 C44.50609025 105.01590203 46.27208083 105.06744734 48.03710938 105.12939453 C49.55920528 106.65149043 49.16670458 108.01149535 49.16992188 110.12939453 C49.17185547 111.33595703 49.17185547 111.33595703 49.17382812 112.56689453 C49.16996094 113.41251953 49.16609375 114.25814453 49.16210938 115.12939453 C49.16791016 116.39783203 49.16791016 116.39783203 49.17382812 117.69189453 C49.17253906 118.49626953 49.17125 119.30064453 49.16992188 120.12939453 C49.16879395 120.87189453 49.16766602 121.61439453 49.16650391 122.37939453 C49.03710938 124.12939453 49.03710938 124.12939453 48.03710938 125.12939453 C46.38519542 125.22807962 44.7290772 125.2573829 43.07421875 125.25878906 C42.01642212 125.26194122 40.95862549 125.26509338 39.86877441 125.26834106 C38.71776245 125.26631683 37.56675049 125.2642926 36.38085938 125.26220703 C34.62195374 125.26364212 34.62195374 125.26364212 32.82751465 125.2651062 C30.34252875 125.26578823 27.85754109 125.26393237 25.37255859 125.25976562 C21.5536705 125.25441772 17.73490003 125.25970989 13.91601562 125.26611328 C11.50846328 125.2654525 9.10091101 125.26417135 6.69335938 125.26220703 C4.96684143 125.26524338 4.96684143 125.26524338 3.20544434 125.26834106 C2.14764771 125.2651889 1.08985107 125.26203674 0 125.25878906 C-1.40445374 125.25759567 -1.40445374 125.25759567 -2.83728027 125.25637817 C-4.96289062 125.12939453 -4.96289062 125.12939453 -5.96289062 124.12939453 C-6.06103258 122.53749481 -6.08920969 120.94123546 -6.08987427 119.34631348 C-6.09269409 118.31144302 -6.09551392 117.27657257 -6.09841919 116.21034241 C-6.09639496 115.06536789 -6.09437073 113.92039337 -6.09228516 112.74072266 C-6.09403748 111.54249374 -6.09578979 110.34426483 -6.09759521 109.10972595 C-6.10125337 105.81434661 -6.10038033 102.51902969 -6.09721613 99.22365379 C-6.09469212 95.7821176 -6.09703018 92.34058415 -6.09860229 88.89904785 C-6.10042387 83.11856607 -6.098018 77.33809704 -6.09326172 71.55761719 C-6.08781912 64.86555919 -6.08958178 58.17353166 -6.09508812 51.4814744 C-6.0996196 45.74560233 -6.10026964 40.00973946 -6.09764946 34.27386618 C-6.09608687 30.84379165 -6.09589241 27.41373146 -6.09918594 23.98365784 C-6.10259905 20.16178189 -6.09787436 16.33994033 -6.09228516 12.51806641 C-6.09430939 11.37309189 -6.09633362 10.22811737 -6.09841919 9.04844666 C-6.09559937 8.0135762 -6.09277954 6.97870575 -6.08987427 5.91247559 C-6.08949724 5.0076519 -6.08912022 4.10282822 -6.08873177 3.17058563 C-5.84173303 -0.83582776 -3.45756504 0.00293796 0 0 Z " fill="#B8D7E8" transform="translate(451.962890625,153.87060546875)"/>
<path d="M0 0 C6.6 0 13.2 0 20 0 C22.09399545 9.32779793 23.71674888 18.52884061 25 28 C25.44694741 31.14754656 25.90817896 34.2928433 26.375 37.4375 C26.49786377 38.26660889 26.62072754 39.09571777 26.74731445 39.94995117 C27.93024819 47.79142977 29.30078562 55.59808267 30.72998047 63.39819336 C30.8951416 64.31737549 31.06030273 65.23655762 31.23046875 66.18359375 C31.37895264 66.99368896 31.52743652 67.80378418 31.68041992 68.63842773 C32.01621524 71.1198243 32.05470051 73.4990482 32 76 C32.66 76 33.32 76 34 76 C34.13664063 74.69804687 34.27328125 73.39609375 34.4140625 72.0546875 C34.93357843 67.3863356 35.62138778 62.76052842 36.375 58.125 C36.64462302 56.44402513 36.9141517 54.76303513 37.18359375 53.08203125 C37.32007324 52.23463379 37.45655273 51.38723633 37.59716797 50.51416016 C38.09956599 47.37858751 38.5893611 44.24112328 39.07885742 41.10351562 C39.57108201 37.9591756 40.07114534 34.81611727 40.57324219 31.67333984 C40.87995327 29.75200897 41.18510661 27.83042918 41.48925781 25.90869141 C42.00750941 22.64643915 42.53416689 19.38563324 43.0625 16.125 C43.22484131 15.09608643 43.38718262 14.06717285 43.55444336 13.00708008 C43.71307861 12.03794678 43.87171387 11.06881348 44.03515625 10.0703125 C44.1731665 9.21195801 44.31117676 8.35360352 44.45336914 7.46923828 C45 5 45 5 47 0 C53.27 0 59.54 0 66 0 C67.1424499 3.42734971 66.83415201 4.94758747 66.1796875 8.4609375 C65.97641846 9.56236084 65.77314941 10.66378418 65.5637207 11.79858398 C65.33644287 12.97880127 65.10916504 14.15901855 64.875 15.375 C64.53311646 17.18883179 64.53311646 17.18883179 64.18432617 19.03930664 C62.57191847 27.43765525 60.71378775 35.75169933 58.66772461 44.05371094 C57.37924212 49.30205778 56.33183523 54.51717927 55.5234375 59.86328125 C54.68697125 64.87583647 53.59217166 69.83226438 52.53100586 74.80126953 C51.48604888 79.69451411 50.47110909 84.59138848 49.5 89.5 C48.34888596 95.29960186 47.15511467 101.08907549 45.9375 106.875 C45.69386719 108.03418945 45.69386719 108.03418945 45.4453125 109.21679688 C44.33265709 114.48607962 43.17546355 119.74437186 42 125 C36.06 125 30.12 125 24 125 C21.73930771 116.3878389 19.96692859 107.75565952 18.37060547 99.00390625 C16.58280588 89.33706897 14.52227414 79.7241727 12.47851562 70.10913086 C11.43522067 65.16686812 10.46833065 60.21927434 9.5625 55.25 C8.33727014 48.59492633 6.94462215 41.98577462 5.5 35.375 C5.28456543 34.3857251 5.06913086 33.3964502 4.84716797 32.37719727 C3.92702674 28.16848112 2.9984007 23.9631857 2.01171875 19.76953125 C1.73972656 18.58746094 1.46773437 17.40539062 1.1875 16.1875 C0.95417969 15.21167969 0.72085938 14.23585937 0.48046875 13.23046875 C-0.16874643 8.86542032 0 4.41306335 0 0 Z " fill="#C5DAE9" transform="translate(959,154)"/>
<path d="M0 0 C1.875 1.9375 1.875 1.9375 1.875 3.9375 C2.865 4.2675 3.855 4.5975 4.875 4.9375 C6.2265625 7.1171875 6.2265625 7.1171875 7.5 9.8125 C8.13808594 11.13894531 8.13808594 11.13894531 8.7890625 12.4921875 C10.77493964 16.96398278 11.02715599 20.74683796 11 25.5625 C11.00580078 26.60277344 11.00580078 26.60277344 11.01171875 27.6640625 C11.00166646 32.81083354 11.00166646 32.81083354 9.875 33.9375 C8.53232587 34.02381874 7.18525678 34.04456473 5.83984375 34.03515625 C5.03095703 34.03193359 4.22207031 34.02871094 3.38867188 34.02539062 C2.53853516 34.01701172 1.68839844 34.00863281 0.8125 34 C-0.04150391 33.99548828 -0.89550781 33.99097656 -1.77539062 33.98632812 C-3.89195663 33.97450373 -6.00848685 33.95656769 -8.125 33.9375 C-8.78982319 31.42655623 -9.232375 29.0938393 -9.5625 26.5 C-10.07032035 23.28380445 -10.64218368 20.82075396 -12.125 17.9375 C-15.87547482 15.43718346 -17.68356266 15.40146446 -22.125 15.9375 C-25.55166794 18.5708348 -26.96559535 20.05198456 -27.73973083 24.35241699 C-27.73466019 25.65859985 -27.72958954 26.96478271 -27.72436523 28.31054688 C-27.72830795 29.03476334 -27.73225067 29.7589798 -27.73631287 30.50514221 C-27.74300397 32.88955774 -27.71390335 35.27204062 -27.68359375 37.65625 C-27.67934103 39.31864043 -27.67701478 40.98103681 -27.67652893 42.64343262 C-27.67036949 46.1237285 -27.64770004 49.60337927 -27.61206055 53.08349609 C-27.56678856 57.53897136 -27.55203409 61.99386277 -27.54832363 66.44954681 C-27.54388925 69.88114146 -27.52857518 73.31261424 -27.5094471 76.74415588 C-27.50058335 78.38675436 -27.49384442 80.02936575 -27.48928642 81.67198181 C-27.4802167 83.96969304 -27.45780276 86.26688381 -27.43139648 88.56445312 C-27.42075668 89.87063599 -27.41011688 91.17681885 -27.39915466 92.52258301 C-27.13854689 95.76875764 -26.52684549 98.02306756 -25.125 100.9375 C-20.19372261 101.36838832 -16.41007247 101.69805309 -12.0625 99.125 C-9.62388713 95.11308851 -9.43899499 91.89708046 -9.265625 87.265625 C-9.125 84.9375 -9.125 84.9375 -8.125 83.9375 C-6.79456375 83.8391279 -5.45906656 83.80671408 -4.125 83.8046875 C-3.320625 83.80339844 -2.51625 83.80210937 -1.6875 83.80078125 C-0.841875 83.80464844 0.00375 83.80851562 0.875 83.8125 C2.1434375 83.80669922 2.1434375 83.80669922 3.4375 83.80078125 C4.241875 83.80207031 5.04625 83.80335938 5.875 83.8046875 C6.6175 83.80581543 7.36 83.80694336 8.125 83.80810547 C9.875 83.9375 9.875 83.9375 10.875 84.9375 C11.95448551 95.28143079 11.00565723 103.22339987 4.875 111.9375 C2.7576291 114.30949145 0.67061897 116.39415587 -2.125 117.9375 C-3.115 117.9375 -4.105 117.9375 -5.125 117.9375 C-5.125 118.5975 -5.125 119.2575 -5.125 119.9375 C-15.21831833 123.60779757 -25.94871166 122.80506244 -35.625 118.3125 C-36.8625 117.631875 -36.8625 117.631875 -38.125 116.9375 C-38.125 116.2775 -38.125 115.6175 -38.125 114.9375 C-39.115 114.6075 -40.105 114.2775 -41.125 113.9375 C-42.6953125 111.79296875 -42.6953125 111.79296875 -44.25 109.125 C-44.76820313 108.25230469 -45.28640625 107.37960937 -45.8203125 106.48046875 C-48.24726078 101.75009949 -48.28285254 97.3610394 -48.30200195 92.11474609 C-48.30857315 91.33043213 -48.31514435 90.54611816 -48.32191467 89.73803711 C-48.3416025 87.1456695 -48.35330216 84.5533598 -48.36328125 81.9609375 C-48.36735678 81.07241718 -48.3714323 80.18389687 -48.37563133 79.26845169 C-48.39647601 74.56259648 -48.41078287 69.85677026 -48.42016602 65.15087891 C-48.43120796 60.30903824 -48.46558676 55.46765998 -48.50533772 50.62598228 C-48.53158529 46.88712761 -48.53986521 43.14838159 -48.54344749 39.4094429 C-48.54829492 37.62579868 -48.55985585 35.84215871 -48.57848549 34.05860519 C-48.69437333 22.2253152 -48.48530919 11.66271884 -39.96875 2.47265625 C-28.70917626 -6.90237019 -12.26987942 -8.09812041 0 0 Z " fill="#BCD9E9" transform="translate(564.125,158.0625)"/>
<path d="M0 0 C1.17792114 -0.00315216 2.35584229 -0.00630432 3.56945801 -0.009552 C4.85171265 -0.00752777 6.13396729 -0.00550354 7.45507812 -0.00341797 C8.76085815 -0.00437469 10.06663818 -0.00533142 11.4119873 -0.00631714 C14.17945535 -0.0077938 16.94689116 -0.00564058 19.71435547 -0.00097656 C23.26895462 0.00472073 26.82347827 0.00144155 30.37807465 -0.00454903 C33.75791526 -0.00902294 37.13773536 -0.00589433 40.51757812 -0.00341797 C41.79983276 -0.0054422 43.0820874 -0.00746643 44.40319824 -0.009552 C46.17007996 -0.00482376 46.17007996 -0.00482376 47.97265625 0 C49.0155481 0.00079559 50.05843994 0.00159119 51.13293457 0.00241089 C53.48632812 0.12939453 53.48632812 0.12939453 54.48632812 1.12939453 C54.57264687 2.47206866 54.59339286 3.81913775 54.58398438 5.16455078 C54.58148682 5.89295166 54.57898926 6.62135254 54.57641602 7.37182617 C54.56731201 8.30244873 54.55820801 9.23307129 54.54882812 10.19189453 C54.52820313 13.14126953 54.50757813 16.09064453 54.48632812 19.12939453 C47.88632812 19.12939453 41.28632813 19.12939453 34.48632812 19.12939453 C34.49156494 22.30491943 34.49680176 25.48044434 34.50219727 28.75219727 C34.51873093 39.21762224 34.52979845 49.68304777 34.5381403 60.14848232 C34.54336977 66.49670029 34.55046857 72.84490494 34.56176758 79.19311523 C34.57259419 85.31388035 34.57860448 91.43463262 34.58120537 97.55540657 C34.58306003 99.89630397 34.58668141 102.23720062 34.59205818 104.57809258 C34.59926561 107.84447655 34.60031919 111.11080668 34.59985352 114.37719727 C34.60344879 115.35542953 34.60704407 116.3336618 34.61074829 117.34153748 C34.60937363 118.22639832 34.60799896 119.11125916 34.60658264 120.02293396 C34.60750443 120.79631827 34.60842623 121.56970259 34.60937595 122.36652279 C34.48632812 124.12939453 34.48632812 124.12939453 33.48632812 125.12939453 C27.21632813 125.12939453 20.94632812 125.12939453 14.48632812 125.12939453 C14.48632812 90.14939453 14.48632812 55.16939453 14.48632812 19.12939453 C7.55632812 19.12939453 0.62632812 19.12939453 -6.51367188 19.12939453 C-6.53429687 16.18001953 -6.55492187 13.23064453 -6.57617188 10.19189453 C-6.58527588 9.26127197 -6.59437988 8.33064941 -6.60375977 7.37182617 C-6.60625732 6.64342529 -6.60875488 5.91502441 -6.61132812 5.16455078 C-6.61656494 4.41568604 -6.62180176 3.66682129 -6.62719727 2.89526367 C-6.37467594 -1.03266481 -3.23225945 0.0024658 0 0 Z " fill="#C2D8E8" transform="translate(377.513671875,153.87060546875)"/>
<path d="M0 0 C0.804375 -0.00128906 1.60875 -0.00257813 2.4375 -0.00390625 C3.283125 -0.00003906 4.12875 0.00382813 5 0.0078125 C6.2684375 0.00201172 6.2684375 0.00201172 7.5625 -0.00390625 C8.366875 -0.00261719 9.17125 -0.00132812 10 0 C10.7425 0.00112793 11.485 0.00225586 12.25 0.00341797 C14 0.1328125 14 0.1328125 15 1.1328125 C15.09814195 2.72471223 15.12631906 4.32097157 15.12698364 5.91589355 C15.12980347 6.95076401 15.13262329 7.98563446 15.13552856 9.05186462 C15.13350433 10.19683914 15.1314801 11.34181366 15.12939453 12.52148438 C15.13114685 13.71971329 15.13289917 14.9179422 15.13470459 16.15248108 C15.13836275 19.44786042 15.1374897 22.74317734 15.1343255 26.03855324 C15.13180149 29.48008943 15.13413956 32.92162288 15.13571167 36.36315918 C15.13753325 42.14364097 15.13512737 47.92410999 15.13037109 53.70458984 C15.12492849 60.39664784 15.12669116 67.08867537 15.1321975 73.78073263 C15.13672897 79.5166047 15.13737901 85.25246758 15.13475883 90.98834085 C15.13319624 94.41841538 15.13300179 97.84847557 15.13629532 101.27854919 C15.13970843 105.10042514 15.13498373 108.9222667 15.12939453 112.74414062 C15.13141876 113.88911514 15.13344299 115.03408966 15.13552856 116.21376038 C15.13129883 117.76606606 15.13129883 117.76606606 15.12698364 119.34973145 C15.12660662 120.25455513 15.12622959 121.15937881 15.12584114 122.0916214 C15 124.1328125 15 124.1328125 14 125.1328125 C12.58429877 125.21932861 11.164405 125.23986154 9.74609375 125.23046875 C8.89208984 125.22724609 8.03808594 125.22402344 7.15820312 125.22070312 C6.26037109 125.21232422 5.36253906 125.20394531 4.4375 125.1953125 C3.53580078 125.19080078 2.63410156 125.18628906 1.70507812 125.18164062 C-0.53001314 125.16981475 -2.76497437 125.1533347 -5 125.1328125 C-5.02332909 108.9824933 -5.04097922 92.83217954 -5.05181217 76.68184757 C-5.05697511 69.18348186 -5.06401776 61.68512659 -5.07543945 54.18676758 C-5.08538637 47.65350746 -5.09185344 41.12025491 -5.09408849 34.58698744 C-5.09539559 31.12559443 -5.09848136 27.66422308 -5.10573006 24.20283699 C-5.11374407 20.34493723 -5.11399113 16.48705893 -5.11352539 12.62915039 C-5.11712067 11.47325409 -5.12071594 10.31735779 -5.12442017 9.12643433 C-5.1230455 8.08170456 -5.12167084 7.03697479 -5.12025452 5.96058655 C-5.12117631 5.0470897 -5.1220981 4.13359285 -5.12304783 3.19241428 C-4.90368167 -0.47938508 -3.24142303 0.00492404 0 0 Z " fill="#B6D7E7" transform="translate(927,153.8671875)"/>
<path d="M0 0 C6.27 0 12.54 0 19 0 C19 17.49 19 34.98 19 53 C25.27 53 31.54 53 38 53 C37.99476318 51.43000244 37.98952637 49.86000488 37.98413086 48.24243164 C37.96608857 42.4410051 37.95457083 36.63958106 37.94506836 30.83813477 C37.94002637 28.32283105 37.93319297 25.80753028 37.92456055 23.29223633 C37.91248906 19.68570225 37.90677051 16.07920677 37.90234375 12.47265625 C37.89718246 11.34038101 37.89202118 10.20810577 37.88670349 9.04151917 C37.88662796 8.00051559 37.88655243 6.95951202 37.88647461 5.88696289 C37.884254 4.96540909 37.88203339 4.04385529 37.87974548 3.09437561 C38 1 38 1 39 0 C40.41570123 -0.08651611 41.835595 -0.10704904 43.25390625 -0.09765625 C44.53491211 -0.09282227 44.53491211 -0.09282227 45.84179688 -0.08789062 C46.73962891 -0.07951172 47.63746094 -0.07113281 48.5625 -0.0625 C49.46419922 -0.05798828 50.36589844 -0.05347656 51.29492188 -0.04882812 C53.53001314 -0.03700225 55.76497437 -0.0205222 58 0 C59.23619121 2.47238241 59.12582049 4.09952257 59.12698364 6.8653717 C59.12980347 7.89320267 59.13262329 8.92103363 59.13552856 9.98001099 C59.13350433 11.11203949 59.1314801 12.24406799 59.12939453 13.41040039 C59.13114685 14.59902176 59.13289917 15.78764313 59.13470459 17.01228333 C59.13835866 20.27660439 59.13749241 23.5408851 59.1343255 26.80520558 C59.13179883 30.21603943 59.13414025 33.62687052 59.13571167 37.03770447 C59.13753222 42.76513149 59.1351298 48.49254563 59.13037109 54.2199707 C59.1249261 60.8501336 59.12669331 67.48026576 59.1321975 74.11042792 C59.1367288 79.79536518 59.13737917 85.48029316 59.13475883 91.16523165 C59.13319648 94.56399219 59.13300118 97.96273826 59.13629532 101.36149788 C59.13881995 105.14735146 59.13498404 108.93314505 59.12939453 112.71899414 C59.13141876 113.85304688 59.13344299 114.98709961 59.13552856 116.15551758 C59.13270874 117.18052872 59.12988892 118.20553986 59.12698364 119.26161194 C59.12660662 120.15776246 59.12622959 121.05391298 59.12584114 121.97721958 C59 124 59 124 58 125 C51.4 125 44.8 125 38 125 C38 107.18 38 89.36 38 71 C31.73 71 25.46 71 19 71 C19 88.82 19 106.64 19 125 C12.73 125 6.46 125 0 125 C-0.9971257 122.00862289 -1.09229826 120.18249007 -1.02172852 117.06958008 C-1.00163223 116.06876907 -0.98153595 115.06795807 -0.96083069 114.03681946 C-0.93379562 112.95861435 -0.90676056 111.88040924 -0.87890625 110.76953125 C-0.85529526 109.66397385 -0.83168427 108.55841644 -0.80735779 107.4193573 C-0.73070304 103.88360817 -0.64668612 100.34807705 -0.5625 96.8125 C-0.50928115 94.41732842 -0.45654074 92.02214617 -0.40429688 89.62695312 C-0.27508539 83.7511668 -0.13982681 77.87554277 0 72 C0.33 72 0.66 72 1 72 C1 89.16 1 106.32 1 124 C6.61 124 12.22 124 18 124 C18 105.85 18 87.7 18 69 C25.26 69 32.52 69 40 69 C40 87.15 40 105.3 40 124 C45.61 124 51.22 124 57 124 C57 83.74 57 43.48 57 2 C51.39 2 45.78 2 40 2 C40 19.16 40 36.32 40 54 C32.74 54 25.48 54 18 54 C18 36.84 18 19.68 18 2 C12.39 2 6.78 2 1 2 C1 24.77 1 47.54 1 71 C0.34 71 -0.32 71 -1 71 C-1.02314078 62.03806296 -1.04092397 53.07613616 -1.05181217 44.1141758 C-1.05703719 39.95305961 -1.06412795 35.79196382 -1.07543945 31.63085938 C-1.08628184 27.61734185 -1.09227972 23.60384399 -1.09487724 19.59031296 C-1.09672905 18.05686509 -1.100345 16.52341832 -1.10573006 14.98997879 C-1.1129584 12.84697368 -1.11399018 10.70405044 -1.11352539 8.56103516 C-1.115746 7.33969879 -1.11796661 6.11836243 -1.12025452 4.86001587 C-1 2 -1 2 0 0 Z " fill="#DEE7F1" transform="translate(596,154)"/>
<path d="M0 0 C1.58669495 -0.00472824 1.58669495 -0.00472824 3.20544434 -0.009552 C4.93196228 -0.00651566 4.93196228 -0.00651566 6.69335938 -0.00341797 C8.45226501 -0.00485306 8.45226501 -0.00485306 10.2467041 -0.00631714 C12.73169 -0.00699917 15.21667766 -0.00514331 17.70166016 -0.00097656 C21.52054825 0.00437134 25.33931872 -0.00092083 29.15820312 -0.00732422 C31.56575547 -0.00666344 33.97330774 -0.00538229 36.38085938 -0.00341797 C38.10737732 -0.00645432 38.10737732 -0.00645432 39.86877441 -0.009552 C40.92657104 -0.00639984 41.98436768 -0.00324768 43.07421875 0 C44.47867249 0.00119339 44.47867249 0.00119339 45.91149902 0.00241089 C48.03710938 0.12939453 48.03710938 0.12939453 49.03710938 1.12939453 C49.13697912 3.97274501 49.17588819 6.78636616 49.16210938 9.62939453 C49.16791016 10.82628906 49.16791016 10.82628906 49.17382812 12.04736328 C49.16371705 18.00278686 49.16371705 18.00278686 48.03710938 19.12939453 C45.51642756 19.21786287 43.02256521 19.24473978 40.50195312 19.22705078 C39.50089539 19.22554016 39.50089539 19.22554016 38.47961426 19.22399902 C35.97792858 19.21875262 33.47626731 19.20479144 30.97460938 19.19189453 C22.59054687 19.16095703 22.59054687 19.16095703 14.03710938 19.12939453 C14.03710938 30.34939453 14.03710938 41.56939453 14.03710938 53.12939453 C23.93710938 53.12939453 33.83710937 53.12939453 44.03710938 53.12939453 C44.05773438 56.07876953 44.07835937 59.02814453 44.09960938 62.06689453 C44.10871338 62.99751709 44.11781738 63.92813965 44.12719727 64.88696289 C44.12969482 65.61536377 44.13219238 66.34376465 44.13476562 67.09423828 C44.14000244 67.84310303 44.14523926 68.59196777 44.15063477 69.36352539 C44.03710938 71.12939453 44.03710938 71.12939453 43.03710938 72.12939453 C40.89152111 72.21715058 38.74306516 72.23634672 36.59570312 72.22705078 C35.42064209 72.22455322 34.24558105 72.22205566 33.03491211 72.21948242 C31.53001221 72.21037842 30.0251123 72.20127441 28.47460938 72.19189453 C23.71023438 72.17126953 18.94585938 72.15064453 14.03710938 72.12939453 C14.03710938 83.01939453 14.03710938 93.90939453 14.03710938 105.12939453 C16.47988281 105.11779297 18.92265625 105.10619141 21.43945312 105.09423828 C23.79581574 105.08644769 26.15217693 105.08037094 28.50854492 105.07446289 C30.15080402 105.06942279 31.79305861 105.06259075 33.43530273 105.05395508 C35.79086416 105.04187528 38.14636646 105.03616315 40.50195312 105.03173828 C41.24050034 105.026577 41.97904755 105.02141571 42.73997498 105.01609802 C44.50609025 105.01590203 46.27208083 105.06744734 48.03710938 105.12939453 C49.03710938 106.12939453 49.03710938 106.12939453 49.15063477 107.98706055 C49.14539795 108.77781982 49.14016113 109.5685791 49.13476562 110.38330078 C49.13154297 111.23730469 49.12832031 112.09130859 49.125 112.97119141 C49.11243164 114.31793945 49.11243164 114.31793945 49.09960938 115.69189453 C49.09509766 116.59359375 49.09058594 117.49529297 49.0859375 118.42431641 C49.07411162 120.65940767 49.05763158 122.8943689 49.03710938 125.12939453 C41.36499735 125.15466058 33.69289598 125.17222576 26.02075195 125.18432617 C23.40844319 125.1893683 20.79613726 125.19620178 18.18383789 125.20483398 C14.43830669 125.21690489 10.69281266 125.22262389 6.94726562 125.22705078 C5.77124283 125.23221207 4.59522003 125.23737335 3.38356018 125.24269104 C2.30251511 125.24276657 1.22147003 125.2428421 0.10766602 125.24291992 C-0.84941757 125.24514053 -1.80650116 125.24736115 -2.79258728 125.24964905 C-4.96289062 125.12939453 -4.96289062 125.12939453 -5.96289062 124.12939453 C-6.06103258 122.53749481 -6.08920969 120.94123546 -6.08987427 119.34631348 C-6.09269409 118.31144302 -6.09551392 117.27657257 -6.09841919 116.21034241 C-6.09639496 115.06536789 -6.09437073 113.92039337 -6.09228516 112.74072266 C-6.09403748 111.54249374 -6.09578979 110.34426483 -6.09759521 109.10972595 C-6.10125337 105.81434661 -6.10038033 102.51902969 -6.09721613 99.22365379 C-6.09469212 95.7821176 -6.09703018 92.34058415 -6.09860229 88.89904785 C-6.10042387 83.11856607 -6.098018 77.33809704 -6.09326172 71.55761719 C-6.08781912 64.86555919 -6.08958178 58.17353166 -6.09508812 51.4814744 C-6.0996196 45.74560233 -6.10026964 40.00973946 -6.09764946 34.27386618 C-6.09608687 30.84379165 -6.09589241 27.41373146 -6.09918594 23.98365784 C-6.10259905 20.16178189 -6.09787436 16.33994033 -6.09228516 12.51806641 C-6.09430939 11.37309189 -6.09633362 10.22811737 -6.09841919 9.04844666 C-6.09559937 8.0135762 -6.09277954 6.97870575 -6.08987427 5.91247559 C-6.08949724 5.0076519 -6.08912022 4.10282822 -6.08873177 3.17058563 C-5.84173303 -0.83582776 -3.45756504 0.00293796 0 0 Z M-3.96289062 2.12939453 C-3.96289062 42.38939453 -3.96289062 82.64939453 -3.96289062 124.12939453 C12.86710937 124.12939453 29.69710938 124.12939453 47.03710938 124.12939453 C47.03710938 118.51939453 47.03710938 112.90939453 47.03710938 107.12939453 C35.81710937 107.12939453 24.59710937 107.12939453 13.03710938 107.12939453 C13.03710938 94.91939453 13.03710938 82.70939453 13.03710938 70.12939453 C22.93710938 70.12939453 32.83710937 70.12939453 43.03710938 70.12939453 C43.03710938 64.84939453 43.03710938 59.56939453 43.03710938 54.12939453 C33.13710937 54.12939453 23.23710938 54.12939453 13.03710938 54.12939453 C13.03710938 42.24939453 13.03710938 30.36939453 13.03710938 18.12939453 C24.25710938 18.12939453 35.47710938 18.12939453 47.03710938 18.12939453 C47.03710938 12.84939453 47.03710938 7.56939453 47.03710938 2.12939453 C30.20710938 2.12939453 13.37710937 2.12939453 -3.96289062 2.12939453 Z " fill="#E8EDF5" transform="translate(1047.962890625,153.87060546875)"/>
<path d="M0 0 C1.58669495 -0.00472824 1.58669495 -0.00472824 3.20544434 -0.009552 C4.93196228 -0.00651566 4.93196228 -0.00651566 6.69335938 -0.00341797 C8.45226501 -0.00485306 8.45226501 -0.00485306 10.2467041 -0.00631714 C12.73169 -0.00699917 15.21667766 -0.00514331 17.70166016 -0.00097656 C21.52054825 0.00437134 25.33931872 -0.00092083 29.15820312 -0.00732422 C31.56575547 -0.00666344 33.97330774 -0.00538229 36.38085938 -0.00341797 C38.10737732 -0.00645432 38.10737732 -0.00645432 39.86877441 -0.009552 C40.92657104 -0.00639984 41.98436768 -0.00324768 43.07421875 0 C44.47867249 0.00119339 44.47867249 0.00119339 45.91149902 0.00241089 C48.03710938 0.12939453 48.03710938 0.12939453 49.03710938 1.12939453 C49.13697912 3.97274501 49.17588819 6.78636616 49.16210938 9.62939453 C49.16791016 10.82628906 49.16791016 10.82628906 49.17382812 12.04736328 C49.16371705 18.00278686 49.16371705 18.00278686 48.03710938 19.12939453 C45.51642756 19.21786287 43.02256521 19.24473978 40.50195312 19.22705078 C39.50089539 19.22554016 39.50089539 19.22554016 38.47961426 19.22399902 C35.97792858 19.21875262 33.47626731 19.20479144 30.97460938 19.19189453 C22.59054687 19.16095703 22.59054687 19.16095703 14.03710938 19.12939453 C14.03710938 30.34939453 14.03710938 41.56939453 14.03710938 53.12939453 C23.93710937 53.12939453 33.83710938 53.12939453 44.03710938 53.12939453 C44.05773437 56.07876953 44.07835937 59.02814453 44.09960938 62.06689453 C44.10871338 62.99751709 44.11781738 63.92813965 44.12719727 64.88696289 C44.12969482 65.61536377 44.13219238 66.34376465 44.13476562 67.09423828 C44.14000244 67.84310303 44.14523926 68.59196777 44.15063477 69.36352539 C44.03710938 71.12939453 44.03710938 71.12939453 43.03710938 72.12939453 C40.89152111 72.21715058 38.74306516 72.23634672 36.59570312 72.22705078 C35.42064209 72.22455322 34.24558105 72.22205566 33.03491211 72.21948242 C31.53001221 72.21037842 30.0251123 72.20127441 28.47460938 72.19189453 C23.71023438 72.17126953 18.94585937 72.15064453 14.03710938 72.12939453 C14.03710938 83.01939453 14.03710938 93.90939453 14.03710938 105.12939453 C16.47988281 105.11779297 18.92265625 105.10619141 21.43945312 105.09423828 C23.79581574 105.08644769 26.15217693 105.08037094 28.50854492 105.07446289 C30.15080402 105.06942279 31.79305861 105.06259075 33.43530273 105.05395508 C35.79086416 105.04187528 38.14636646 105.03616315 40.50195312 105.03173828 C41.24050034 105.026577 41.97904755 105.02141571 42.73997498 105.01609802 C44.50609025 105.01590203 46.27208083 105.06744734 48.03710938 105.12939453 C49.55920528 106.65149043 49.16670458 108.01149535 49.16992188 110.12939453 C49.17185547 111.33595703 49.17185547 111.33595703 49.17382812 112.56689453 C49.16996094 113.41251953 49.16609375 114.25814453 49.16210938 115.12939453 C49.16791016 116.39783203 49.16791016 116.39783203 49.17382812 117.69189453 C49.17253906 118.49626953 49.17125 119.30064453 49.16992188 120.12939453 C49.16879395 120.87189453 49.16766602 121.61439453 49.16650391 122.37939453 C49.03710938 124.12939453 49.03710938 124.12939453 48.03710938 125.12939453 C46.38519542 125.22807962 44.7290772 125.2573829 43.07421875 125.25878906 C42.01642212 125.26194122 40.95862549 125.26509338 39.86877441 125.26834106 C38.71776245 125.26631683 37.56675049 125.2642926 36.38085938 125.26220703 C34.62195374 125.26364212 34.62195374 125.26364212 32.82751465 125.2651062 C30.34252875 125.26578823 27.85754109 125.26393237 25.37255859 125.25976562 C21.5536705 125.25441772 17.73490003 125.25970989 13.91601562 125.26611328 C11.50846328 125.2654525 9.10091101 125.26417135 6.69335938 125.26220703 C4.96684143 125.26524338 4.96684143 125.26524338 3.20544434 125.26834106 C2.14764771 125.2651889 1.08985107 125.26203674 0 125.25878906 C-1.40445374 125.25759567 -1.40445374 125.25759567 -2.83728027 125.25637817 C-4.96289062 125.12939453 -4.96289062 125.12939453 -5.96289062 124.12939453 C-6.06103258 122.53749481 -6.08920969 120.94123546 -6.08987427 119.34631348 C-6.09269409 118.31144302 -6.09551392 117.27657257 -6.09841919 116.21034241 C-6.09639496 115.06536789 -6.09437073 113.92039337 -6.09228516 112.74072266 C-6.09403748 111.54249374 -6.09578979 110.34426483 -6.09759521 109.10972595 C-6.10125337 105.81434661 -6.10038033 102.51902969 -6.09721613 99.22365379 C-6.09469212 95.7821176 -6.09703018 92.34058415 -6.09860229 88.89904785 C-6.10042387 83.11856607 -6.098018 77.33809704 -6.09326172 71.55761719 C-6.08781912 64.86555919 -6.08958178 58.17353166 -6.09508812 51.4814744 C-6.0996196 45.74560233 -6.10026964 40.00973946 -6.09764946 34.27386618 C-6.09608687 30.84379165 -6.09589241 27.41373146 -6.09918594 23.98365784 C-6.10259905 20.16178189 -6.09787436 16.33994033 -6.09228516 12.51806641 C-6.09430939 11.37309189 -6.09633362 10.22811737 -6.09841919 9.04844666 C-6.09559937 8.0135762 -6.09277954 6.97870575 -6.08987427 5.91247559 C-6.08949724 5.0076519 -6.08912022 4.10282822 -6.08873177 3.17058563 C-5.84173303 -0.83582776 -3.45756504 0.00293796 0 0 Z M-3.96289062 2.12939453 C-3.96289062 42.38939453 -3.96289062 82.64939453 -3.96289062 124.12939453 C12.86710937 124.12939453 29.69710938 124.12939453 47.03710938 124.12939453 C47.03710938 118.51939453 47.03710938 112.90939453 47.03710938 107.12939453 C35.81710937 107.12939453 24.59710938 107.12939453 13.03710938 107.12939453 C13.03710938 94.91939453 13.03710938 82.70939453 13.03710938 70.12939453 C22.93710937 70.12939453 32.83710938 70.12939453 43.03710938 70.12939453 C43.03710938 64.84939453 43.03710938 59.56939453 43.03710938 54.12939453 C33.13710938 54.12939453 23.23710937 54.12939453 13.03710938 54.12939453 C13.03710938 42.24939453 13.03710938 30.36939453 13.03710938 18.12939453 C24.25710938 18.12939453 35.47710937 18.12939453 47.03710938 18.12939453 C47.03710938 12.84939453 47.03710938 7.56939453 47.03710938 2.12939453 C30.20710938 2.12939453 13.37710937 2.12939453 -3.96289062 2.12939453 Z " fill="#E3EBF2" transform="translate(451.962890625,153.87060546875)"/>
<path d="M0 0 C1.17792114 -0.00315216 2.35584229 -0.00630432 3.56945801 -0.009552 C4.85171265 -0.00752777 6.13396729 -0.00550354 7.45507812 -0.00341797 C8.76085815 -0.00437469 10.06663818 -0.00533142 11.4119873 -0.00631714 C14.17945535 -0.0077938 16.94689116 -0.00564058 19.71435547 -0.00097656 C23.26895462 0.00472073 26.82347827 0.00144155 30.37807465 -0.00454903 C33.75791526 -0.00902294 37.13773536 -0.00589433 40.51757812 -0.00341797 C41.79983276 -0.0054422 43.0820874 -0.00746643 44.40319824 -0.009552 C46.17007996 -0.00482376 46.17007996 -0.00482376 47.97265625 0 C49.0155481 0.00079559 50.05843994 0.00159119 51.13293457 0.00241089 C53.48632812 0.12939453 53.48632812 0.12939453 54.48632812 1.12939453 C54.57264687 2.47206866 54.59339286 3.81913775 54.58398438 5.16455078 C54.58148682 5.89295166 54.57898926 6.62135254 54.57641602 7.37182617 C54.56731201 8.30244873 54.55820801 9.23307129 54.54882812 10.19189453 C54.52820313 13.14126953 54.50757813 16.09064453 54.48632812 19.12939453 C47.88632812 19.12939453 41.28632813 19.12939453 34.48632812 19.12939453 C34.49156494 22.30491943 34.49680176 25.48044434 34.50219727 28.75219727 C34.51873093 39.21762224 34.52979845 49.68304777 34.5381403 60.14848232 C34.54336977 66.49670029 34.55046857 72.84490494 34.56176758 79.19311523 C34.57259419 85.31388035 34.57860448 91.43463262 34.58120537 97.55540657 C34.58306003 99.89630397 34.58668141 102.23720062 34.59205818 104.57809258 C34.59926561 107.84447655 34.60031919 111.11080668 34.59985352 114.37719727 C34.60344879 115.35542953 34.60704407 116.3336618 34.61074829 117.34153748 C34.60937363 118.22639832 34.60799896 119.11125916 34.60658264 120.02293396 C34.60750443 120.79631827 34.60842623 121.56970259 34.60937595 122.36652279 C34.48632812 124.12939453 34.48632812 124.12939453 33.48632812 125.12939453 C27.21632813 125.12939453 20.94632812 125.12939453 14.48632812 125.12939453 C14.48632812 90.14939453 14.48632812 55.16939453 14.48632812 19.12939453 C7.55632812 19.12939453 0.62632812 19.12939453 -6.51367188 19.12939453 C-6.53429687 16.18001953 -6.55492187 13.23064453 -6.57617188 10.19189453 C-6.58527588 9.26127197 -6.59437988 8.33064941 -6.60375977 7.37182617 C-6.60625732 6.64342529 -6.60875488 5.91502441 -6.61132812 5.16455078 C-6.61656494 4.41568604 -6.62180176 3.66682129 -6.62719727 2.89526367 C-6.37467594 -1.03266481 -3.23225945 0.0024658 0 0 Z M-4.51367188 2.12939453 C-4.51367188 7.40939453 -4.51367188 12.68939453 -4.51367188 18.12939453 C2.08632813 18.12939453 8.68632812 18.12939453 15.48632812 18.12939453 C15.48632812 53.10939453 15.48632812 88.08939453 15.48632812 124.12939453 C21.09632813 124.12939453 26.70632813 124.12939453 32.48632812 124.12939453 C32.48632812 89.14939453 32.48632812 54.16939453 32.48632812 18.12939453 C39.08632813 18.12939453 45.68632812 18.12939453 52.48632812 18.12939453 C52.48632812 12.84939453 52.48632812 7.56939453 52.48632812 2.12939453 C33.67632812 2.12939453 14.86632812 2.12939453 -4.51367188 2.12939453 Z " fill="#E7EEF7" transform="translate(377.513671875,153.87060546875)"/>
<path d="M0 0 C0.804375 -0.00128906 1.60875 -0.00257813 2.4375 -0.00390625 C3.283125 -0.00003906 4.12875 0.00382813 5 0.0078125 C6.2684375 0.00201172 6.2684375 0.00201172 7.5625 -0.00390625 C8.366875 -0.00261719 9.17125 -0.00132812 10 0 C10.7425 0.00112793 11.485 0.00225586 12.25 0.00341797 C14 0.1328125 14 0.1328125 15 1.1328125 C15.09814195 2.72471223 15.12631906 4.32097157 15.12698364 5.91589355 C15.12980347 6.95076401 15.13262329 7.98563446 15.13552856 9.05186462 C15.13350433 10.19683914 15.1314801 11.34181366 15.12939453 12.52148438 C15.13114685 13.71971329 15.13289917 14.9179422 15.13470459 16.15248108 C15.13836275 19.44786042 15.1374897 22.74317734 15.1343255 26.03855324 C15.13180149 29.48008943 15.13413956 32.92162288 15.13571167 36.36315918 C15.13753325 42.14364097 15.13512737 47.92410999 15.13037109 53.70458984 C15.12492849 60.39664784 15.12669116 67.08867537 15.1321975 73.78073263 C15.13672897 79.5166047 15.13737901 85.25246758 15.13475883 90.98834085 C15.13319624 94.41841538 15.13300179 97.84847557 15.13629532 101.27854919 C15.13970843 105.10042514 15.13498373 108.9222667 15.12939453 112.74414062 C15.13141876 113.88911514 15.13344299 115.03408966 15.13552856 116.21376038 C15.13129883 117.76606606 15.13129883 117.76606606 15.12698364 119.34973145 C15.12660662 120.25455513 15.12622959 121.15937881 15.12584114 122.0916214 C15 124.1328125 15 124.1328125 14 125.1328125 C12.58429877 125.21932861 11.164405 125.23986154 9.74609375 125.23046875 C8.89208984 125.22724609 8.03808594 125.22402344 7.15820312 125.22070312 C6.26037109 125.21232422 5.36253906 125.20394531 4.4375 125.1953125 C3.53580078 125.19080078 2.63410156 125.18628906 1.70507812 125.18164062 C-0.53001314 125.16981475 -2.76497437 125.1533347 -5 125.1328125 C-5.02332909 108.9824933 -5.04097922 92.83217954 -5.05181217 76.68184757 C-5.05697511 69.18348186 -5.06401776 61.68512659 -5.07543945 54.18676758 C-5.08538637 47.65350746 -5.09185344 41.12025491 -5.09408849 34.58698744 C-5.09539559 31.12559443 -5.09848136 27.66422308 -5.10573006 24.20283699 C-5.11374407 20.34493723 -5.11399113 16.48705893 -5.11352539 12.62915039 C-5.11712067 11.47325409 -5.12071594 10.31735779 -5.12442017 9.12643433 C-5.1230455 8.08170456 -5.12167084 7.03697479 -5.12025452 5.96058655 C-5.12117631 5.0470897 -5.1220981 4.13359285 -5.12304783 3.19241428 C-4.90368167 -0.47938508 -3.24142303 0.00492404 0 0 Z M-4 2.1328125 C-4.0231192 17.89198047 -4.04097933 33.65114248 -4.05181217 49.41032314 C-4.05697506 56.72708652 -4.06401762 64.0438392 -4.07543945 71.3605957 C-4.08538651 77.73564268 -4.09185348 84.11068191 -4.09408849 90.48573643 C-4.09539557 93.86329264 -4.09848119 97.24082666 -4.10573006 100.61837578 C-4.11293613 104.38288593 -4.11399113 108.14734935 -4.11352539 111.91186523 C-4.11712067 113.03970932 -4.12071594 114.16755341 -4.12442017 115.32957458 C-4.1230455 116.34906189 -4.12167084 117.36854919 -4.12025452 118.41893005 C-4.12117631 119.31030387 -4.1220981 120.20167768 -4.12304783 121.12006283 C-4.22326506 123.13042786 -4.22326506 123.13042786 -3 124.1328125 C2.28 124.1328125 7.56 124.1328125 13 124.1328125 C13 83.8728125 13 43.6128125 13 2.1328125 C7.39 2.1328125 1.78 2.1328125 -4 2.1328125 Z " fill="#E5EBF1" transform="translate(927,153.8671875)"/>
<path d="M0 0 C0.74886475 0.00523682 1.49772949 0.01047363 2.26928711 0.01586914 C3.07817383 0.0190918 3.88706055 0.02231445 4.72045898 0.02563477 C5.5705957 0.03401367 6.42073242 0.04239258 7.29663086 0.05102539 C8.15063477 0.05553711 9.00463867 0.06004883 9.88452148 0.06469727 C12.00108749 0.07652166 14.11761771 0.0944577 16.23413086 0.11352539 C16.23413086 1.10352539 16.23413086 2.09352539 16.23413086 3.11352539 C10.62413086 2.78352539 5.01413086 2.45352539 -0.76586914 2.11352539 C-0.76586914 42.37352539 -0.76586914 82.63352539 -0.76586914 124.11352539 C4.84413086 124.11352539 10.45413086 124.11352539 16.23413086 124.11352539 C16.23413086 100.02352539 16.23413086 75.93352539 16.23413086 51.11352539 C19.18596187 54.0653564 19.32077074 57.06864486 20.23413086 61.11352539 C19.57413086 60.78352539 18.91413086 60.45352539 18.23413086 60.11352539 C17.90413086 81.56352539 17.57413086 103.01352539 17.23413086 125.11352539 C10.96413086 125.11352539 4.69413086 125.11352539 -1.76586914 125.11352539 C-3.40777278 123.47162175 -2.89190963 121.59392369 -2.89285278 119.33044434 C-2.89567261 118.29557388 -2.89849243 117.26070343 -2.90139771 116.19447327 C-2.89937347 115.04949875 -2.89734924 113.90452423 -2.89526367 112.72485352 C-2.89701599 111.5266246 -2.89876831 110.32839569 -2.90057373 109.09385681 C-2.90423189 105.79847747 -2.90335884 102.50316055 -2.90019464 99.20778465 C-2.89767063 95.76624846 -2.9000087 92.32471501 -2.90158081 88.88317871 C-2.90340239 83.10269693 -2.90099651 77.3222279 -2.89624023 71.54174805 C-2.89079763 64.84969005 -2.8925603 58.15766252 -2.89806664 51.46560526 C-2.90259811 45.72973319 -2.90324815 39.99387032 -2.90062797 34.25799704 C-2.89906538 30.82792251 -2.89887093 27.39786232 -2.90216446 23.9677887 C-2.90557757 20.14591275 -2.90085287 16.32407119 -2.89526367 12.50219727 C-2.8972879 11.35722275 -2.89931213 10.21224823 -2.90139771 9.03257751 C-2.89857788 7.99770706 -2.89575806 6.96283661 -2.89285278 5.89660645 C-2.89247576 4.99178276 -2.89209873 4.08695908 -2.89171028 3.15471649 C-2.73288518 0.57851301 -2.58710842 0.16632178 0 0 Z " fill="#E0E6EF" transform="translate(678.765869140625,153.886474609375)"/>
<path d="M0 0 C0.804375 -0.00128906 1.60875 -0.00257813 2.4375 -0.00390625 C3.283125 -0.00003906 4.12875 0.00382813 5 0.0078125 C6.2684375 0.00201172 6.2684375 0.00201172 7.5625 -0.00390625 C8.366875 -0.00261719 9.17125 -0.00132812 10 0 C10.7425 0.00112793 11.485 0.00225586 12.25 0.00341797 C14 0.1328125 14 0.1328125 15 1.1328125 C15.09365006 2.8820997 15.11744438 4.63517504 15.11352539 6.38696289 C15.11344986 7.50804947 15.11337433 8.62913605 15.11329651 9.78419495 C15.10813522 11.0039653 15.10297394 12.22373566 15.09765625 13.48046875 C15.0962413 14.72203232 15.09482635 15.96359589 15.09336853 17.24278259 C15.08870591 20.54886741 15.07971497 23.85488396 15.06866455 27.16094971 C15.05844827 30.532424 15.05387045 33.90390533 15.04882812 37.27539062 C15.03777395 43.89455025 15.02101736 50.51367743 15 57.1328125 C14.67 57.1328125 14.34 57.1328125 14 57.1328125 C14 38.9828125 14 20.8328125 14 2.1328125 C8.39 2.1328125 2.78 2.1328125 -3 2.1328125 C-3 26.5528125 -3 50.9728125 -3 76.1328125 C-3.66 75.8028125 -4.32 75.4728125 -5 75.1328125 C-5.73075648 72.8187503 -6.40138258 70.48452381 -7 68.1328125 C-6.34 68.1328125 -5.68 68.1328125 -5 68.1328125 C-5.00222061 67.29565201 -5.00444122 66.45849152 -5.00672913 65.59596252 C-5.02673032 57.72313836 -5.04197325 49.85032267 -5.05181217 41.97747898 C-5.05704041 37.92955508 -5.06413699 33.88165209 -5.07543945 29.83374023 C-5.08627043 25.93045279 -5.09227728 22.02718551 -5.09487724 18.1238842 C-5.09673111 16.63147603 -5.100351 15.13906902 -5.10573006 13.64666939 C-5.11294331 11.56333111 -5.11399083 9.48007719 -5.11352539 7.39672852 C-5.115746 6.20870132 -5.11796661 5.02067413 -5.12025452 3.79664612 C-4.93234144 -0.365935 -3.76879837 0.00572517 0 0 Z " fill="#DCE5F0" transform="translate(725,153.8671875)"/>
<path d="M0 0 C3 1 3 1 4.3515625 3.1796875 C4.98191406 4.51386719 4.98191406 4.51386719 5.625 5.875 C6.05039062 6.75929687 6.47578125 7.64359375 6.9140625 8.5546875 C8.89993964 13.02648278 9.15215599 16.80933796 9.125 21.625 C9.13080078 22.66527344 9.13080078 22.66527344 9.13671875 23.7265625 C9.12666646 28.87333354 9.12666646 28.87333354 8 30 C6.65732587 30.08631874 5.31025678 30.10706473 3.96484375 30.09765625 C3.15595703 30.09443359 2.34707031 30.09121094 1.51367188 30.08789062 C0.66353516 30.07951172 -0.18660156 30.07113281 -1.0625 30.0625 C-1.91650391 30.05798828 -2.77050781 30.05347656 -3.65039062 30.04882812 C-5.76695663 30.03700373 -7.88348685 30.01906769 -10 30 C-10.66482319 27.48905623 -11.107375 25.1563393 -11.4375 22.5625 C-12.20688693 17.68971608 -13.21017212 14.27303317 -17 11 C-14.6875 11.5625 -14.6875 11.5625 -12 13 C-8.68356237 18.71799592 -9 20.68442164 -9 28 C-3.39 28 2.22 28 8 28 C6.93792042 15.3946795 6.93792042 15.3946795 2 4 C1.32205824 2.67236406 0.65264475 1.34025261 0 0 Z " fill="#E2E9F2" transform="translate(566,162)"/>
<path d="M0 0 C0.33 0.66 0.66 1.32 1 2 C0.67 2.99 0.34 3.98 0 5 C-0.09496853 7.29393171 -0.12794525 9.59057835 -0.12939453 11.88647461 C-0.13114685 12.5827446 -0.13289917 13.27901459 -0.13470459 13.99638367 C-0.13910632 16.29839571 -0.13619069 18.60033092 -0.1328125 20.90234375 C-0.1334861 22.50273147 -0.13445659 24.1031191 -0.13571167 25.70350647 C-0.13718643 29.05845107 -0.13504147 32.41336904 -0.13037109 35.76831055 C-0.12467854 40.06689801 -0.12795121 44.36542298 -0.13394356 48.66400814 C-0.13755906 51.96941091 -0.13640594 55.27479889 -0.13381577 58.5802021 C-0.133149 60.16502451 -0.13396618 61.74984827 -0.13629532 63.33466911 C-0.13883754 65.55119246 -0.13495889 67.76761501 -0.12939453 69.98413086 C-0.12859894 71.24527206 -0.12780334 72.50641327 -0.12698364 73.80577087 C-0.01728941 77.50622316 -0.01728941 77.50622316 1 81 C1.99 81.33 2.98 81.66 4 82 C4 82.66 4 83.32 4 84 C0.83884224 82.63016497 0.0072908 82.0109362 -2 79 C-2.19376294 76.53887076 -2.27312137 74.191455 -2.25878906 71.73046875 C-2.2622937 70.99357819 -2.26579834 70.25668762 -2.26940918 69.49746704 C-2.27821446 67.06071564 -2.27238167 64.62425437 -2.265625 62.1875 C-2.266972 60.49503524 -2.26891282 58.80257086 -2.27142334 57.11010742 C-2.27437297 53.56262529 -2.27008215 50.01524386 -2.26074219 46.46777344 C-2.24934772 41.91792282 -2.25590806 37.36830815 -2.26788712 32.81846619 C-2.27511007 29.3235089 -2.27281578 25.82860765 -2.26763153 22.33364868 C-2.26629624 20.65589368 -2.26793855 18.97813361 -2.27259064 17.30038452 C-2.27766304 14.95662941 -2.26993578 12.61325777 -2.25878906 10.26953125 C-2.26283752 9.57437408 -2.26688599 8.87921692 -2.27105713 8.16299438 C-2.23911274 4.54204057 -2.07034969 3.10552454 0 0 Z " fill="#E1E8F1" transform="translate(781,176)"/>
<path d="M0 0 C2 2 2 2 2.6875 5.8125 C3.4832054 9.42276664 4.6037589 10.87844438 7.625 13 C9.295625 13.99 9.295625 13.99 11 15 C10.01 15.33 9.02 15.66 8 16 C5.06839572 14.38462621 2.70703631 12.8998644 0.625 10.25 C-0.33315962 6.80062538 -0.11908512 3.57255374 0 0 Z " fill="#E5ECF2" transform="translate(859,188)"/>
</svg>

