<?xml version="1.0" encoding="UTF-8"?>
<svg version="1.1" xmlns="http://www.w3.org/2000/svg" width="623" height="202">
<path d="M0 0 C205.59 0 411.18 0 623 0 C623 66.66 623 133.32 623 202 C417.41 202 211.82 202 0 202 C0 135.34 0 68.68 0 0 Z " fill="#FDFDFE" transform="translate(0,0)"/>
<path d="M0 0 C3.83721451 1.5348858 7.1394497 3.1036957 10.7109375 5.1171875 C11.79117188 5.72433594 12.87140625 6.33148438 13.984375 6.95703125 C15.10328125 7.58996094 16.2221875 8.22289062 17.375 8.875 C18.48617187 9.50019531 19.59734375 10.12539063 20.7421875 10.76953125 C26.17259474 13.82736771 31.58890312 16.90794464 37 20 C37 55.31 37 90.62 37 127 C28.75 131.62 20.5 136.24 12 141 C6.64566503 144.20249997 6.64566503 144.20249997 1.30859375 147.43359375 C-6.22129769 151.96679836 -13.90247128 156.25208504 -21.54418945 160.59326172 C-22.14433365 160.93465683 -22.74447784 161.27605194 -23.36280823 161.62779236 C-25.01700516 162.5685615 -26.67205194 163.50783585 -28.32714844 164.44702148 C-30.25636533 165.56793386 -32.14351653 166.76234436 -34 168 C-40.1835825 167.83948673 -44.31996525 165.44591853 -49.4375 162.3125 C-51.13006384 161.30444485 -52.82277942 160.29664444 -54.515625 159.2890625 C-55.40701172 158.75313477 -56.29839844 158.21720703 -57.21679688 157.66503906 C-62.014449 154.79486472 -66.85416286 151.99700274 -71.6875 149.1875 C-73.70470485 148.01089274 -75.72162844 146.83380318 -77.73828125 145.65625 C-78.75615723 145.06199219 -79.7740332 144.46773437 -80.82275391 143.85546875 C-84.14641278 141.91449692 -87.46969189 139.97287581 -90.79296875 138.03125 C-91.89487549 137.38776611 -92.99678223 136.74428223 -94.13208008 136.08129883 C-96.25853668 134.83949172 -98.38468692 133.59715981 -100.51049805 132.35424805 C-101.46351807 131.79777588 -102.41653809 131.24130371 -103.3984375 130.66796875 C-104.24067871 130.17578857 -105.08291992 129.6836084 -105.95068359 129.17651367 C-107.27964476 128.41355634 -108.62938213 127.68530893 -110 127 C-112.09884901 107.74523367 -112.09884901 107.74523367 -107.84375 102.1796875 C-105.0514482 100.5172604 -102.27317172 99.19819773 -99.25732422 97.99462891 C-94.5838715 95.93539828 -90.26720369 93.15510192 -85.875 90.5625 C-84.06323378 89.51633329 -82.24832176 88.47558759 -80.4296875 87.44140625 C-79.64835449 86.99482666 -78.86702148 86.54824707 -78.06201172 86.08813477 C-76 85 -76 85 -73 84 C-72.67 104.46 -72.34 124.92 -72 146 C-67.483125 143.421875 -62.96625 140.84375 -58.3125 138.1875 C-56.89622314 137.37949951 -55.47994629 136.57149902 -54.02075195 135.73901367 C-52.89628662 135.09681885 -51.77182129 134.45462402 -50.61328125 133.79296875 C-50.03429077 133.4628479 -49.45530029 133.13272705 -48.85876465 132.79260254 C-46.28279969 131.32070087 -43.73013538 129.83188103 -41.21166992 128.26293945 C-39 127 -39 127 -37 127 C-37.0199855 126.21152679 -37.03997101 125.42305359 -37.06056213 124.61068726 C-37.24117723 117.16637034 -37.37805268 109.72312051 -37.46630955 102.27718163 C-37.51321163 98.4492966 -37.57677372 94.62322681 -37.67895508 90.79638672 C-37.7770211 87.10038177 -37.83061017 83.40611767 -37.85389519 79.7089119 C-37.87047844 78.30130218 -37.90286737 76.89378405 -37.95157051 75.4869194 C-38.31675571 64.49711872 -38.31675571 64.49711872 -35.13809204 60.88305664 C-32.82339699 59.31186823 -30.55431212 58.13228755 -28 57 C-26.48841309 56.08782715 -26.48841309 56.08782715 -24.94628906 55.15722656 C-24.06166992 54.65674805 -23.17705078 54.15626953 -22.265625 53.640625 C-21.27949219 53.08246094 -20.29335937 52.52429688 -19.27734375 51.94921875 C-18.27832031 51.38847656 -17.27929688 50.82773438 -16.25 50.25 C-15.23550781 49.67378906 -14.22101563 49.09757812 -13.17578125 48.50390625 C-8.80579505 46.04040549 -4.6752073 43.87008292 0 42 C0 28.14 0 14.28 0 0 Z " fill="#185EA4" transform="translate(116,27)"/>
<path d="M0 0 C3.00929129 0.92031321 5.40210946 2.19285442 8.1105957 3.79589844 C9.65650391 4.7046875 9.65650391 4.7046875 11.23364258 5.63183594 C12.3003418 6.26863281 13.36704102 6.90542969 14.46606445 7.56152344 C16.04871094 8.49351563 16.04871094 8.49351563 17.66333008 9.44433594 C23.37866905 12.82012493 29.04270005 16.26496982 34.65356445 19.81152344 C34.32356445 20.80152344 33.99356445 21.79152344 33.65356445 22.81152344 C31.59106445 23.49902344 31.59106445 23.49902344 29.65356445 23.81152344 C29.65356445 24.47152344 29.65356445 25.13152344 29.65356445 25.81152344 C28.0793457 26.99511719 28.0793457 26.99511719 25.96606445 28.24902344 C24.8697168 28.90644531 24.8697168 28.90644531 23.7512207 29.57714844 C22.71288086 30.18816406 22.71288086 30.18816406 21.65356445 30.81152344 C20.74606445 31.36839844 19.83856445 31.92527344 18.90356445 32.49902344 C16.65356445 33.81152344 16.65356445 33.81152344 14.40356445 34.87402344 C12.4730316 35.69155929 12.4730316 35.69155929 11.65356445 37.81152344 C10.0015199 38.51364237 8.33432676 39.18123757 6.65356445 39.81152344 C6.32356445 40.14152344 5.99356445 40.47152344 5.65356445 40.81152344 C-1.13982257 41.56634422 -4.62380036 40.52500395 -10.26049805 36.79980469 C-14.28673952 34.20568201 -18.46083234 31.92614119 -22.65893555 29.62402344 C-24.19721438 28.77730834 -25.73499734 27.92969157 -27.2722168 27.08105469 C-27.93648682 26.7160083 -28.60075684 26.35096191 -29.28515625 25.97485352 C-31.66621096 24.63105087 -34.00406696 23.22147868 -36.34643555 21.81152344 C-36.75145669 29.8014186 -37.02766265 37.78173702 -37.14696407 45.78050518 C-37.2062959 49.49721656 -37.3071367 53.20237901 -37.50878906 56.91430664 C-38.89406772 73.10122698 -38.89406772 73.10122698 -33.15435791 87.3862915 C-27.71949939 91.66775594 -21.73545041 94.2440268 -15.28494263 96.62612915 C-9.55067955 98.93933191 -4.47290527 102.39387696 0.65356445 105.81152344 C0.12625732 106.09761475 -0.4010498 106.38370605 -0.94433594 106.6784668 C-3.43437048 108.03197554 -5.9217785 109.39023448 -8.40893555 110.74902344 C-9.31474365 111.24176758 -10.22055176 111.73451172 -11.15380859 112.2421875 C-15.43000748 114.58582633 -19.65620223 116.95830416 -23.76831055 119.58105469 C-24.43080811 120.0007251 -25.09330566 120.42039551 -25.77587891 120.8527832 C-26.99839969 121.6375233 -28.21098573 122.43804366 -29.41113281 123.2565918 C-32.34655437 125.13431952 -34.23113607 125.8105936 -37.73706055 125.83886719 C-42.24555948 124.55560396 -45.80490005 122.56034956 -49.78393555 120.12402344 C-51.47649939 119.11596829 -53.16921497 118.10816788 -54.86206055 117.10058594 C-55.75344727 116.5646582 -56.64483398 116.02873047 -57.56323242 115.4765625 C-62.36088454 112.60638816 -67.20059841 109.80852618 -72.03393555 106.99902344 C-74.05114039 105.82241618 -76.06806399 104.64532662 -78.0847168 103.46777344 C-79.10259277 102.87351562 -80.12046875 102.27925781 -81.16918945 101.66699219 C-84.49284832 99.72602036 -87.81612743 97.78439925 -91.1394043 95.84277344 C-92.24131104 95.19928955 -93.34321777 94.55580566 -94.47851562 93.89282227 C-96.60497223 92.65101515 -98.73112247 91.40868325 -100.85693359 90.16577148 C-101.80995361 89.60929932 -102.76297363 89.05282715 -103.74487305 88.47949219 C-104.58711426 87.98731201 -105.42935547 87.49513184 -106.29711914 86.98803711 C-107.62608031 86.22507977 -108.97581768 85.49683237 -110.34643555 84.81152344 C-112.44528456 65.55675711 -112.44528456 65.55675711 -108.19018555 59.99121094 C-105.39788375 58.32878384 -102.61960726 57.00972117 -99.60375977 55.80615234 C-94.93030705 53.74692172 -90.61363923 50.96662536 -86.22143555 48.37402344 C-84.40966933 47.32785673 -82.5947573 46.28711103 -80.77612305 45.25292969 C-79.99479004 44.8063501 -79.21345703 44.35977051 -78.40844727 43.8996582 C-76.34643555 42.81152344 -76.34643555 42.81152344 -73.34643555 41.81152344 C-73.01643555 62.27152344 -72.68643555 82.73152344 -72.34643555 103.81152344 C-67.82956055 101.23339844 -63.31268555 98.65527344 -58.65893555 95.99902344 C-57.24265869 95.19102295 -55.82638184 94.38302246 -54.3671875 93.55053711 C-52.6804895 92.58724487 -52.6804895 92.58724487 -50.9597168 91.60449219 C-50.38072632 91.27437134 -49.80173584 90.94425049 -49.2052002 90.60412598 C-46.62923523 89.13222431 -44.07657093 87.64340447 -41.55810547 86.07446289 C-39.34643555 84.81152344 -39.34643555 84.81152344 -37.34643555 84.81152344 C-37.36642105 84.02305023 -37.38640656 83.23457703 -37.40699768 82.42221069 C-37.58761277 74.97789378 -37.72448822 67.53464395 -37.81274509 60.08870506 C-37.85964718 56.26082004 -37.92320927 52.43475025 -38.02539062 48.60791016 C-38.12345665 44.91190521 -38.17704571 41.21764111 -38.20033073 37.52043533 C-38.21691398 36.11282562 -38.24930291 34.70530748 -38.29800606 33.29844284 C-38.66312753 22.31055987 -38.66312753 22.31055987 -35.48699951 18.69458008 C-33.17151929 17.12156329 -30.9030939 15.94268824 -28.34643555 14.81152344 C-27.3282373 14.2034082 -26.31003906 13.59529297 -25.26098633 12.96875 C-24.3636377 12.46827148 -23.46628906 11.96779297 -22.54174805 11.45214844 C-21.5465918 10.89398438 -20.55143555 10.33582031 -19.52612305 9.76074219 C-18.51807617 9.2 -17.5100293 8.63925781 -16.47143555 8.06152344 C-14.43181975 6.92188811 -12.3927325 5.78130618 -10.35424805 4.63964844 C-9.01837646 3.89569824 -9.01837646 3.89569824 -7.65551758 3.13671875 C-1.92107627 -0.15430974 -1.92107627 -0.15430974 0 0 Z " fill="#379BED" transform="translate(116.346435546875,69.1884765625)"/>
<path d="M0 0 C1.31895264 0.85573608 1.31895264 0.85573608 2.66455078 1.72875977 C4.68955736 2.88360216 6.71837327 4.03178456 8.75048828 5.17407227 C10.8487349 6.39739458 12.94507191 7.62399776 15.03955078 8.85375977 C16.63863281 9.78381836 16.63863281 9.78381836 18.27001953 10.73266602 C26.82792191 15.73823156 26.82792191 15.73823156 30.66455078 18.72875977 C30.01043213 19.08139893 29.35631348 19.43403809 28.68237305 19.79736328 C21.58858636 23.64158034 14.58216898 27.61993894 7.60205078 31.66625977 C5.885737 32.65882677 4.16942199 33.65139164 2.45303345 34.64382935 C0.68720636 35.66506484 -1.07829459 36.68686236 -2.84375 37.70874023 C-8.33758898 40.88795962 -13.83682562 44.0578256 -19.33544922 47.22875977 C-25.89492622 51.01238806 -32.45391514 54.79685489 -39.01123047 58.58422852 C-45.45043069 62.30290554 -51.8920089 66.01743485 -58.33544922 69.72875977 C-59.90069336 70.63078125 -59.90069336 70.63078125 -61.49755859 71.55102539 C-64.4629352 73.25858964 -67.43010221 74.9629937 -70.39794922 76.66625977 C-71.29102783 77.1808374 -72.18410645 77.69541504 -73.10424805 78.22558594 C-74.31890747 78.92131714 -74.31890747 78.92131714 -75.55810547 79.63110352 C-76.26717041 80.0383667 -76.97623535 80.44562988 -77.70678711 80.86523438 C-79.33544922 81.72875977 -79.33544922 81.72875977 -80.33544922 81.72875977 C-80.33544922 67.53875977 -80.33544922 53.34875977 -80.33544922 38.72875977 C-74.14794922 35.20188477 -74.14794922 35.20188477 -67.83544922 31.60375977 C-59.48498366 26.83778662 -51.14460969 22.05660155 -42.84570312 17.20117188 C-40.88615502 16.05618166 -38.92359345 14.91633268 -36.95800781 13.78173828 C-32.07675633 10.95831751 -27.26862604 8.06659577 -22.52685547 5.01391602 C-21.58962646 4.42964844 -20.65239746 3.84538086 -19.68676758 3.2434082 C-17.9233747 2.14245225 -16.17873751 1.0106082 -14.45874023 -0.15698242 C-8.63495748 -3.72825391 -5.80914134 -3.51546382 0 0 Z " fill="#3C9DED" transform="translate(86.33544921875,8.271240234375)"/>
<path d="M0 0 C3.21051051 1.26375343 6.23787014 2.59243361 9.25 4.27734375 C10.0234375 4.70853516 10.796875 5.13972656 11.59375 5.58398438 C12.3878125 6.03064453 13.181875 6.47730469 14 6.9375 C14.7940625 7.38029297 15.588125 7.82308594 16.40625 8.27929688 C18.60908589 9.51104928 20.80536731 10.75370805 23 12 C23.99128906 12.556875 24.98257813 13.11375 26.00390625 13.6875 C28 15 28 15 28.9375 17.0625 C30.54131682 19.98710714 32.91874513 20.0768544 36 21 C36.1685468 28.86524888 36.32837666 36.73064046 36.48217773 44.59619141 C36.53488706 47.27139247 36.59083452 49.94647015 36.64819336 52.62158203 C36.73034188 56.46899032 36.80531693 60.31648215 36.87890625 64.1640625 C36.90594131 65.35802643 36.93297638 66.55199036 36.96083069 67.78213501 C36.98092697 68.90284393 37.00102325 70.02355286 37.02172852 71.17822266 C37.04171402 72.15973297 37.06169952 73.14124329 37.08229065 74.15249634 C36.99478737 77.18037259 36.56243348 80.02661851 36 83 C32.22281588 81.57941005 28.77331759 79.85409822 25.25390625 77.8828125 C24.16916016 77.27566406 23.08441406 76.66851562 21.96679688 76.04296875 C20.84337891 75.41003906 19.71996094 74.77710938 18.5625 74.125 C16.88317383 73.18720703 16.88317383 73.18720703 15.16992188 72.23046875 C8.93331224 68.72908435 8.93331224 68.72908435 6 67 C4.90083252 66.56252441 3.80166504 66.12504883 2.66918945 65.67431641 C-1.24592666 61.75168018 -0.68171435 58.32648507 -0.67977905 52.94146729 C-0.64914139 51.57033867 -0.61784545 50.19922464 -0.5859375 48.828125 C-0.57474183 47.42138479 -0.56620339 46.01462112 -0.56021118 44.60784912 C-0.53734063 40.91154991 -0.47843696 37.21667345 -0.4119873 33.52093506 C-0.35052392 29.74722542 -0.32318778 25.97328503 -0.29296875 22.19921875 C-0.22868836 14.79883168 -0.1263349 7.39961545 0 0 Z " fill="#083271" transform="translate(80,91)"/>
<path d="M0 0 C4.67013884 4.22536371 6.80772639 8.15744364 7.12670898 14.38891602 C7.14619472 16.30214778 7.14318041 18.21570274 7.12109375 20.12890625 C7.12254898 21.14798569 7.12400421 22.16706512 7.12550354 23.21702576 C7.12384969 25.36273062 7.11234629 27.50844799 7.09155273 29.65405273 C7.06256026 32.93068993 7.07096303 36.20571106 7.08398438 39.48242188 C7.07774736 41.5729245 7.0693567 43.66342203 7.05859375 45.75390625 C7.06152939 46.72904678 7.06446503 47.70418732 7.06748962 48.70887756 C6.97302528 55.54507386 5.8219688 59.83114139 1.25 65.125 C-3.10517209 68.85800465 -6.60667788 69.81264972 -12.39453125 69.6171875 C-18.25546612 68.90046568 -21.53862951 65.45861578 -25.17578125 61.19140625 C-27.31983011 57.94390554 -27.50523731 54.64433567 -27.56787109 50.82519531 C-27.58393402 49.93036438 -27.59999695 49.03553345 -27.61654663 48.11358643 C-27.66130431 44.02885968 -27.70205774 39.94428996 -27.72509766 35.859375 C-27.74164493 33.71017621 -27.76891858 31.56103218 -27.80712891 29.41210938 C-27.8621129 26.30049321 -27.88380449 23.19016264 -27.8984375 20.078125 C-27.92110687 19.12576965 -27.94377625 18.17341431 -27.96713257 17.19219971 C-27.94679828 10.71784815 -26.6026713 6.35959741 -22.375 1.375 C-15.59850664 -3.7486901 -7.51499504 -3.61833095 0 0 Z " fill="#0D2C5C" transform="translate(452.375,68.625)"/>
<path d="M0 0 C3.3 0 6.6 0 10 0 C14.62 12.87 19.24 25.74 24 39 C24.33 26.13 24.66 13.26 25 0 C28.3 0 31.6 0 35 0 C35 23.1 35 46.2 35 70 C31.7 70 28.4 70 25 70 C20.38 57.46 15.76 44.92 11 32 C10.67 44.54 10.34 57.08 10 70 C6.7 70 3.4 70 0 70 C0 46.9 0 23.8 0 0 Z " fill="#0C2C5E" transform="translate(377,67)"/>
<path d="M0 0 C0.66 0 1.32 0 2 0 C2 20.79 2 41.58 2 63 C-4.74673367 60.75108878 -4.74673367 60.75108878 -7.8125 58.8984375 C-8.82775757 58.29201416 -8.82775757 58.29201416 -9.86352539 57.67333984 C-10.56856201 57.2448877 -11.27359863 56.81643555 -12 56.375 C-13.49823382 55.4783907 -14.99693994 54.5825702 -16.49609375 53.6875 C-17.24487793 53.23890625 -17.99366211 52.7903125 -18.76513672 52.328125 C-22.17404701 50.30229236 -25.61537884 48.33489866 -29.0625 46.375 C-30.78146484 45.39660156 -30.78146484 45.39660156 -32.53515625 44.3984375 C-33.34855469 43.93695313 -34.16195312 43.47546875 -35 43 C-37.09884901 23.74523367 -37.09884901 23.74523367 -32.84375 18.1796875 C-30.05408663 16.51883122 -27.27899019 15.19759379 -24.26611328 13.99462891 C-19.55334705 11.9261297 -15.18739776 9.15685658 -10.75 6.5625 C-8.1137259 5.06734018 -5.47479227 3.57700179 -2.83496094 2.08813477 C-1.04867968 1.13119302 -1.04867968 1.13119302 0 0 Z " fill="#135BA2" transform="translate(41,111)"/>
<path d="M0 0 C3.77718412 1.42058995 7.22668241 3.14590178 10.74609375 5.1171875 C11.83083984 5.72433594 12.91558594 6.33148438 14.03320312 6.95703125 C15.15662109 7.58996094 16.28003906 8.22289062 17.4375 8.875 C18.55705078 9.50019531 19.67660156 10.12539063 20.83007812 10.76953125 C27.06668776 14.27091565 27.06668776 14.27091565 30 16 C31.09916748 16.53222168 32.19833496 17.06444336 33.33081055 17.61279297 C36.27560903 20.24649274 36.41461978 20.60089699 36.68115234 24.30957031 C36.68020536 26.06604172 36.64647019 27.8226967 36.5859375 29.578125 C36.57744781 30.5046991 36.56895813 31.43127319 36.56021118 32.38592529 C36.52665632 35.34180595 36.45137412 38.29494585 36.375 41.25 C36.34490305 43.2551689 36.31752677 45.26038061 36.29296875 47.265625 C36.22685812 52.17813737 36.12332245 57.08860425 36 62 C31.96790757 60.764809 28.49872368 59.30078155 24.8828125 57.13671875 C23.47708984 56.30043945 23.47708984 56.30043945 22.04296875 55.44726562 C21.08003906 54.86654297 20.11710937 54.28582031 19.125 53.6875 C17.69220703 52.83381836 17.69220703 52.83381836 16.23046875 51.96289062 C13.47985789 50.31969305 10.73471295 48.66953731 8 47 C7.31069397 46.67780991 6.62138794 46.35561981 5.91119385 46.02366638 C0.40795298 43.21350002 0.40795298 43.21350002 -0.69406128 39.93544006 C-0.9277433 37.36169081 -0.9006309 34.90580168 -0.78125 32.32421875 C-0.76993042 31.3990596 -0.75861084 30.47390045 -0.74694824 29.52070618 C-0.70226534 26.57417087 -0.60192668 23.63255613 -0.5 20.6875 C-0.45986215 18.6869194 -0.4233619 16.68626227 -0.390625 14.68554688 C-0.30255706 9.78847715 -0.16457214 4.89507178 0 0 Z " fill="#09326F" transform="translate(116,27)"/>
<path d="M0 0 C3.3 0 6.6 0 10 0 C10 10.23 10 20.46 10 31 C14.29 31 18.58 31 23 31 C23 21.1 23 11.2 23 1 C26.3 1 29.6 1 33 1 C33 24.1 33 47.2 33 71 C29.7 71 26.4 71 23 71 C23 60.77 23 50.54 23 40 C18.71 40 14.42 40 10 40 C10 50.23 10 60.46 10 71 C6.7 71 3.4 71 0 71 C0 47.57 0 24.14 0 0 Z " fill="#123261" transform="translate(330,66)"/>
<path d="M0 0 C5.3094476 5.86833682 5.09907385 9.27223942 5 17 C1.7 17 -1.6 17 -5 17 C-5.45572917 14.98177083 -5.91145833 12.96354167 -6.3671875 10.9453125 C-6.90474428 8.79280036 -6.90474428 8.79280036 -9 7 C-13.08554908 6.51916165 -13.08554908 6.51916165 -16.671875 8.20703125 C-18.42823253 10.57811392 -18.36908883 12.07479279 -18.3125 15 C-18.30863281 15.86625 -18.30476563 16.7325 -18.30078125 17.625 C-18.1458217 20.26417937 -18.1458217 20.26417937 -16 23 C-12.68316531 24.53813653 -9.3494736 25.90185814 -5.94140625 27.21875 C-1.40879253 29.07186279 1.29646453 30.72053431 4 35 C6.26591827 41.79775482 6.08640405 51.97967552 3.8125 58.75 C1.31905082 63.22101232 -1.14910989 65.09607692 -5.6875 67.3125 C-11.64746484 68.54947383 -16.92136986 68.03931507 -22.375 65.3125 C-26.09880258 62.03200726 -28.43083653 58.70749042 -30 54 C-30.03954234 51.66700175 -30.04401732 49.33291811 -30 47 C-26.37 47 -22.74 47 -19 47 C-18.34 49.97 -17.68 52.94 -17 56 C-12.49098637 56.17957899 -12.49098637 56.17957899 -8 56 C-5.64358476 54.08593338 -5.64358476 54.08593338 -5.8046875 50.7421875 C-5.82789063 49.46601562 -5.85109375 48.18984375 -5.875 46.875 C-5.89304687 45.59367187 -5.91109375 44.31234375 -5.9296875 42.9921875 C-5.95289063 42.00476563 -5.97609375 41.01734375 -6 40 C-7.16917969 39.41992188 -8.33835937 38.83984375 -9.54296875 38.2421875 C-11.09150972 37.45383937 -12.63966672 36.66473669 -14.1875 35.875 C-14.95642578 35.49601562 -15.72535156 35.11703125 -16.51757812 34.7265625 C-21.55769262 32.13079538 -24.82814103 29.74239108 -28 25 C-28.79296875 22.45703125 -28.79296875 22.45703125 -29 20 C-29.11794922 18.70642578 -29.11794922 18.70642578 -29.23828125 17.38671875 C-29.41183822 11.07472568 -28.93540193 6.11843686 -25 1 C-16.95512014 -5.53646489 -8.3662701 -5.95292296 0 0 Z " fill="#0F2E5E" transform="translate(500,70)"/>
<path d="M0 0 C0 0.99 0 1.98 0 3 C0.7425 3.28875 1.485 3.5775 2.25 3.875 C5 5 5 5 6.8125 5.9375 C9.55543282 7.26978166 12.39475313 8.18011465 15.29296875 9.12109375 C17 10 17 10 18 13 C21.51190809 14.22969878 21.51190809 14.22969878 25 15 C25 15.66 25 16.32 25 17 C26.98 17.33 28.96 17.66 31 18 C31 18.66 31 19.32 31 20 C29.68 20.33 28.36 20.66 27 21 C27 21.66 27 22.32 27 23 C25.42578125 24.18359375 25.42578125 24.18359375 23.3125 25.4375 C22.58160156 25.87578125 21.85070312 26.3140625 21.09765625 26.765625 C20.40542969 27.17296875 19.71320313 27.5803125 19 28 C18.0925 28.556875 17.185 29.11375 16.25 29.6875 C14 31 14 31 11.75 32.0625 C9.81946715 32.88003585 9.81946715 32.88003585 9 35 C7.34795544 35.70211894 5.68076231 36.36971413 4 37 C3.67 37.33 3.34 37.66 3 38 C-3.78553518 38.75394835 -7.28074079 37.72617095 -12.90234375 33.984375 C-15.42504433 32.36831965 -17.92908179 30.92692385 -20.56640625 29.515625 C-21.37730713 29.08040527 -22.18820801 28.64518555 -23.02368164 28.19677734 C-24.6558899 27.32555822 -26.2917401 26.46112321 -27.93139648 25.60400391 C-28.68622314 25.19585449 -29.4410498 24.78770508 -30.21875 24.3671875 C-30.89873047 24.00737793 -31.57871094 23.64756836 -32.27929688 23.27685547 C-34.32595177 21.75812603 -35.03860179 20.33157507 -36 18 C-31.45181516 13.45181516 -27.02923334 11.74758022 -20.90234375 9.89453125 C-16.86935828 8.65592686 -16.86935828 8.65592686 -13 7 C-12.67 6.01 -12.34 5.02 -12 4 C-11.01 4.33 -10.02 4.66 -9 5 C-9.33 5.66 -9.66 6.32 -10 7 C-6.84727614 5.38780799 -6.84727614 5.38780799 -6.5 2.9375 C-6.335 2.298125 -6.17 1.65875 -6 1 C-3 0 -3 0 0 0 Z " fill="#359AEC" transform="translate(119,72)"/>
<path d="M0 0 C9.9 0 19.8 0 30 0 C30 2.97 30 5.94 30 9 C23.4 9 16.8 9 10 9 C10 15.93 10 22.86 10 30 C15.61 30 21.22 30 27 30 C27 32.97 27 35.94 27 39 C21.39 39 15.78 39 10 39 C10 45.93 10 52.86 10 60 C16.6 60 23.2 60 30 60 C30 63.3 30 66.6 30 70 C20.1 70 10.2 70 0 70 C0 46.9 0 23.8 0 0 Z " fill="#0C2B5A" transform="translate(244,67)"/>
<path d="M0 0 C9.9 0 19.8 0 30 0 C30 2.97 30 5.94 30 9 C23.4 9 16.8 9 10 9 C10 15.93 10 22.86 10 30 C15.61 30 21.22 30 27 30 C27 32.97 27 35.94 27 39 C21.39 39 15.78 39 10 39 C10 45.93 10 52.86 10 60 C16.6 60 23.2 60 30 60 C30 63.3 30 66.6 30 70 C20.1 70 10.2 70 0 70 C0 46.9 0 23.8 0 0 Z " fill="#082A5C" transform="translate(587,67)"/>
<path d="M0 0 C3.63 0 7.26 0 11 0 C13.31 14.19 15.62 28.38 18 43 C19.70564115 37.96092117 19.70564115 37.96092117 20.77783203 32.92236328 C20.89780548 32.18204865 21.01777893 31.44173401 21.14138794 30.6789856 C21.26230804 29.90062347 21.38322815 29.12226135 21.5078125 28.3203125 C21.63815887 27.50754852 21.76850525 26.69478455 21.90280151 25.85739136 C22.31493663 23.28065578 22.72007018 20.70287666 23.125 18.125 C23.40448496 16.36971789 23.6844281 14.61450867 23.96484375 12.859375 C24.64853392 8.57374192 25.32595023 4.28715945 26 0 C29.63 0 33.26 0 37 0 C36.28078581 6.51250863 35.11227788 12.87547633 33.8203125 19.296875 C33.60688202 20.36689758 33.39345154 21.43692017 33.17355347 22.53936768 C32.72275195 24.79540916 32.2705049 27.05116222 31.81689453 29.30664062 C31.13014068 32.72441633 30.44951625 36.14337197 29.76953125 39.5625 C29.32849467 41.76569903 28.88709988 43.9688264 28.4453125 46.171875 C28.24519562 47.1785321 28.04507874 48.18518921 27.83889771 49.22235107 C26.42913648 56.20340032 24.78006413 63.10435905 23 70 C20.03 70 17.06 70 14 70 C11.88335419 63.20716041 10.56744363 56.2690762 9.1796875 49.296875 C8.91367135 47.968818 8.64748401 46.64079527 8.38113403 45.31280518 C7.82627087 42.54289187 7.27347724 39.77257589 6.72216797 37.00195312 C6.01549509 33.45142754 5.30361007 29.90197042 4.59019279 26.35279465 C4.04078924 23.61661025 3.49413151 20.87988288 2.94830704 18.14298248 C2.55985914 16.19777277 2.16909003 14.25302706 1.77828979 12.30828857 C1.42759933 10.54065155 1.42759933 10.54065155 1.06982422 8.73730469 C0.86267792 7.6991864 0.65553162 6.66106812 0.44210815 5.5914917 C0 3 0 3 0 0 Z " fill="#0F2E5D" transform="translate(539,67)"/>
<path d="M0 0 C4.03375459 2.31075363 6.37320012 4.94697541 7.6875 9.4375 C7.98638773 12.84980158 7.87588684 15.99944012 7.6875 19.4375 C4.3875 19.4375 1.0875 19.4375 -2.3125 19.4375 C-2.9725 16.4675 -3.6325 13.4975 -4.3125 10.4375 C-7.71570934 9.76076553 -7.71570934 9.76076553 -11.3125 9.4375 C-13.73073801 11.85573801 -13.5677709 12.44070969 -13.5871582 15.74780273 C-13.59669022 16.63890244 -13.60622223 17.53000214 -13.61604309 18.44810486 C-13.61513168 19.41269119 -13.61422028 20.37727753 -13.61328125 21.37109375 C-13.61756638 22.35997086 -13.6218515 23.34884796 -13.62626648 24.36769104 C-13.63201637 26.4616723 -13.63250521 28.55567353 -13.62817383 30.6496582 C-13.62501616 33.8585816 -13.64845718 37.06658147 -13.67382812 40.27539062 C-13.67610122 42.3072905 -13.67680457 44.33919286 -13.67578125 46.37109375 C-13.684991 47.33365585 -13.69420074 48.29621796 -13.70368958 49.28794861 C-13.69746078 50.18220047 -13.69123199 51.07645233 -13.68481445 51.99780273 C-13.68544388 52.78452866 -13.6860733 53.57125458 -13.6867218 54.38182068 C-13.21270466 56.98569686 -12.44836944 57.90438386 -10.3125 59.4375 C-7.16328091 59.20466851 -7.16328091 59.20466851 -4.3125 58.4375 C-3.6525 55.4675 -2.9925 52.4975 -2.3125 49.4375 C0.9875 49.4375 4.2875 49.4375 7.6875 49.4375 C8.10669486 56.24941641 7.80100991 59.9167367 3.6875 65.4375 C-1.6171229 69.55128919 -5.59944424 70.98775047 -12.3125 70.4375 C-17.18472013 68.84675649 -20.61104045 66.83036576 -23.45307922 62.43103027 C-25.28595052 58.17946396 -24.87844559 53.49483529 -24.84375 48.94140625 C-24.84949036 47.28104591 -24.84949036 47.28104591 -24.85534668 45.58714294 C-24.85806291 43.25136402 -24.85072212 40.91555452 -24.83398438 38.57983398 C-24.81259254 35.01541887 -24.83378705 31.45302411 -24.859375 27.88867188 C-24.85673128 25.61457891 -24.85160538 23.34048719 -24.84375 21.06640625 C-24.85184692 20.00579483 -24.85994385 18.94518341 -24.86828613 17.85243225 C-24.78833857 11.5043593 -24.12291244 7.58404782 -20.3125 2.4375 C-14.20525527 -2.64988934 -7.23633795 -3.10705217 0 0 Z " fill="#0F2E5C" transform="translate(309.3125,67.5625)"/>
<path d="M0 0 C10.89 0 21.78 0 33 0 C33 2.97 33 5.94 33 9 C29.04 9 25.08 9 21 9 C21 29.13 21 49.26 21 70 C17.7 70 14.4 70 11 70 C11 49.87 11 29.74 11 9 C7.37 9 3.74 9 0 9 C0 6.03 0 3.06 0 0 Z " fill="#0E2D5E" transform="translate(202,67)"/>
<path d="M0 0 C3.63 0 7.26 0 11 0 C11 23.43 11 46.86 11 71 C7.37 71 3.74 71 0 71 C0 47.57 0 24.14 0 0 Z " fill="#08295D" transform="translate(517,66)"/>
<path d="M0 0 C3.4375 1 3.4375 1 5.12304688 2.47485352 C7.14258393 6.35451022 6.9052653 10.08852977 6.90625 14.40234375 C6.91386353 15.31705948 6.92147705 16.23177521 6.92932129 17.17420959 C6.94011493 19.10659051 6.94297838 21.03902973 6.93847656 22.97143555 C6.93750444 25.9240064 6.97912872 28.87397632 7.0234375 31.82617188 C7.02864487 33.70572376 7.03133269 35.58528466 7.03125 37.46484375 C7.0558429 38.78535988 7.0558429 38.78535988 7.08093262 40.1325531 C7.03096026 44.57687467 6.85908122 46.44335632 4.09570312 50.09204102 C1.4375 52 1.4375 52 -1.6875 52.0625 C-5.13537582 50.78828502 -5.8475325 50.22919773 -7.5625 47 C-8.02109755 43.78278 -8.00659393 40.5892602 -7.99609375 37.34375 C-8.0013356 36.40446655 -8.00657745 35.46518311 -8.01197815 34.49743652 C-8.0183947 32.5137633 -8.0170661 30.53005202 -8.00854492 28.54638672 C-8.00003003 25.51070511 -8.02880924 22.47690222 -8.06054688 19.44140625 C-8.06215887 17.5130214 -8.06158139 15.58463321 -8.05859375 13.65625 C-8.06982773 12.74887085 -8.08106171 11.8414917 -8.09263611 10.90661621 C-8.02354899 4.66378108 -8.02354899 4.66378108 -5.75415039 1.39648438 C-3.5625 0 -3.5625 0 0 0 Z " fill="#F7FAFC" transform="translate(442.5625,76)"/>
<path d="M0 0 C3.00929129 0.92031321 5.40210946 2.19285442 8.1105957 3.79589844 C9.65650391 4.7046875 9.65650391 4.7046875 11.23364258 5.63183594 C12.3003418 6.26863281 13.36704102 6.90542969 14.46606445 7.56152344 C16.04871094 8.49351563 16.04871094 8.49351563 17.66333008 9.44433594 C23.37866905 12.82012493 29.04270005 16.26496982 34.65356445 19.81152344 C34.32356445 20.47152344 33.99356445 21.13152344 33.65356445 21.81152344 C31.67356445 21.15152344 29.69356445 20.49152344 27.65356445 19.81152344 C27.65356445 19.15152344 27.65356445 18.49152344 27.65356445 17.81152344 C25.34356445 17.48152344 23.03356445 17.15152344 20.65356445 16.81152344 C20.15856445 15.32652344 20.15856445 15.32652344 19.65356445 13.81152344 C17.43333484 12.5993957 17.43333484 12.5993957 14.77856445 11.68652344 C13.89426758 11.35394531 13.0099707 11.02136719 12.09887695 10.67871094 C10.2903834 10.03736019 8.47394401 9.41831662 6.65356445 8.81152344 C5.47793945 7.54308594 5.47793945 7.54308594 4.27856445 6.24902344 C1.90133247 3.55653011 1.90133247 3.55653011 -1.15893555 3.49902344 C-1.88081055 3.60214844 -2.60268555 3.70527344 -3.34643555 3.81152344 C-3.34643555 5.79152344 -3.34643555 7.77152344 -3.34643555 9.81152344 C-4.66643555 9.81152344 -5.98643555 9.81152344 -7.34643555 9.81152344 C-7.34643555 9.15152344 -7.34643555 8.49152344 -7.34643555 7.81152344 C-8.00643555 7.81152344 -8.66643555 7.81152344 -9.34643555 7.81152344 C-9.67643555 8.47152344 -10.00643555 9.13152344 -10.34643555 9.81152344 C-11.00643555 9.81152344 -11.66643555 9.81152344 -12.34643555 9.81152344 C-12.67643555 10.47152344 -13.00643555 11.13152344 -13.34643555 11.81152344 C-15.02849281 12.50413525 -16.74383737 13.11693385 -18.47143555 13.68652344 C-23.15616752 15.32739961 -27.22631226 17.03491861 -31.34643555 19.81152344 C-31.84143555 21.29652344 -31.84143555 21.29652344 -32.34643555 22.81152344 C-33.66643555 22.48152344 -34.98643555 22.15152344 -36.34643555 21.81152344 C-36.75145669 29.8014186 -37.02766265 37.78173702 -37.14696407 45.78050518 C-37.2062959 49.49721656 -37.3071367 53.20237901 -37.50878906 56.91430664 C-38.92051259 73.17350301 -38.92051259 73.17350301 -33.04156494 87.43463135 C-27.47624226 91.72514256 -21.38574807 94.50356586 -14.76759338 96.7903595 C-12.32825782 97.8191902 -11.04699665 98.81561512 -9.34643555 100.81152344 C-12.13504024 100.31941673 -14.67065199 99.69669678 -17.34643555 98.74902344 C-20.25037477 97.66570581 -20.25037477 97.66570581 -23.03393555 97.87402344 C-25.34643555 97.81152344 -25.34643555 97.81152344 -27.15893555 96.49902344 C-28.34643555 94.81152344 -28.34643555 94.81152344 -28.34643555 91.81152344 C-29.33643555 91.48152344 -30.32643555 91.15152344 -31.34643555 90.81152344 C-31.34643555 90.15152344 -31.34643555 89.49152344 -31.34643555 88.81152344 C-38.73542437 89.66936145 -38.73542437 89.66936145 -44.72143555 93.74902344 C-48.52669067 97.51768957 -52.71860952 98.13374375 -57.86987305 99.07324219 C-58.68713867 99.316875 -59.5044043 99.56050781 -60.34643555 99.81152344 C-60.67643555 100.80152344 -61.00643555 101.79152344 -61.34643555 102.81152344 C-64.81143555 103.30652344 -64.81143555 103.30652344 -68.34643555 103.81152344 C-68.34643555 104.80152344 -68.34643555 105.79152344 -68.34643555 106.81152344 C-67.56268555 106.89402344 -66.77893555 106.97652344 -65.97143555 107.06152344 C-64.67206055 107.43277344 -64.67206055 107.43277344 -63.34643555 107.81152344 C-63.03706055 108.45089844 -62.72768555 109.09027344 -62.40893555 109.74902344 C-61.46038056 112.16158302 -61.46038056 112.16158302 -58.28393555 112.93652344 C-57.31456055 113.22527344 -56.34518555 113.51402344 -55.34643555 113.81152344 C-54.85143555 114.80152344 -54.85143555 114.80152344 -54.34643555 115.81152344 C-59.26084966 114.37500239 -63.34881913 112.26992729 -67.72143555 109.68652344 C-68.36209961 109.31398438 -69.00276367 108.94144531 -69.6628418 108.55761719 C-71.22692032 107.64718342 -72.78709088 106.73004153 -74.34643555 105.81152344 C-71.2009727 103.33696084 -67.91535249 101.33082232 -64.4440918 99.34277344 C-63.30649414 98.68921875 -62.16889648 98.03566406 -60.99682617 97.36230469 C-59.80092337 96.67860468 -58.60495928 95.99501187 -57.40893555 95.31152344 C-55.06600533 93.96861276 -52.7238365 92.62437991 -50.3815918 91.28027344 C-48.82516968 90.38985352 -48.82516968 90.38985352 -47.23730469 89.48144531 C-45.33768472 88.3841224 -43.45557095 87.2558098 -41.59423828 86.09472656 C-39.34643555 84.81152344 -39.34643555 84.81152344 -37.34643555 84.81152344 C-37.36642105 84.02305023 -37.38640656 83.23457703 -37.40699768 82.42221069 C-37.58761277 74.97789378 -37.72448822 67.53464395 -37.81274509 60.08870506 C-37.85964718 56.26082004 -37.92320927 52.43475025 -38.02539062 48.60791016 C-38.12345665 44.91190521 -38.17704571 41.21764111 -38.20033073 37.52043533 C-38.21691398 36.11282562 -38.24930291 34.70530748 -38.29800606 33.29844284 C-38.66312753 22.31055987 -38.66312753 22.31055987 -35.48699951 18.69458008 C-33.17151929 17.12156329 -30.9030939 15.94268824 -28.34643555 14.81152344 C-27.3282373 14.2034082 -26.31003906 13.59529297 -25.26098633 12.96875 C-24.3636377 12.46827148 -23.46628906 11.96779297 -22.54174805 11.45214844 C-21.5465918 10.89398438 -20.55143555 10.33582031 -19.52612305 9.76074219 C-18.51807617 9.2 -17.5100293 8.63925781 -16.47143555 8.06152344 C-14.43181975 6.92188811 -12.3927325 5.78130618 -10.35424805 4.63964844 C-9.01837646 3.89569824 -9.01837646 3.89569824 -7.65551758 3.13671875 C-1.92107627 -0.15430974 -1.92107627 -0.15430974 0 0 Z " fill="#6494BF" transform="translate(116.346435546875,69.1884765625)"/>
<path d="M0 0 C4.875 0.875 4.875 0.875 6 2 C6.13405229 3.91605062 6.19905218 5.83696609 6.23706055 7.75732422 C6.26346115 8.98885223 6.28986176 10.22038025 6.31706238 11.48922729 C6.3406913 12.84437361 6.36389982 14.19952731 6.38671875 15.5546875 C6.41236424 16.93612925 6.43814828 18.31756844 6.46406555 19.69900513 C6.5171096 22.5992544 6.56602222 25.49954157 6.61254883 28.39990234 C6.67287182 32.11819534 6.7470966 35.83606718 6.82492352 39.55402946 C6.88251083 42.40892213 6.9308152 45.26391687 6.976511 48.11902237 C6.99993192 49.48981891 7.02669031 50.86056259 7.05682945 52.23122787 C7.09796884 54.14859711 7.12487347 56.06625584 7.15112305 57.98388672 C7.17031296 59.07563202 7.18950287 60.16737732 7.20927429 61.29220581 C7 64 7 64 5 67 C3.35 66.67 1.7 66.34 0 66 C-1.07018649 62.78944054 -1.09981883 60.53154967 -1.0625 57.16015625 C-1.05476563 56.01482422 -1.04703125 54.86949219 -1.0390625 53.68945312 C-1.0130629 51.27539017 -0.98702137 48.86132767 -0.9609375 46.44726562 C-0.95320313 45.30064453 -0.94546875 44.15402344 -0.9375 42.97265625 C-0.92589844 41.92343994 -0.91429687 40.87422363 -0.90234375 39.79321289 C-0.88899383 37.0931789 -0.88899383 37.0931789 -1.56640625 34.93920898 C-2.13566559 32.39324787 -1.54981831 30.53911782 -1 28 C-0.93236915 26.05054069 -0.91491822 24.09893887 -0.9375 22.1484375 C-0.94523437 21.05015625 -0.95296875 19.951875 -0.9609375 18.8203125 C-0.97382813 17.68335937 -0.98671875 16.54640625 -1 15.375 C-1.02548393 13.11202676 -1.04652546 10.84899785 -1.0625 8.5859375 C-1.07410156 7.5861084 -1.08570313 6.5862793 -1.09765625 5.55615234 C-1 3 -1 3 0 0 Z " fill="#082A5E" transform="translate(355,69)"/>
<path d="M0 0 C1.75417564 1.05793417 3.49020497 2.14631061 5.2109375 3.2578125 C7.23613732 4.41231598 9.26493859 5.56051963 11.296875 6.703125 C13.39512162 7.92644731 15.49145862 9.15305049 17.5859375 10.3828125 C19.18501953 11.31287109 19.18501953 11.31287109 20.81640625 12.26171875 C29.37430863 17.26728429 29.37430863 17.26728429 33.2109375 20.2578125 C26.28740874 24.08812974 19.31579166 27.77473866 12.2109375 31.2578125 C12.5409375 30.2678125 12.8709375 29.2778125 13.2109375 28.2578125 C15.2734375 27.5703125 15.2734375 27.5703125 17.2109375 27.2578125 C17.2109375 26.5978125 17.2109375 25.9378125 17.2109375 25.2578125 C18.5309375 24.9278125 19.8509375 24.5978125 21.2109375 24.2578125 C21.3965625 23.3915625 21.3965625 23.3915625 21.5859375 22.5078125 C22.21742574 20.23445483 23.09951941 18.3324596 24.2109375 16.2578125 C22.9321875 16.0928125 21.6534375 15.9278125 20.3359375 15.7578125 C19.61664063 15.665 18.89734375 15.5721875 18.15625 15.4765625 C16.20595406 15.220564 16.20595406 15.220564 14.2109375 15.2578125 C14.2109375 14.5978125 14.2109375 13.9378125 14.2109375 13.2578125 C13.5509375 13.2578125 12.8909375 13.2578125 12.2109375 13.2578125 C12.2109375 12.2678125 12.2109375 11.2778125 12.2109375 10.2578125 C11.5509375 10.1959375 10.8909375 10.1340625 10.2109375 10.0703125 C6.65557604 9.1074021 4.2019798 7.4091225 1.1484375 5.40234375 C-1.12421244 4.05983078 -3.16543801 3.5037773 -5.7890625 3.2578125 C-6.0365625 4.0621875 -6.2840625 4.8665625 -6.5390625 5.6953125 C-7.7890625 8.2578125 -7.7890625 8.2578125 -9.9140625 9.0703125 C-10.5328125 9.1321875 -11.1515625 9.1940625 -11.7890625 9.2578125 C-11.7890625 8.5978125 -11.7890625 7.9378125 -11.7890625 7.2578125 C-12.3665625 7.5465625 -12.9440625 7.8353125 -13.5390625 8.1328125 C-15.7890625 9.2578125 -15.7890625 9.2578125 -17.9140625 10.0703125 C-20.46138617 11.68361749 -20.9009711 13.44552308 -21.7890625 16.2578125 C-22.4490625 15.9278125 -23.1090625 15.5978125 -23.7890625 15.2578125 C-26.46572206 15.2578125 -27.85033172 16.30299381 -30.1640625 17.6328125 C-38.7324262 22.53311415 -38.7324262 22.53311415 -44.7890625 22.2578125 C-41.33230956 19.37177975 -37.83602882 16.99744518 -33.9296875 14.76171875 C-32.81335937 14.12041016 -31.69703125 13.47910156 -30.546875 12.81835938 C-29.37763168 12.15229545 -28.20836069 11.48628009 -27.0390625 10.8203125 C-25.89695312 10.16482422 -24.75484375 9.50933594 -23.578125 8.83398438 C-21.34288417 7.55321707 -19.10017167 6.28538728 -16.84960938 5.03173828 C-13.83084722 3.34465706 -13.83084722 3.34465706 -11.30664062 1.49560547 C-6.9984241 -1.458952 -4.84493219 -2.33562206 0 0 Z " fill="#6DA9DB" transform="translate(83.7890625,6.7421875)"/>
<path d="M0 0 C2.88427734 1.39868164 2.88427734 1.39868164 5.8359375 3.16015625 C6.89941406 3.78857422 7.96289062 4.41699219 9.05859375 5.06445312 C10.15300781 5.72380859 11.24742188 6.38316406 12.375 7.0625 C13.49261719 7.72572266 14.61023438 8.38894531 15.76171875 9.07226562 C18.51291926 10.70652576 21.25865159 12.34928534 24 14 C23.01 14.33 22.02 14.66 21 15 C19.63875 14.2884375 19.63875 14.2884375 18.25 13.5625 C15.04712077 11.73370446 15.04712077 11.73370446 11.3125 12 C8 12 8 12 6.0625 10.6875 C5 9 5 9 5 6 C4.01 5.67 3.02 5.34 2 5 C2 4.34 2 3.68 2 3 C-5.38898882 3.85783801 -5.38898882 3.85783801 -11.375 7.9375 C-15.18025512 11.70616613 -19.37217397 12.32222031 -24.5234375 13.26171875 C-25.34070312 13.50535156 -26.15796875 13.74898437 -27 14 C-27.33 14.99 -27.66 15.98 -28 17 C-30.31 17.33 -32.62 17.66 -35 18 C-35 18.99 -35 19.98 -35 21 C-34.21625 21.0825 -33.4325 21.165 -32.625 21.25 C-31.75875 21.4975 -30.8925 21.745 -30 22 C-29.690625 22.639375 -29.38125 23.27875 -29.0625 23.9375 C-28.11394501 26.35005958 -28.11394501 26.35005958 -24.9375 27.125 C-23.968125 27.41375 -22.99875 27.7025 -22 28 C-21.67 28.66 -21.34 29.32 -21 30 C-25.91441412 28.56347895 -30.00238358 26.45840385 -34.375 23.875 C-35.01566406 23.50246094 -35.65632813 23.12992188 -36.31640625 22.74609375 C-37.88048477 21.83565998 -39.44065534 20.91851809 -41 20 C-37.85453715 17.5254374 -34.56891695 15.51929888 -31.09765625 13.53125 C-29.96005859 12.87769531 -28.82246094 12.22414062 -27.65039062 11.55078125 C-26.45448782 10.86708125 -25.25852373 10.18348843 -24.0625 9.5 C-21.71956978 8.15708933 -19.37740095 6.81285647 -17.03515625 5.46875 C-15.9975415 4.87513672 -14.95992676 4.28152344 -13.89086914 3.66992188 C-11.01035732 2.06649287 -11.01035732 2.06649287 -8.49780273 0.22070312 C-5.16238871 -1.40934967 -3.53408888 -1.02472182 0 0 Z " fill="#53A5ED" transform="translate(83,155)"/>
<path d="M0 0 C9.9 0 19.8 0 30 0 C30 2.97 30 5.94 30 9 C24.06 9 18.12 9 12 9 C12 8.67 12 8.34 12 8 C16.95 7.67 21.9 7.34 27 7 C27 5.35 27 3.7 27 2 C19.08 2 11.16 2 3 2 C2.67 23.78 2.34 45.56 2 68 C10.91 68 19.82 68 29 68 C28.67 66.02 28.34 64.04 28 62 C22.06 61.67 16.12 61.34 10 61 C10 60.67 10 60.34 10 60 C16.6 60 23.2 60 30 60 C30 63.3 30 66.6 30 70 C20.1 70 10.2 70 0 70 C0 46.9 0 23.8 0 0 Z " fill="#172C46" transform="translate(587,67)"/>
<path d="M0 0 C3.3 0 6.6 0 10 0 C10 23.1 10 46.2 10 70 C9.67 70 9.34 70 9 70 C8.13135302 66.22964168 7.85070072 62.69834953 7.79467773 58.83276367 C7.77473251 57.61187546 7.75478729 56.39098724 7.73423767 55.13310242 C7.70916893 53.17036125 7.70916893 53.17036125 7.68359375 51.16796875 C7.6630042 49.80747372 7.64200722 48.44698481 7.62062073 47.08650208 C7.56560653 43.51751677 7.51610683 39.94847573 7.46777344 36.37939453 C7.41740694 32.73269734 7.3618002 29.08608041 7.30664062 25.43945312 C7.19931196 18.29303849 7.09781157 11.14655175 7 4 C5.35 3.34 3.7 2.68 2 2 C2.01047363 2.83772949 2.02094727 3.67545898 2.03173828 4.53857422 C2.06580019 7.64338164 2.09088911 10.74809392 2.10986328 13.85302734 C2.12488107 15.8591136 2.15028981 17.86511324 2.17578125 19.87109375 C2.18222656 21.12792969 2.18867188 22.38476562 2.1953125 23.6796875 C2.20578613 24.84226074 2.21625977 26.00483398 2.22705078 27.20263672 C2 30 2 30 0 32 C-5.19966951 32.33546255 -7.24698333 32.37650833 -12 30 C-8.04 30 -4.08 30 0 30 C0 20.1 0 10.2 0 0 Z " fill="#172E51" transform="translate(353,67)"/>
<path d="M0 0 C3.3 0 6.6 0 10 0 C10 23.1 10 46.2 10 70 C6.7 70 3.4 70 0 70 C-2.64 62.74 -5.28 55.48 -8 48 C-7.34 47.34 -6.68 46.68 -6 46 C-5.67 47.98 -5.34 49.96 -5 52 C-4.01 52.33 -3.02 52.66 -2 53 C-1.86722656 53.74765625 -1.73445313 54.4953125 -1.59765625 55.265625 C-1.42105469 56.25046875 -1.24445313 57.2353125 -1.0625 58.25 C-0.88847656 59.22453125 -0.71445312 60.1990625 -0.53515625 61.203125 C-0.09620271 63.49721795 0.40348592 65.74291971 1 68 C3.31 68 5.62 68 8 68 C8 46.22 8 24.44 8 2 C7.01 2.33 6.02 2.66 5 3 C2.8125 2.0625 2.8125 2.0625 1 1 C0.67 1.66 0.34 2.32 0 3 C0 2.01 0 1.02 0 0 Z " fill="#1A3259" transform="translate(402,67)"/>
<path d="M0 0 C0.33 0 0.66 0 1 0 C1.3234878 4.69497556 1.5580634 9.3833894 1.71411133 14.08691406 C1.77916664 15.68246408 1.86766316 17.27724814 1.98071289 18.87011719 C2.34684559 24.16495935 2.38774923 28.84540881 1 34 C-2.78309044 37.9191936 -7.06343113 39.82082129 -12 42 C-13.94519334 43.11090713 -15.87740516 44.24499726 -17.79296875 45.40625 C-19.58988175 46.43970104 -21.38804134 47.4709879 -23.1875 48.5 C-24.11369141 49.03625 -25.03988281 49.5725 -25.99414062 50.125 C-26.87650391 50.6303125 -27.75886719 51.135625 -28.66796875 51.65625 C-29.45453857 52.10806641 -30.2411084 52.55988281 -31.05151367 53.02539062 C-33 54 -33 54 -35 54 C-35 52.35 -35 50.7 -35 49 C-33.948125 48.731875 -32.89625 48.46375 -31.8125 48.1875 C-27.33921809 46.79418268 -24.23159632 45.35078306 -21.0625 41.875 C-19 40 -19 40 -15.9375 39.5625 C-12.8005358 39.29871188 -12.8005358 39.29871188 -11.125 36.5625 C-9.86600331 34.16121476 -9.86600331 34.16121476 -10 32 C-9.34 32 -8.68 32 -8 32 C-7.505 32.495 -7.505 32.495 -7 33 C-7 32.67 -7 32.34 -7 32 C-5.02 32 -3.04 32 -1 32 C-1.01160156 31.11441406 -1.02320313 30.22882813 -1.03515625 29.31640625 C-1.10662165 19.50522798 -0.67082786 9.78689931 0 0 Z " fill="#1F558B" transform="translate(151,120)"/>
<path d="M0 0 C3.63 0 7.26 0 11 0 C11 23.43 11 46.86 11 71 C7.37 71 3.74 71 0 71 C0 47.57 0 24.14 0 0 Z M1 3 C0.90069631 4.98357995 0.8720054 6.9707235 0.87060547 8.95678711 C0.86745331 10.23158432 0.86430115 11.50638153 0.86105347 12.81980896 C0.86284344 14.2223209 0.86489444 15.62483254 0.8671875 17.02734375 C0.86651435 18.45601925 0.86554423 19.88469464 0.86428833 21.31336975 C0.8628114 24.31203295 0.86496543 27.31066642 0.86962891 30.30932617 C0.87532106 34.15752758 0.87205043 38.00565916 0.86605644 41.85385799 C0.8624463 44.8057559 0.86359159 47.7576372 0.86618423 50.7095356 C0.86685252 52.12854584 0.86602852 53.54755759 0.86370468 54.96656609 C0.86117137 56.94898323 0.86571569 58.93140563 0.87060547 60.91381836 C0.87140106 62.04331406 0.87219666 63.17280975 0.87301636 64.33653259 C0.81899903 66.9747579 0.81899903 66.9747579 2 69 C4.64 69 7.28 69 10 69 C10.04628524 60.55960805 10.08184969 52.11926889 10.10362434 43.67878151 C10.11407365 39.75976716 10.12825362 35.84083947 10.15087891 31.921875 C10.17256661 28.14176961 10.18455998 24.36174772 10.18975449 20.58158493 C10.19345759 19.13744161 10.2006886 17.693303 10.21146011 16.2491951 C10.22592017 14.23079106 10.22681645 12.21230348 10.22705078 10.19384766 C10.231492 9.04357086 10.23593323 7.89329407 10.24050903 6.7081604 C10.27871506 3.85085945 10.27871506 3.85085945 8 2 C4.19988141 1.48207372 4.19988141 1.48207372 1 3 Z " fill="#122947" transform="translate(517,66)"/>
<path d="M0 0 C0 0.66 0 1.32 0 2 C-4.47058824 6 -4.47058824 6 -7 6 C-7 18.21 -7 30.42 -7 43 C-5.68 43 -4.36 43 -3 43 C-3 42.34 -3 41.68 -3 41 C-1.37750059 40.16180842 0.24808497 39.3295884 1.875 38.5 C2.77992187 38.0359375 3.68484375 37.571875 4.6171875 37.09375 C7 36 7 36 9 36 C9 35.34 9 34.68 9 34 C10.45537568 33.16151196 11.91440373 32.32936066 13.375 31.5 C14.18710937 31.0359375 14.99921875 30.571875 15.8359375 30.09375 C18 29 18 29 20 29 C20 28.34 20 27.68 20 27 C20.56589844 26.80664062 21.13179687 26.61328125 21.71484375 26.4140625 C22.81505859 26.02347656 22.81505859 26.02347656 23.9375 25.625 C25.03384766 25.24214844 25.03384766 25.24214844 26.15234375 24.8515625 C28.18682116 24.14728587 28.18682116 24.14728587 29 22 C31.375 20.8125 31.375 20.8125 34 20 C34.99 20.33 35.98 20.66 37 21 C25.04457169 27.99936552 13.08051712 34.98350546 1.0625 41.875 C0.16378174 42.39223633 -0.73493652 42.90947266 -1.66088867 43.44238281 C-2.89415894 44.14766113 -2.89415894 44.14766113 -4.15234375 44.8671875 C-4.87413818 45.28081543 -5.59593262 45.69444336 -6.33959961 46.12060547 C-8 47 -8 47 -9 47 C-9 32.81 -9 18.62 -9 4 C-2 0 -2 0 0 0 Z " fill="#3E89C5" transform="translate(15,43)"/>
<path d="M0 0 C6.1926855 2.4770742 11.81469157 5.67990644 17.625 8.9375 C18.7696875 9.57107422 19.914375 10.20464844 21.09375 10.85742188 C22.18945312 11.47037109 23.28515625 12.08332031 24.4140625 12.71484375 C25.91380615 13.55196899 25.91380615 13.55196899 27.44384766 14.40600586 C29.65451753 15.78456017 31.28036029 17.06549653 33 19 C28.375 21.125 28.375 21.125 25 20 C24.01 20 23.02 20 22 20 C22 19.01 22 18.02 22 17 C21.34 16.67 20.68 16.34 20 16 C20 15.01 20 14.02 20 13 C19.37351563 12.90203125 18.74703125 12.8040625 18.1015625 12.703125 C17.28429687 12.55359375 16.46703125 12.4040625 15.625 12.25 C14.81289062 12.11078125 14.00078125 11.9715625 13.1640625 11.828125 C11 11 11 11 10.0859375 8.984375 C9.72757813 8.32953125 9.36921875 7.6746875 9 7 C5.94091587 6.18415432 5.94091587 6.18415432 3 6 C2.93941406 7.16917969 2.87882812 8.33835937 2.81640625 9.54296875 C2.73195966 11.09115614 2.64731375 12.63933268 2.5625 14.1875 C2.52318359 14.95642578 2.48386719 15.72535156 2.44335938 16.51757812 C2.22492966 20.43251075 1.91307892 24.17120688 1 28 C0.67 28 0.34 28 0 28 C0 18.76 0 9.52 0 0 Z " fill="#1E4381" transform="translate(116,27)"/>
<path d="M0 0 C0.61875 0.495 1.2375 0.99 1.875 1.5 C1.875 1.83 1.875 2.16 1.875 2.5 C-0.105 2.5 -2.085 2.5 -4.125 2.5 C-4.455 1.84 -4.785 1.18 -5.125 0.5 C-7.25076782 0.03348793 -7.25076782 0.03348793 -9.6875 -0.125 C-10.51378906 -0.19976562 -11.34007812 -0.27453125 -12.19140625 -0.3515625 C-12.82949219 -0.40054688 -13.46757812 -0.44953125 -14.125 -0.5 C-14.455 0.49 -14.785 1.48 -15.125 2.5 C-16.259375 2.933125 -17.39375 3.36625 -18.5625 3.8125 C-22.24501735 5.10403908 -22.24501735 5.10403908 -23.32177734 7.93994141 C-24.39619504 12.70199578 -24.48139567 17.27983835 -24.5390625 22.1484375 C-24.55842865 23.16096588 -24.5777948 24.17349426 -24.5977478 25.21670532 C-24.65730723 28.43605242 -24.70383448 31.65543574 -24.75 34.875 C-24.78820151 37.06381728 -24.8272545 39.25261988 -24.8671875 41.44140625 C-24.96298923 46.79414005 -25.04810533 52.146963 -25.125 57.5 C-27.54054583 55.08445417 -27.3867975 54.48288955 -27.43139648 51.17724609 C-27.44738388 50.2822641 -27.46337128 49.3872821 -27.47984314 48.46517944 C-27.48520584 47.4944046 -27.49056854 46.52362976 -27.49609375 45.5234375 C-27.50512222 44.52422272 -27.5141507 43.52500793 -27.52345276 42.49551392 C-27.53798416 40.37545782 -27.54684914 38.25535659 -27.55053711 36.13525391 C-27.56237746 32.90839501 -27.61148771 29.68348302 -27.66210938 26.45703125 C-27.67158 24.39584265 -27.67881197 22.33464231 -27.68359375 20.2734375 C-27.71289223 18.83549332 -27.71289223 18.83549332 -27.74278259 17.36849976 C-27.69963672 10.88074731 -26.36451768 6.49531661 -22.125 1.5 C-15.50645012 -3.50426942 -7.38553731 -3.54505791 0 0 Z " fill="#183154" transform="translate(452.125,68.5)"/>
<path d="M0 0 C2.4375 2 2.4375 2 4 4 C-0.455 3.01 -0.455 3.01 -5 2 C-5.2475 2.804375 -5.495 3.60875 -5.75 4.4375 C-7 7 -7 7 -9.125 7.8125 C-9.74375 7.874375 -10.3625 7.93625 -11 8 C-11 7.34 -11 6.68 -11 6 C-11.5775 6.28875 -12.155 6.5775 -12.75 6.875 C-15 8 -15 8 -17.125 8.8125 C-19.67232367 10.42580499 -20.1119086 12.18771058 -21 15 C-21.66 14.67 -22.32 14.34 -23 14 C-25.67665956 14 -27.06126922 15.04518131 -29.375 16.375 C-37.9433637 21.27530165 -37.9433637 21.27530165 -44 21 C-38.96845661 16.80175365 -33.51334213 13.65425731 -27.84399414 10.39941406 C-26.06691403 9.37753821 -24.29603486 8.34547809 -22.52539062 7.3125 C-21.39423828 6.66023437 -20.26308594 6.00796875 -19.09765625 5.3359375 C-17.55863647 4.44720947 -17.55863647 4.44720947 -15.98852539 3.54052734 C-10.66236944 0.79499642 -6.02553443 -0.66950383 0 0 Z " fill="#68AEE5" transform="translate(83,8)"/>
<path d="M0 0 C0.33 0 0.66 0 1 0 C1.33 8.91 1.66 17.82 2 27 C-4.74689787 24.75103404 -4.74689787 24.75103404 -7.98828125 22.79296875 C-8.69090088 22.37321777 -9.39352051 21.9534668 -10.11743164 21.52099609 C-10.8418042 21.08094238 -11.56617676 20.64088867 -12.3125 20.1875 C-13.81723092 19.28696221 -15.32243533 18.3872151 -16.828125 17.48828125 C-17.90416992 16.84366943 -17.90416992 16.84366943 -19.00195312 16.18603516 C-22.62134399 14.03757465 -26.30534174 12.01526814 -30 10 C-29.67 8.35 -29.34 6.7 -29 5 C-23.44523958 7.5248911 -23.44523958 7.5248911 -21.13671875 9.98828125 C-18.67513178 12.30586314 -16.77841881 12.96960211 -13.5625 13.9375 C-8.77251192 15.54483557 -6.15418297 17.08446252 -3 21 C-0.38462703 17.04504575 -0.55735726 12.83172627 -0.375 8.25 C-0.33632813 7.45722656 -0.29765625 6.66445312 -0.2578125 5.84765625 C-0.163892 3.89880584 -0.08087178 1.94943549 0 0 Z " fill="#2C4E74" transform="translate(41,147)"/>
<path d="M0 0 C2.97 0 5.94 0 9 0 C8.67 0.66 8.34 1.32 8 2 C5.03 1.505 5.03 1.505 2 1 C2 23.44 2 45.88 2 69 C3.98 68.505 3.98 68.505 6 68 C7.58230808 64.83538385 7.24157813 61.40920633 7.31640625 57.9296875 C7.33718735 57.13345978 7.35796844 56.33723206 7.37937927 55.51687622 C7.44484149 52.96967315 7.50374415 50.42236575 7.5625 47.875 C7.6056884 46.14972873 7.64930279 44.42446807 7.69335938 42.69921875 C7.80051945 38.46625315 7.90179623 34.23318247 8 30 C8.33 30 8.66 30 9 30 C9 43.2 9 56.4 9 70 C6.03 70 3.06 70 0 70 C0 46.9 0 23.8 0 0 Z " fill="#11284F" transform="translate(377,67)"/>
<path d="M0 0 C0.99 0.33 1.98 0.66 3 1 C-0.83566111 3.38537029 -4.69605806 5.72741086 -8.5625 8.0625 C-9.64853516 8.73861328 -10.73457031 9.41472656 -11.85351562 10.11132812 C-12.91376953 10.74619141 -13.97402344 11.38105469 -15.06640625 12.03515625 C-16.03521729 12.6269165 -17.00402832 13.21867676 -18.00219727 13.82836914 C-21.79402493 15.31032866 -24.0769887 14.93786276 -28 14 C-30.4523472 12.71543718 -32.65154114 11.45709837 -34.9375 9.9375 C-35.82018555 9.37192383 -35.82018555 9.37192383 -36.72070312 8.79492188 C-38.15421463 7.87421123 -39.5781572 6.93863006 -41 6 C-40.34 5.67 -39.68 5.34 -39 5 C-38.278125 5.45375 -37.55625 5.9075 -36.8125 6.375 C-33.51243845 8.28170223 -30.7626336 8.63111435 -27 9 C-26.67 9.99 -26.34 10.98 -26 12 C-23.05908413 11.81584568 -23.05908413 11.81584568 -20 11 C-19.29848848 9.6846659 -18.63474075 8.34882408 -18 7 C-13.87440182 4.38376701 -9.78827715 3.38647513 -5.05078125 2.52734375 C-2.71165223 2.04610766 -2.71165223 2.04610766 0 0 Z " fill="#368ACB" transform="translate(103,180)"/>
<path d="M0 0 C1.16781006 0.00523682 2.33562012 0.01047363 3.53881836 0.01586914 C4.79887695 0.0190918 6.05893555 0.02231445 7.35717773 0.02563477 C8.6976732 0.03399136 10.03816799 0.04245632 11.37866211 0.05102539 C12.72306153 0.05603879 14.06746271 0.06060197 15.41186523 0.06469727 C18.71334151 0.07653051 22.01473014 0.09301568 25.31616211 0.11352539 C25.31616211 3.08352539 25.31616211 6.05352539 25.31616211 9.11352539 C19.37616211 9.11352539 13.43616211 9.11352539 7.31616211 9.11352539 C7.31616211 8.78352539 7.31616211 8.45352539 7.31616211 8.11352539 C12.26616211 7.78352539 17.21616211 7.45352539 22.31616211 7.11352539 C22.31616211 5.46352539 22.31616211 3.81352539 22.31616211 2.11352539 C14.39616211 2.11352539 6.47616211 2.11352539 -1.68383789 2.11352539 C-2.01383789 23.89352539 -2.34383789 45.67352539 -2.68383789 68.11352539 C-3.01383789 68.11352539 -3.34383789 68.11352539 -3.68383789 68.11352539 C-3.706964 59.39508537 -3.72475435 50.67665583 -3.73565006 41.95819187 C-3.7408783 37.91026797 -3.74797488 33.86236499 -3.75927734 29.81445312 C-3.77010832 25.91116568 -3.77611517 22.0078984 -3.77871513 18.10459709 C-3.780569 16.61218892 -3.78418889 15.11978191 -3.78956795 13.62738228 C-3.7967812 11.544044 -3.79782872 9.46079008 -3.79736328 7.37744141 C-3.79958389 6.18941422 -3.8018045 5.00138702 -3.80409241 3.77735901 C-3.64175143 0.18124172 -3.59912144 0.15224156 0 0 Z " fill="#10294F" transform="translate(591.683837890625,66.886474609375)"/>
<path d="M0 0 C2.97922593 -0.02683987 5.95821295 -0.04676037 8.9375 -0.0625 C9.78763672 -0.07087891 10.63777344 -0.07925781 11.51367188 -0.08789062 C12.32255859 -0.09111328 13.13144531 -0.09433594 13.96484375 -0.09765625 C14.7137085 -0.10289307 15.46257324 -0.10812988 16.23413086 -0.11352539 C18 0 18 0 19 1 C19.125 3.5 19.125 3.5 19 6 C18 7 18 7 16.23413086 7.11352539 C15.48526611 7.10828857 14.73640137 7.10305176 13.96484375 7.09765625 C13.15595703 7.09443359 12.34707031 7.09121094 11.51367188 7.08789062 C10.66353516 7.07951172 9.81339844 7.07113281 8.9375 7.0625 C8.08349609 7.05798828 7.22949219 7.05347656 6.34960938 7.04882812 C4.23304337 7.03700373 2.11651315 7.01906769 0 7 C0 4.66666667 0 2.33333333 0 0 Z " fill="#082A5D" transform="translate(254,68)"/>
<path d="M0 0 C3.63 0 7.26 0 11 0 C11.1875 2.875 11.1875 2.875 11 6 C10.01 6.66 9.02 7.32 8 8 C7.71943824 10.80561762 7.73289132 12.46578263 9 15 C7.35 15 5.7 15 4 15 C0.95842058 9.77228537 -0.50610724 6.07328688 0 0 Z " fill="#1F3963" transform="translate(470,117)"/>
<path d="M0 0 C0.33 0 0.66 0 1 0 C1 18.15 1 36.3 1 55 C2.98 54.34 4.96 53.68 7 53 C7.33 43.76 7.66 34.52 8 25 C8.33 25 8.66 25 9 25 C9 35.23 9 45.46 9 56 C6.03 56 3.06 56 0 56 C0 37.52 0 19.04 0 0 Z " fill="#102A51" transform="translate(331,81)"/>
<path d="M0 0 C10.89 0 21.78 0 33 0 C33 2.97 33 5.94 33 9 C29.37 9 25.74 9 22 9 C22 8.67 22 8.34 22 8 C24.64 8 27.28 8 30 8 C29.67 6.02 29.34 4.04 29 2 C25.60418484 1.9708456 22.20840214 1.95314932 18.8125 1.9375 C17.85279297 1.92912109 16.89308594 1.92074219 15.90429688 1.91210938 C14.97294922 1.90888672 14.04160156 1.90566406 13.08203125 1.90234375 C12.22843018 1.89710693 11.3748291 1.89187012 10.49536133 1.88647461 C7.90753253 2.00420677 5.52338047 2.42892956 3 3 C2.67 4.65 2.34 6.3 2 8 C4.97 8 7.94 8 11 8 C11 8.33 11 8.66 11 9 C7.37 9 3.74 9 0 9 C0 6.03 0 3.06 0 0 Z " fill="#12294E" transform="translate(202,67)"/>
<path d="M0 0 C1.98 0 3.96 0 6 0 C6.08131463 1.43655854 6.13933559 2.8744483 6.1875 4.3125 C6.22230469 5.11300781 6.25710938 5.91351563 6.29296875 6.73828125 C6 9 6 9 4.75 10.6875 C2.81998328 12.13501254 1.08996233 12.90345559 -1.1875 13.6875 C-1.90292969 13.93886719 -2.61835938 14.19023437 -3.35546875 14.44921875 C-3.89816406 14.63097656 -4.44085938 14.81273437 -5 15 C-5 11.7080875 -4.46905159 10.86078467 -3 8 C-1.9565707 5.34816262 -0.98115424 2.6758752 0 0 Z " fill="#08295F" transform="translate(310,119)"/>
<path d="M0 0 C0.66 0 1.32 0 2 0 C2 19.47 2 38.94 2 59 C1.67 59 1.34 59 1 59 C0.67 40.52 0.34 22.04 0 3 C-4.29 5.64 -8.58 8.28 -13 11 C-14.65 11.33 -16.3 11.66 -18 12 C-15.22410764 8.73061566 -11.57298473 6.91449461 -7.875 4.875 C-3.68603269 2.77377804 -3.68603269 2.77377804 0 0 Z " fill="#5B7E9E" transform="translate(41,111)"/>
<path d="M0 0 C-0.5 1.8125 -0.5 1.8125 -2 4 C-5.14496215 5.59247024 -8.44551303 7 -12 7 C-12.33 7.99 -12.66 8.98 -13 10 C-13.66 10 -14.32 10 -15 10 C-15 16.27 -15 22.54 -15 29 C-14.01 29.33 -13.02 29.66 -12 30 C-12 30.99 -12 31.98 -12 33 C-13.65 32.34 -15.3 31.68 -17 31 C-19.06957779 12.0137668 -19.06957779 12.0137668 -15.75634766 7.18896484 C-12.31220348 4.14700988 -8.31366307 2.52475237 -4 1 C-2 0 -2 0 0 0 Z " fill="#396292" transform="translate(23,123)"/>
<path d="M0 0 C0.598125 0.20625 1.19625 0.4125 1.8125 0.625 C1.21526123 0.96120361 0.61802246 1.29740723 0.00268555 1.64379883 C-13.44482924 9.21807071 -26.84979379 16.85893769 -40.1875 24.625 C-40.1875 23.635 -40.1875 22.645 -40.1875 21.625 C-38.73212432 20.78651196 -37.27309627 19.95436066 -35.8125 19.125 C-34.59433594 18.42890625 -34.59433594 18.42890625 -33.3515625 17.71875 C-31.1875 16.625 -31.1875 16.625 -29.1875 16.625 C-29.1875 15.965 -29.1875 15.305 -29.1875 14.625 C-26.2175 13.635 -23.2475 12.645 -20.1875 11.625 C-20.1875 10.635 -20.1875 9.645 -20.1875 8.625 C-18.5375 8.625 -16.8875 8.625 -15.1875 8.625 C-14.8575 7.635 -14.5275 6.645 -14.1875 5.625 C-12.2265625 4.52734375 -12.2265625 4.52734375 -9.8125 3.5625 C-0.7224625 -0.12385071 -0.7224625 -0.12385071 0 0 Z " fill="#5798CC" transform="translate(94.1875,38.375)"/>
<path d="M0 0 C-4.30193877 3.32933184 -8.92343556 5.96831161 -13.625 8.6875 C-14.49640625 9.19861328 -15.3678125 9.70972656 -16.265625 10.23632812 C-17.09835938 10.71908203 -17.93109375 11.20183594 -18.7890625 11.69921875 C-19.92915771 12.36183716 -19.92915771 12.36183716 -21.09228516 13.0378418 C-23 14 -23 14 -25 14 C-25 12.35 -25 10.7 -25 9 C-23.948125 8.731875 -22.89625 8.46375 -21.8125 8.1875 C-17.37264729 6.80459506 -14.18455275 5.48069094 -11.25 1.8125 C-7.79239192 -0.9727954 -4.27782086 -0.32906314 0 0 Z " fill="#204974" transform="translate(141,160)"/>
<path d="M0 0 C0.33 0 0.66 0 1 0 C1.33 5.61 1.66 11.22 2 17 C2.99 17.33 3.98 17.66 5 18 C6.68208635 17.02616054 8.34738161 16.02304948 10 15 C10.886875 14.855625 11.77375 14.71125 12.6875 14.5625 C13.450625 14.376875 14.21375 14.19125 15 14 C15.28875 13.360625 15.5775 12.72125 15.875 12.0625 C17 10 17 10 20.5625 8.875 C21.696875 8.58625 22.83125 8.2975 24 8 C24.33 7.34 24.66 6.68 25 6 C25.66 6.66 26.32 7.32 27 8 C25.73461631 8.84158536 24.46246221 9.67299748 23.1875 10.5 C22.47980469 10.9640625 21.77210937 11.428125 21.04296875 11.90625 C19 13 19 13 16 13 C16 13.66 16 14.32 16 15 C14.56705502 15.84114171 13.12845595 16.67265687 11.6875 17.5 C10.88699219 17.9640625 10.08648437 18.428125 9.26171875 18.90625 C7 20 7 20 4 20 C4 20.66 4 21.32 4 22 C2.68 22 1.36 22 0 22 C0 14.74 0 7.48 0 0 Z " fill="#2087DB" transform="translate(8,64)"/>
<path d="M0 0 C-0.59167969 0.32613281 -1.18335938 0.65226562 -1.79296875 0.98828125 C-9.42183961 4.44384844 -9.42183961 4.44384844 -15 10 C-16.65204456 10.70211894 -18.31923769 11.36971413 -20 12 C-20.33 12.33 -20.66 12.66 -21 13 C-27.54462564 13.85669992 -31.60126393 12.67573519 -37 9 C-36.01 8.34 -35.02 7.68 -34 7 C-34 7.66 -34 8.32 -34 9 C-33.01 8.67 -32.02 8.34 -31 8 C-30.01 8.99 -29.02 9.98 -28 11 C-27.67 10.34 -27.34 9.68 -27 9 C-26.31292969 9.24363281 -25.62585938 9.48726562 -24.91796875 9.73828125 C-20.88225521 10.10025288 -18.53920458 8.34716297 -15.3125 6.1875 C-14.73177734 5.81818359 -14.15105469 5.44886719 -13.55273438 5.06835938 C-11.15404269 3.52376831 -9.0220305 2.0220305 -7 0 C-3.99340864 -1.066855 -3.14820941 -1.04940314 0 0 Z " fill="#1D7FD7" transform="translate(143,97)"/>
<path d="M0 0 C3.53412822 1.17804274 4.45765122 2.6054566 6.21484375 5.8125 C7.66580904 9.85499036 7.23274938 13.75232386 7 18 C3.7 18 0.4 18 -3 18 C-3 15.03 -3 12.06 -3 9 C-2.01 9.495 -2.01 9.495 -1 10 C-0.375 12.5625 -0.375 12.5625 0 15 C2.97 15.495 2.97 15.495 6 16 C6 14.68 6 13.36 6 12 C5.34 12 4.68 12 4 12 C2 10 2 10 1 8 C1.66 8 2.32 8 3 8 C2.505 7.05125 2.01 6.1025 1.5 5.125 C0 2 0 2 0 0 Z " fill="#1A335C" transform="translate(310,69)"/>
<path d="M0 0 C2 2 2 2 2.20254517 4.44241333 C2.18033905 5.46833588 2.15813293 6.49425842 2.13525391 7.55126953 C2.11508209 8.71232208 2.09491028 9.87337463 2.0741272 11.0696106 C2.04193085 12.32796722 2.0097345 13.58632385 1.9765625 14.8828125 C1.95153656 16.16735321 1.92651062 17.45189392 1.90072632 18.77536011 C1.8340514 22.19178517 1.75516452 25.60782401 1.67376709 29.02392578 C1.59286989 32.50928921 1.52347564 35.99487932 1.453125 39.48046875 C1.31336702 46.32057925 1.16071187 53.16035065 1 60 C5.07964281 58.69844994 5.07964281 58.69844994 9 57 C9 58.32 9 59.64 9 61 C6.03 61 3.06 61 0 61 C0 40.87 0 20.74 0 0 Z " fill="#0F2851" transform="translate(214,76)"/>
<path d="M0 0 C-0.33 0.99 -0.66 1.98 -1 3 C-3.31 3.33 -5.62 3.66 -8 4 C-8 4.99 -8 5.98 -8 7 C-7.21625 7.0825 -6.4325 7.165 -5.625 7.25 C-4.75875 7.4975 -3.8925 7.745 -3 8 C-2.690625 8.639375 -2.38125 9.27875 -2.0625 9.9375 C-1.11394501 12.35005958 -1.11394501 12.35005958 2.0625 13.125 C3.031875 13.41375 4.00125 13.7025 5 14 C5.33 14.66 5.66 15.32 6 16 C1.08558588 14.56347895 -3.00238358 12.45840385 -7.375 9.875 C-8.01566406 9.50246094 -8.65632813 9.12992188 -9.31640625 8.74609375 C-10.88048477 7.83565998 -12.44065534 6.91851809 -14 6 C-5.43337646 -0.46571798 -5.43337646 -0.46571798 0 0 Z " fill="#5697CA" transform="translate(56,169)"/>
<path d="M0 0 C15.74487472 8.261959 15.74487472 8.261959 23 13 C22.01 13.33 21.02 13.66 20 14 C19.0925 13.525625 18.185 13.05125 17.25 12.5625 C14.04712077 10.73370446 14.04712077 10.73370446 10.3125 11 C7 11 7 11 5.0625 9.6875 C4 8 4 8 4 5 C3.01 4.67 2.02 4.34 1 4 C0.3125 1.9375 0.3125 1.9375 0 0 Z " fill="#549CDE" transform="translate(84,156)"/>
<path d="M0 0 C0 0.66 0 1.32 0 2 C-4.47058824 6 -4.47058824 6 -7 6 C-7.33 18.87 -7.66 31.74 -8 45 C-7.34 45.33 -6.68 45.66 -6 46 C-7.485 46.495 -7.485 46.495 -9 47 C-9 32.81 -9 18.62 -9 4 C-2 0 -2 0 0 0 Z " fill="#5F94BF" transform="translate(15,43)"/>
<path d="M0 0 C0.33 0 0.66 0 1 0 C1.00586624 0.70965912 1.01173248 1.41931824 1.01777649 2.15048218 C1.07562766 8.83120653 1.14765992 15.51160876 1.23571491 22.19200706 C1.2804849 25.62667887 1.31972572 29.06123025 1.34643555 32.49609375 C1.3773671 36.4429689 1.43215852 40.38933676 1.48828125 44.3359375 C1.49467117 45.57242035 1.5010611 46.8089032 1.50764465 48.08285522 C1.52743881 49.22388702 1.54723297 50.36491882 1.56762695 51.54052734 C1.57873001 52.548685 1.58983307 53.55684265 1.60127258 54.59555054 C1.73285263 55.38901886 1.86443268 56.18248718 2 57 C2.99 57.66 3.98 58.32 5 59 C3.35 59.66 1.7 60.32 0 61 C0 40.87 0 20.74 0 0 Z " fill="#E6FBFE" transform="translate(43,113)"/>
<path d="M0 0 C0 10.23 0 20.46 0 31 C-0.99 30.67 -1.98 30.34 -3 30 C-2.99476318 29.2886792 -2.98952637 28.5773584 -2.98413086 27.84448242 C-2.96335982 24.62549725 -2.95033942 21.40652617 -2.9375 18.1875 C-2.92912109 17.06794922 -2.92074219 15.94839844 -2.91210938 14.79492188 C-2.90888672 13.72177734 -2.90566406 12.64863281 -2.90234375 11.54296875 C-2.89710693 10.55321045 -2.89187012 9.56345215 -2.88647461 8.54370117 C-2.88930041 5.87607266 -2.88930041 5.87607266 -4 3 C-1.125 0 -1.125 0 0 0 Z " fill="#246AAD" transform="translate(152,89)"/>
<path d="M0 0 C1.68800555 0.91573538 3.37537641 1.83264074 5.0625 2.75 C6.06925781 3.29269531 7.07601562 3.83539063 8.11328125 4.39453125 C10.40016169 5.66639574 12.56177107 7.01039418 14.75 8.4375 C18.76588533 10.3682141 20.73469531 10.10581973 25 9 C27.81862203 8.02450239 27.81862203 8.02450239 30 7 C29 10 29 10 26.3125 11.6875 C22.68667018 13.12414955 20.84534903 13.61525584 17 13 C14.15282495 11.58547991 11.60836653 9.80940741 9 8 C8.17113281 7.47277344 7.34226562 6.94554687 6.48828125 6.40234375 C1.70702776 3.34744552 1.70702776 3.34744552 0 2 C0 1.34 0 0.68 0 0 Z " fill="#DDF5FC" transform="translate(59,184)"/>
<path d="M0 0 C-1.28813342 0.83878455 -2.58063256 1.67086783 -3.875 2.5 C-4.59429688 2.9640625 -5.31359375 3.428125 -6.0546875 3.90625 C-8 5 -8 5 -10 5 C-10 18.86 -10 32.72 -10 47 C-10.33 47 -10.66 47 -11 47 C-11.17323943 40.96784109 -11.30015941 34.93713385 -11.38452148 28.90307617 C-11.41969144 26.85138728 -11.4674374 24.79987343 -11.52807617 22.7487793 C-11.61315022 19.7969243 -11.65272151 16.84738975 -11.68359375 13.89453125 C-11.71972275 12.97976517 -11.75585175 12.06499908 -11.79307556 11.12251282 C-11.79686366 4.95718964 -11.79686366 4.95718964 -9.53567505 2.24105835 C-6.10153747 -0.42970827 -4.25598292 -1.47705417 0 0 Z " fill="#E5FDFE" transform="translate(16,42)"/>
<path d="M0 0 C0.33 0 0.66 0 1 0 C1 8.25 1 16.5 1 25 C-5 23 -5 23 -6.375 20.9375 C-7 19 -7 19 -7 18 C-5.02 17.67 -3.04 17.34 -1 17 C-0.67 11.39 -0.34 5.78 0 0 Z " fill="#072751" transform="translate(151,64)"/>
<path d="M0 0 C5 2 5 2 7 4 C5.35 4 3.7 4 2 4 C2.01160156 5.30195312 2.02320312 6.60390625 2.03515625 7.9453125 C2.04453973 9.67187356 2.05363934 11.39843618 2.0625 13.125 C2.07087891 13.9809375 2.07925781 14.836875 2.08789062 15.71875 C2.10538306 20.26678411 1.93192358 24.52383164 1 29 C0.67 29 0.34 29 0 29 C0 19.43 0 9.86 0 0 Z " fill="#153D77" transform="translate(80,91)"/>
<path d="M0 0 C-1 2 -1 2 -7 5 C-7.33 18.86 -7.66 32.72 -8 47 C-8.33 47 -8.66 47 -9 47 C-9.09889038 40.94943005 -9.17147918 34.89933065 -9.21972656 28.84814453 C-9.23983969 26.78979295 -9.26713397 24.73149848 -9.30175781 22.67333984 C-9.35028883 19.71437487 -9.37297166 16.75616539 -9.390625 13.796875 C-9.41127014 12.87694763 -9.43191528 11.95702026 -9.45318604 11.00921631 C-9.45542263 4.63835992 -9.45542263 4.63835992 -7.14746094 1.40332031 C-4.5617073 -0.28641501 -3.0319307 -0.33688119 0 0 Z " fill="#D0DFF3" transform="translate(444,76)"/>
<path d="M0 0 C7.11791847 3.81607036 14.11027102 7.78545863 21 12 C20.67 12.66 20.34 13.32 20 14 C18.02 13.34 16.04 12.68 14 12 C14 11.34 14 10.68 14 10 C11.69 9.67 9.38 9.34 7 9 C6.67 8.01 6.34 7.02 6 6 C4.00628175 4.65729179 2.0065438 3.32346506 0 2 C0 1.34 0 0.68 0 0 Z " fill="#4E9CE0" transform="translate(130,77)"/>
<path d="M0 0 C2 2 2 2 2 6 C2.99 6.33 3.98 6.66 5 7 C5.13277344 7.74765625 5.26554687 8.4953125 5.40234375 9.265625 C5.57894531 10.25046875 5.75554687 11.2353125 5.9375 12.25 C6.19853516 13.71179688 6.19853516 13.71179688 6.46484375 15.203125 C6.90379729 17.49721795 7.40348592 19.74291971 8 22 C10.64 22.33 13.28 22.66 16 23 C16 23.33 16 23.66 16 24 C13.03 24 10.06 24 7 24 C5.63353607 20.37951535 4.28394128 16.75297365 2.9375 13.125 C2.54755859 12.09246094 2.15761719 11.05992188 1.75585938 9.99609375 C1.39169922 9.00996094 1.02753906 8.02382812 0.65234375 7.0078125 C0.31195068 6.09660645 -0.02844238 5.18540039 -0.37915039 4.24658203 C-1 2 -1 2 0 0 Z " fill="#173054" transform="translate(395,113)"/>
<path d="M0 0 C5.28 0 10.56 0 16 0 C16 2.97 16 5.94 16 9 C10.72 9 5.44 9 0 9 C0 8.34 0 7.68 0 7 C3.96 7 7.92 7 12 7 C12.66 5.02 13.32 3.04 14 1 C9.38 1 4.76 1 0 1 C0 0.67 0 0.34 0 0 Z " fill="#11294F" transform="translate(598,97)"/>
<path d="M0 0 C0 0.66 0 1.32 0 2 C-0.969375 2.268125 -1.93875 2.53625 -2.9375 2.8125 C-3.948125 3.204375 -4.95875 3.59625 -6 4 C-6.33 4.99 -6.66 5.98 -7 7 C-7.825 7.598125 -8.65 8.19625 -9.5 8.8125 C-12.54393391 11.47594217 -12.73087196 13.05278869 -13 17 C-13.99 17 -14.98 17 -16 17 C-15.56516436 11.56455446 -14.46772 8.23832445 -11 4 C-7.51383059 1.47252718 -4.32931671 0 0 0 Z " fill="#1F365C" transform="translate(487,66)"/>
<path d="M0 0 C0.33 0 0.66 0 1 0 C1.33 8.91 1.66 17.82 2 27 C0.02 26.34 -1.96 25.68 -4 25 C-3.55240545 22.91122542 -3.14236971 21.22690172 -2 19.40625 C-0.48944433 15.77147541 -0.53027216 12.15121294 -0.375 8.25 C-0.33632813 7.45722656 -0.29765625 6.66445312 -0.2578125 5.84765625 C-0.163892 3.89880584 -0.08087178 1.94943549 0 0 Z " fill="#204C77" transform="translate(41,147)"/>
<path d="M0 0 C0.99 0.33 1.98 0.66 3 1 C3 1.66 3 2.32 3 3 C2.67 3.33 2.34 3.66 2 4 C2.66 4.33 3.32 4.66 4 5 C4 5.66 4 6.32 4 7 C4.66 7 5.32 7 6 7 C6 8.32 6 9.64 6 11 C4.02 11 2.04 11 0 11 C-0.99 8.03 -1.98 5.06 -3 2 C-2.01 2 -1.02 2 0 2 C0 1.34 0 0.68 0 0 Z " fill="#082B60" transform="translate(310,74)"/>
<path d="M0 0 C2.97 1.32 5.94 2.64 9 4 C1.28571429 10 1.28571429 10 -2 10 C-3 9 -4 8 -5 7 C-4.0409375 6.1028125 -4.0409375 6.1028125 -3.0625 5.1875 C-0.79689611 3.09189663 -0.79689611 3.09189663 0 0 Z " fill="#3B98E0" transform="translate(108,170)"/>
<path d="M0 0 C2 2 2 2 2.22705078 4.79736328 C2.21657715 5.95993652 2.20610352 7.12250977 2.1953125 8.3203125 C2.18886719 9.57714844 2.18242187 10.83398438 2.17578125 12.12890625 C2.15902344 13.44761719 2.14226562 14.76632813 2.125 16.125 C2.11496983 17.46483721 2.10584404 18.80468152 2.09765625 20.14453125 C2.07402075 23.42986573 2.04107234 26.71484465 2 30 C4.41645782 30.16687448 4.41645782 30.16687448 7 30 C7.66 29.34 8.32 28.68 9 28 C9 29.32 9 30.64 9 32 C6.03 32 3.06 32 0 32 C0 21.44 0 10.88 0 0 Z " fill="#12284C" transform="translate(353,105)"/>
<path d="M0 0 C0.66 0.33 1.32 0.66 2 1 C0.66666667 2.33333333 -0.66666667 3.66666667 -2 5 C-2.45375 5.515625 -2.9075 6.03125 -3.375 6.5625 C-6.72788593 9.52851447 -9.91584554 10.9397692 -14.375 11.1875 C-15.674375 11.0946875 -15.674375 11.0946875 -17 11 C-13.44145169 8.03344679 -9.8017732 5.54141897 -5.8125 3.1875 C-4.76707031 2.56230469 -3.72164062 1.93710937 -2.64453125 1.29296875 C-1.33548828 0.65294922 -1.33548828 0.65294922 0 0 Z " fill="#65A6DA" transform="translate(56,18)"/>
<path d="M0 0 C3.3 0 6.6 0 10 0 C10 2.97 10 5.94 10 9 C9.67 9 9.34 9 9 9 C9 6.69 9 4.38 9 2 C7.02 2.33 5.04 2.66 3 3 C2.731875 4.11375 2.46375 5.2275 2.1875 6.375 C1 10 1 10 -2 12 C-2.66 11.34 -3.32 10.68 -4 10 C-3.525625 9.649375 -3.05125 9.29875 -2.5625 8.9375 C-0.32126175 6.15836457 -0.32882342 3.4855283 0 0 Z " fill="#1E3355" transform="translate(307,117)"/>
<path d="M0 0 C0.66 0.33 1.32 0.66 2 1 C-0.05233685 3.2477975 -1.00667261 4.0022242 -4 5 C-4.99 6.485 -4.99 6.485 -6 8 C-7.875 10.1875 -7.875 10.1875 -10 12 C-11.32 12 -12.64 12 -14 12 C-13.8125 9.625 -13.8125 9.625 -13 7 C-10.9375 6 -10.9375 6 -8 5 C-5.88612253 3.6919877 -3.82619244 2.3217941 -1.76953125 0.92578125 C-1.18558594 0.62027344 -0.60164063 0.31476563 0 0 Z " fill="#1B6ABB" transform="translate(36,116)"/>
<path d="M0 0 C1.8012015 0.87650441 3.59073235 1.77701895 5.375 2.6875 C6.87160156 3.43580078 6.87160156 3.43580078 8.3984375 4.19921875 C11.34538367 6.23907188 12.0399928 7.60527573 13 11 C12.236875 10.690625 11.47375 10.38125 10.6875 10.0625 C8.81210323 9.32106407 6.91315348 8.63771783 5 8 C2.875 6.75 2.875 6.75 1 5 C0.3828125 2.390625 0.3828125 2.390625 0 0 Z " fill="#57A5E8" transform="translate(118,70)"/>
<path d="M0 0 C0.99 0.33 1.98 0.66 3 1 C3 1.99 3 2.98 3 4 C4.98491642 3.73323796 4.98491642 3.73323796 7 3 C7.33 2.01 7.66 1.02 8 0 C8.66 0 9.32 0 10 0 C10 2.31 10 4.62 10 7 C6.7 7 3.4 7 0 7 C0 4.69 0 2.38 0 0 Z " fill="#182D50" transform="translate(495,80)"/>
<path d="M0 0 C0.66 0.33 1.32 0.66 2 1 C-13.35674157 12 -13.35674157 12 -17 12 C-17 12.66 -17 13.32 -17 14 C-18.65 14 -20.3 14 -22 14 C-18.4301466 10.13094129 -13.9559513 7.86155131 -9.4375 5.25 C-8.12362305 4.47076172 -8.12362305 4.47076172 -6.78320312 3.67578125 C-5.94595703 3.18980469 -5.10871094 2.70382813 -4.24609375 2.203125 C-3.47966553 1.75614258 -2.7132373 1.30916016 -1.92358398 0.84863281 C-1.28880127 0.56858398 -0.65401855 0.28853516 0 0 Z " fill="#70A7D3" transform="translate(75,155)"/>
<path d="M0 0 C-3.07146921 1.87438149 -6.15883525 3.72081186 -9.25 5.5625 C-10.12269531 6.09552734 -10.99539062 6.62855469 -11.89453125 7.17773438 C-13.16103516 7.92700195 -13.16103516 7.92700195 -14.453125 8.69140625 C-15.22817383 9.15748291 -16.00322266 9.62355957 -16.80175781 10.10375977 C-19.35760654 11.14579893 -20.45832839 10.95439263 -23 10 C-21.02 9.34 -19.04 8.68 -17 8 C-17 7.34 -17 6.68 -17 6 C-16.43410156 5.80664062 -15.86820313 5.61328125 -15.28515625 5.4140625 C-14.55167969 5.15367188 -13.81820312 4.89328125 -13.0625 4.625 C-11.96615234 4.24214844 -11.96615234 4.24214844 -10.84765625 3.8515625 C-8.81317884 3.14728587 -8.81317884 3.14728587 -8 1 C-3.6 -1.2 -3.6 -1.2 0 0 Z " fill="#4991C6" transform="translate(52,64)"/>
<path d="M0 0 C0.99 0.33 1.98 0.66 3 1 C3 1.66 3 2.32 3 3 C1.35 3.33 -0.3 3.66 -2 4 C-2.06058594 4.60328125 -2.12117188 5.2065625 -2.18359375 5.828125 C-3.35593625 8.94689261 -5.08715349 9.39414589 -8.0625 10.75 C-9.44115234 11.39195313 -9.44115234 11.39195313 -10.84765625 12.046875 C-11.55792969 12.36140625 -12.26820312 12.6759375 -13 13 C-12.67 12.01 -12.34 11.02 -12 10 C-9.9375 9.3125 -9.9375 9.3125 -8 9 C-8 8.34 -8 7.68 -8 7 C-6.68 6.67 -5.36 6.34 -4 6 C-3.896875 5.38125 -3.79375 4.7625 -3.6875 4.125 C-3 2 -3 2 0 0 Z " fill="#5AA2DE" transform="translate(109,25)"/>
<path d="M0 0 C-1.29813778 2.89584583 -2.53303749 4.98157613 -5 7 C-7.26171875 7.51171875 -7.26171875 7.51171875 -9.6875 7.6875 C-10.49574219 7.75324219 -11.30398437 7.81898437 -12.13671875 7.88671875 C-13.05904297 7.94279297 -13.05904297 7.94279297 -14 8 C-11.72402354 5.50447597 -9.39278822 3.93377014 -6.4375 2.3125 C-5.65246094 1.87550781 -4.86742187 1.43851563 -4.05859375 0.98828125 C-2 0 -2 0 0 0 Z " fill="#579FD5" transform="translate(29,35)"/>
<path d="M0 0 C1.9609375 0.015625 1.9609375 0.015625 4.375 0.25 C5.16648438 0.31703125 5.95796875 0.3840625 6.7734375 0.453125 C9.35133561 1.08629296 10.32367504 1.98841004 12 4 C7.375 6.125 7.375 6.125 4 5 C3.01 5 2.02 5 1 5 C1 4.01 1 3.02 1 2 C0.34 1.67 -0.32 1.34 -1 1 C-0.67 0.67 -0.34 0.34 0 0 Z " fill="#143D7F" transform="translate(137,42)"/>
<path d="M0 0 C-6.27 3.63 -12.54 7.26 -19 11 C-19.33 10.01 -19.66 9.02 -20 8 C-19.0925 7.566875 -18.185 7.13375 -17.25 6.6875 C-14.12016678 5.18544021 -14.12016678 5.18544021 -12.0625 3.5 C-8.21482508 0.70169097 -4.65010253 -1.55003418 0 0 Z " fill="#4890C8" transform="translate(106,181)"/>
<path d="M0 0 C2.97 0.495 2.97 0.495 6 1 C6.33 1.99 6.66 2.98 7 4 C5.58622218 4.36552803 4.16879424 4.71695495 2.75 5.0625 C1.96109375 5.25972656 1.1721875 5.45695313 0.359375 5.66015625 C-2.10394822 6.01497267 -3.65604132 5.76877544 -6 5 C-5.195625 4.54625 -4.39125 4.0925 -3.5625 3.625 C-0.91143428 2.25274335 -0.91143428 2.25274335 0 0 Z " fill="#63ACE8" transform="translate(77,154)"/>
<path d="M0 0 C0.66 0 1.32 0 2 0 C2.33 0.33 2.66 0.66 3 1 C3 0.67 3 0.34 3 0 C4.98 0 6.96 0 9 0 C8.01 0.33 7.02 0.66 6 1 C6 1.66 6 2.32 6 3 C5.34 3.66 4.68 4.32 4 5 C3.319375 5.8353125 3.319375 5.8353125 2.625 6.6875 C2.08875 7.120625 1.5525 7.55375 1 8 C-1.1875 7.6875 -1.1875 7.6875 -3 7 C-2.505 6.21625 -2.01 5.4325 -1.5 4.625 C0.16537965 2.21447673 0.16537965 2.21447673 0 0 Z " fill="#184E85" transform="translate(141,152)"/>
<path d="M0 0 C0.99 0.495 0.99 0.495 2 1 C2.625 3.5625 2.625 3.5625 3 6 C5.97 6.495 5.97 6.495 9 7 C9.33 5.68 9.66 4.36 10 3 C10 4.98 10 6.96 10 9 C6.7 9 3.4 9 0 9 C0 6.03 0 3.06 0 0 Z " fill="#293C5D" transform="translate(307,78)"/>
<path d="M0 0 C0.66 0.99 1.32 1.98 2 3 C4.58380177 3.25030977 4.58380177 3.25030977 7 3 C7 4.65 7 6.3 7 8 C3.2089881 6.55049545 -0.3874638 4.84827434 -4 3 C-4 2.34 -4 1.68 -4 1 C-2.68 0.67 -1.36 0.34 0 0 Z " fill="#042C61" transform="translate(109,166)"/>
<path d="M0 0 C5.66153846 2.46153846 5.66153846 2.46153846 7.375 5.1875 C7.58125 5.785625 7.7875 6.38375 8 7 C6.3125 7.6875 6.3125 7.6875 4 8 C1.25 6.5625 1.25 6.5625 -1 5 C-0.67 3.35 -0.34 1.7 0 0 Z " fill="#22578B" transform="translate(12,152)"/>
<path d="M0 0 C-3.64859761 3.04049801 -7.7444533 4.96518762 -12 7 C-12.33 6.01 -12.66 5.02 -13 4 C-9.41420832 -0.98892755 -5.61771415 -0.43213186 0 0 Z " fill="#28517B" transform="translate(141,160)"/>
<path d="M0 0 C0.66 0.33 1.32 0.66 2 1 C1.2884375 2.175625 1.2884375 2.175625 0.5625 3.375 C-0.33898023 4.88948678 -1.21179485 6.4235897 -2 8 C-2.66 7.67 -3.32 7.34 -4 7 C-6.7283768 7 -9.31654063 7.53331141 -12 8 C-8.20182235 4.77730382 -4.42608146 2.25479622 0 0 Z " fill="#5CA9EA" transform="translate(64,15)"/>
<path d="M0 0 C-0.5 1.8125 -0.5 1.8125 -2 4 C-5.14496215 5.59247024 -8.44551303 7 -12 7 C-12.33 7.99 -12.66 8.98 -13 10 C-13.99 9.34 -14.98 8.68 -16 8 C-13.71125827 6.66141476 -11.41930344 5.32898986 -9.125 4 C-8.47402344 3.6184375 -7.82304687 3.236875 -7.15234375 2.84375 C-2.2265625 0 -2.2265625 0 0 0 Z " fill="#3F70A3" transform="translate(23,123)"/>
<path d="M0 0 C0.33 1.65 0.66 3.3 1 5 C0.01 4.67 -0.98 4.34 -2 4 C-2 3.34 -2 2.68 -2 2 C-2.8353125 2.680625 -2.8353125 2.680625 -3.6875 3.375 C-7.0781528 5.75762089 -9.83654015 7 -14 7 C-6.07894737 0 -6.07894737 0 0 0 Z " fill="#459CE3" transform="translate(97,83)"/>
<path d="M0 0 C4.97306516 0.49730652 8.63799813 1.55302334 13 4 C13 4.66 13 5.32 13 6 C13.66 6 14.32 6 15 6 C15.33 6.99 15.66 7.98 16 9 C10.66666667 6.33333333 5.33333333 3.66666667 0 1 C0 0.67 0 0.34 0 0 Z " fill="#2B85DB" transform="translate(90,96)"/>
<path d="M0 0 C1.98 0.99 1.98 0.99 4 2 C3.01 2.33 2.02 2.66 1 3 C1 11.25 1 19.5 1 28 C0.67 28 0.34 28 0 28 C0 18.76 0 9.52 0 0 Z " fill="#274576" transform="translate(116,27)"/>
<path d="M0 0 C0.66 0.33 1.32 0.66 2 1 C-10.54637097 10.21774194 -10.54637097 10.21774194 -17 11 C-14.21503399 7.75258576 -10.60463249 5.83910905 -6.9375 3.75 C-6.30005859 3.37359375 -5.66261719 2.9971875 -5.00585938 2.609375 C-3.3733501 1.67356357 -1.68928489 0.82894277 0 0 Z " fill="#4275A8" transform="translate(40,112)"/>
<path d="M0 0 C0.99 1.32 1.98 2.64 3 4 C2.01 4.33 1.02 4.66 0 5 C-0.33 10.28 -0.66 15.56 -1 21 C-1.33 21 -1.66 21 -2 21 C-2 14.4 -2 7.8 -2 1 C-1.34 0.67 -0.68 0.34 0 0 Z " fill="#113E87" transform="translate(119,29)"/>
<path d="M0 0 C0.598125 0.226875 1.19625 0.45375 1.8125 0.6875 C1.1875 2.5625 1.1875 2.5625 -0.1875 4.6875 C-3.3125 5.9375 -3.3125 5.9375 -6.1875 6.6875 C-5.78066505 4.32785727 -5.28935661 2.82815912 -3.875 0.875 C-2.1875 -0.3125 -2.1875 -0.3125 0 0 Z " fill="#1863AE" transform="translate(15.1875,129.3125)"/>
<path d="M0 0 C0.66 0.33 1.32 0.66 2 1 C0.04775796 3.29675534 -2.00039059 4.59877116 -4.625 6 C-8.24664852 7.64839466 -8.24664852 7.64839466 -9 11 C-10.32 10.34 -11.64 9.68 -13 9 C-10.59497637 6.36479259 -7.9814151 4.59697057 -4.9375 2.75 C-4.05964844 2.20859375 -3.18179688 1.6671875 -2.27734375 1.109375 C-1.52582031 0.74328125 -0.77429688 0.3771875 0 0 Z " fill="#629FD1" transform="translate(93,81)"/>
<path d="M0 0 C0.8971875 0.309375 0.8971875 0.309375 1.8125 0.625 C-0.47624173 1.96358524 -2.76819656 3.29601014 -5.0625 4.625 C-5.71347656 5.0065625 -6.36445312 5.388125 -7.03515625 5.78125 C-11.9609375 8.625 -11.9609375 8.625 -14.1875 8.625 C-14.1875 7.635 -14.1875 6.645 -14.1875 5.625 C-13.57261719 5.35945313 -12.95773438 5.09390625 -12.32421875 4.8203125 C-11.51597656 4.46710937 -10.70773438 4.11390625 -9.875 3.75 C-9.07449219 3.40195312 -8.27398437 3.05390625 -7.44921875 2.6953125 C-1.28731629 -0.22068279 -1.28731629 -0.22068279 0 0 Z " fill="#629FCE" transform="translate(94.1875,38.375)"/>
<path d="M0 0 C0.87269531 0.46921875 1.74539062 0.9384375 2.64453125 1.421875 C3.96517578 2.11023438 3.96517578 2.11023438 5.3125 2.8125 C7.45703125 4.171875 7.45703125 4.171875 8.45703125 6.171875 C5.49528002 5.55909888 4.07644342 4.91814978 1.45703125 3.171875 C-2.39186358 2.96193528 -5.85530683 2.99182318 -9.54296875 4.171875 C-6.66483198 1.00592455 -4.38721663 -1.42870956 0 0 Z " fill="#7FB0D4" transform="translate(81.54296875,5.828125)"/>
<path d="M0 0 C0.99 0.33 1.98 0.66 3 1 C2.34 3.97 1.68 6.94 1 10 C-2.96 10 -6.92 10 -11 10 C-11 9.67 -11 9.34 -11 9 C-7.37 9 -3.74 9 0 9 C0 6.03 0 3.06 0 0 Z " fill="#EAF7FE" transform="translate(235,67)"/>
<path d="M0 0 C1.75406653 0.39920135 3.50318982 0.82015666 5.25 1.25 C6.22453125 1.48203125 7.1990625 1.7140625 8.203125 1.953125 C11.31523411 3.11799266 12.84212456 4.51330545 15 7 C14.01 7.33 13.02 7.66 12 8 C9.95912192 6.73012031 7.96374635 5.38617389 6 4 C4.01492052 2.97069953 2.01885749 1.96136071 0 1 C0 0.67 0 0.34 0 0 Z " fill="#134B81" transform="translate(20,159)"/>
<path d="M0 0 C0 4.95 0 9.9 0 15 C-0.33 15 -0.66 15 -1 15 C-1 12.03 -1 9.06 -1 6 C-1.99 6 -2.98 6 -4 6 C-3.625 3.5625 -3.625 3.5625 -3 1 C-1 0 -1 0 0 0 Z " fill="#236CB3" transform="translate(42,113)"/>
<path d="M0 0 C-1.95519384 1.17192047 -3.9142539 2.3373929 -5.875 3.5 C-6.96554688 4.1496875 -8.05609375 4.799375 -9.1796875 5.46875 C-12 7 -12 7 -14 7 C-14 6.34 -14 5.68 -14 5 C-13.38125 4.731875 -12.7625 4.46375 -12.125 4.1875 C-9.7004767 3.04443152 -9.7004767 3.04443152 -8 0 C-4.6993784 -1.01557588 -3.32787119 -1.1092904 0 0 Z " fill="#E4F7FC" transform="translate(58,18)"/>
<path d="M0 0 C0.33 0 0.66 0 1 0 C1 2.64 1 5.28 1 8 C-1.31 9.32 -3.62 10.64 -6 12 C-6 11.01 -6 10.02 -6 9 C-5.34 9 -4.68 9 -4 9 C-4 8.34 -4 7.68 -4 7 C-3.01 6.67 -2.02 6.34 -1 6 C-0.67 4.02 -0.34 2.04 0 0 Z " fill="#2D537E" transform="translate(151,146)"/>
<path d="M0 0 C3.63 0 7.26 0 11 0 C10.67 2.64 10.34 5.28 10 8 C9.67 8 9.34 8 9 8 C8.67 6.02 8.34 4.04 8 2 C5.08347826 1.83318891 5.08347826 1.83318891 2 2 C1.34 2.66 0.68 3.32 0 4 C0 2.68 0 1.36 0 0 Z " fill="#263A5B" transform="translate(565,67)"/>
<path d="M0 0 C2.18975773 3.28463659 2.99806563 6.20696275 4 10 C3.01 10 2.02 10 1 10 C0.67 10.66 0.34 11.32 0 12 C0 8.04 0 4.08 0 0 Z " fill="#E3EEF7" transform="translate(387,96)"/>
<path d="M0 0 C0.99 0.66 1.98 1.32 3 2 C-0.63 3.98 -4.26 5.96 -8 8 C-8 5 -8 5 -6 3 C-4.01178687 2.60235737 -2.01055661 2.26224651 0 2 C0 1.34 0 0.68 0 0 Z " fill="#218CE2" transform="translate(32,70)"/>
<path d="M0 0 C0 0.66 0 1.32 0 2 C-4.47058824 6 -4.47058824 6 -7 6 C-7.33 7.32 -7.66 8.64 -8 10 C-8.375 7.25 -8.375 7.25 -8 4 C-3.15789474 0 -3.15789474 0 0 0 Z " fill="#569BD0" transform="translate(15,43)"/>
<path d="M0 0 C3.96 1.98 7.92 3.96 12 6 C12 6.33 12 6.66 12 7 C7.33174173 7.70731186 4.96719769 5.92277529 1.35546875 3.2890625 C0.90816406 2.86367188 0.46085937 2.43828125 0 2 C0 1.34 0 0.68 0 0 Z " fill="#2C4D85" transform="translate(120,29)"/>
<path d="M0 0 C-0.33 0.99 -0.66 1.98 -1 3 C-3.31 3.33 -5.62 3.66 -8 4 C-7.67 3.01 -7.34 2.02 -7 1 C-4.53721199 -0.231394 -2.7204945 -0.07159196 0 0 Z " fill="#519DDB" transform="translate(56,169)"/>
<path d="M0 0 C0.66 0 1.32 0 2 0 C2 2.31 2 4.62 2 7 C0.68 7.33 -0.64 7.66 -2 8 C-2.125 5.125 -2.125 5.125 -2 2 C-1.34 1.34 -0.68 0.68 0 0 Z " fill="#062B58" transform="translate(479,123)"/>
<path d="M0 0 C1.98 0.99 3.96 1.98 6 3 C6 3.33 6 3.66 6 4 C4.35 4 2.7 4 1 4 C1 7.3 1 10.6 1 14 C0.67 14 0.34 14 0 14 C0 9.38 0 4.76 0 0 Z " fill="#0C4898" transform="translate(81,91)"/>
<path d="M0 0 C-0.1875 1.875 -0.1875 1.875 -1 4 C-3.63678659 5.49655455 -5.16532951 6.17595756 -8.16796875 5.54296875 C-8.77253906 5.36378906 -9.37710937 5.18460938 -10 5 C-8.71186658 4.16121545 -7.41936744 3.32913217 -6.125 2.5 C-5.40570313 2.0359375 -4.68640625 1.571875 -3.9453125 1.09375 C-2 0 -2 0 0 0 Z " fill="#64A3D4" transform="translate(39,29)"/>
<path d="M0 0 C2.475 0.99 2.475 0.99 5 2 C2.12050853 4.23960447 -0.76742026 6.29864224 -4 8 C-4.66 7.67 -5.32 7.34 -6 7 C-4.6875 5.5 -4.6875 5.5 -3 4 C-2.01 4 -1.02 4 0 4 C0 2.68 0 1.36 0 0 Z " fill="#75A4CD" transform="translate(112,24)"/>
<path d="M0 0 C2.97 1.65 5.94 3.3 9 5 C8.67 5.66 8.34 6.32 8 7 C6.02 6.34 4.04 5.68 2 5 C2 4.34 2 3.68 2 3 C1.34 3 0.68 3 0 3 C0 2.01 0 1.02 0 0 Z " fill="#4695D9" transform="translate(142,84)"/>
<path d="M0 0 C0.66 0 1.32 0 2 0 C2 1.32 2 2.64 2 4 C1.01 4.33 0.02 4.66 -1 5 C-1.33 5.99 -1.66 6.98 -2 8 C-2.99 7.67 -3.98 7.34 -5 7 C-1.125 1.125 -1.125 1.125 0 0 Z " fill="#21385A" transform="translate(431,69)"/>
<path d="M0 0 C0.99 0.66 1.98 1.32 3 2 C0.02819057 3.89865603 -2.51460083 5.35455571 -6 6 C-4.95125002 3.37812506 -4.35068687 2.20628639 -1.875 0.75 C-1.25625 0.5025 -0.6375 0.255 0 0 Z " fill="#218BE5" transform="translate(90,184)"/>
<path d="M0 0 C4.455 0.99 4.455 0.99 9 2 C9.33 3.32 9.66 4.64 10 6 C6.40992874 4.66654496 3.20429093 3.1056769 0 1 C0 0.67 0 0.34 0 0 Z " fill="#288CDC" transform="translate(61,183)"/>
<path d="M0 0 C4 0 4 0 7 1 C6.34 1 5.68 1 5 1 C5 1.66 5 2.32 5 3 C2.1875 4.5625 2.1875 4.5625 -1 6 C-1.99 5.67 -2.98 5.34 -4 5 C-2.68 4.67 -1.36 4.34 0 4 C0 2.68 0 1.36 0 0 Z " fill="#3493DE" transform="translate(101,177)"/>
<path d="M0 0 C2.68478605 1.98440708 3.03631971 3.15645412 3.8125 6.5 C4 10 4 10 2 13 C1.855625 11.783125 1.71125 10.56625 1.5625 9.3125 C1.17219047 6.17329623 0.67648144 3.0924866 0 0 Z " fill="#2E4364" transform="translate(501,102)"/>
<path d="M0 0 C0 0.66 0 1.32 0 2 C-2.99106784 4.36503039 -5.02861582 5.91553181 -8.875 6.25 C-9.57625 6.1675 -10.2775 6.085 -11 6 C-3.28571429 0 -3.28571429 0 0 0 Z " fill="#E2F7FD" transform="translate(89,43)"/>
<path d="M0 0 C0.66 0.33 1.32 0.66 2 1 C0.76265016 2.03613033 -0.49044637 3.05347802 -1.75 4.0625 C-2.79414062 4.91521484 -2.79414062 4.91521484 -3.859375 5.78515625 C-6 7 -6 7 -8.265625 6.68359375 C-8.83796875 6.45800781 -9.4103125 6.23242188 -10 6 C-8.3811004 4.96951963 -6.75467511 3.95085322 -5.125 2.9375 C-4.22007813 2.36902344 -3.31515625 1.80054688 -2.3828125 1.21484375 C-1.20332031 0.61349609 -1.20332031 0.61349609 0 0 Z " fill="#E4F6FC" transform="translate(118,173)"/>
<path d="M0 0 C1.65 0.33 3.3 0.66 5 1 C-2.71428571 7 -2.71428571 7 -6 7 C-6 6.34 -6 5.68 -6 5 C-4.02 4.34 -2.04 3.68 0 3 C0 2.01 0 1.02 0 0 Z " fill="#5E96C4" transform="translate(112,173)"/>
<path d="M0 0 C0.33 0 0.66 0 1 0 C1.33 3.3 1.66 6.6 2 10 C1.01 10.495 1.01 10.495 0 11 C-0.66 8.03 -1.32 5.06 -2 2 C-1.34 2 -0.68 2 0 2 C0 1.34 0 0.68 0 0 Z " fill="#1A325A" transform="translate(473,86)"/>
<path d="M0 0 C-1 3 -1 3 -2.875 4.25 C-5 5 -5 5 -8 4 C-7.67 3.01 -7.34 2.02 -7 1 C-4.52260646 0.09162237 -2.66420516 0 0 0 Z " fill="#298FE2" transform="translate(44,65)"/>
<path d="M0 0 C4.54195365 -0.37849614 5.0144396 0.0108297 9 3 C5.7 3 2.4 3 -1 3 C-0.67 2.01 -0.34 1.02 0 0 Z " fill="#C7D3DD" transform="translate(354,64)"/>
<path d="M0 0 C0.66 0.33 1.32 0.66 2 1 C-2.30769231 5.92307692 -2.30769231 5.92307692 -5.8125 6.3125 C-6.8953125 6.1578125 -6.8953125 6.1578125 -8 6 C-5.63404067 3.38499232 -3.13950774 1.61000397 0 0 Z " fill="#E4F9FD" transform="translate(73,51)"/>
<path d="M0 0 C0.66 0.66 1.32 1.32 2 2 C1.0479279 3.00596297 0.08812654 4.00461563 -0.875 5 C-1.40867187 5.556875 -1.94234375 6.11375 -2.4921875 6.6875 C-4 8 -4 8 -6 8 C-5.67 7.01 -5.34 6.02 -5 5 C-4.34 5 -3.68 5 -3 5 C-2.5359375 4.0409375 -2.5359375 4.0409375 -2.0625 3.0625 C-1 1 -1 1 0 0 Z " fill="#1E3458" transform="translate(455,128)"/>
<path d="M0 0 C-0.33 2.97 -0.66 5.94 -1 9 C-1.66 8.67 -2.32 8.34 -3 8 C-3 5.69 -3 3.38 -3 1 C-1 0 -1 0 0 0 Z " fill="#102A52" transform="translate(571,89)"/>
<path d="M0 0 C0.66 0.33 1.32 0.66 2 1 C-2.296875 5.00390625 -2.296875 5.00390625 -4 6 C-6.203125 5.65234375 -6.203125 5.65234375 -8 5 C-6.71475739 4.13619741 -5.42157581 3.28419631 -4.125 2.4375 C-3.04605469 1.72400391 -3.04605469 1.72400391 -1.9453125 0.99609375 C-1.30335937 0.66738281 -0.66140625 0.33867187 0 0 Z " fill="#DDF5FC" transform="translate(97,185)"/>
<path d="M0 0 C1.65 0 3.3 0 5 0 C5.66 1.32 6.32 2.64 7 4 C4.69 4 2.38 4 0 4 C0 2.68 0 1.36 0 0 Z " fill="#50A5EA" transform="translate(91,163)"/>
<path d="M0 0 C0.66 0.33 1.32 0.66 2 1 C2 3.64 2 6.28 2 9 C1.01 9.33 0.02 9.66 -1 10 C-0.67 6.7 -0.34 3.4 0 0 Z " fill="#274167" transform="translate(559,104)"/>
<path d="M0 0 C0.8353125 0.37125 0.8353125 0.37125 1.6875 0.75 C1.6875 1.41 1.6875 2.07 1.6875 2.75 C-2.7675 3.245 -2.7675 3.245 -7.3125 3.75 C-2.88173077 -0.31153846 -2.88173077 -0.31153846 0 0 Z " fill="#74ADDB" transform="translate(116.3125,69.25)"/>
<path d="M0 0 C0.99 0 1.98 0 3 0 C2.67 0.99 2.34 1.98 2 3 C1.01 3.33 0.02 3.66 -1 4 C-0.67 2.68 -0.34 1.36 0 0 Z M-5 4 C-2.9375 4.4375 -2.9375 4.4375 -1 5 C-1.99 5.66 -2.98 6.32 -4 7 C-4.66 6.34 -5.32 5.68 -6 5 C-5.67 4.67 -5.34 4.34 -5 4 Z " fill="#4DA2E9" transform="translate(39,29)"/>
<path d="M0 0 C2.91517292 1.07401108 4.77810176 1.77810176 7 4 C5.35 4.33 3.7 4.66 2 5 C2 4.34 2 3.68 2 3 C1.34 3 0.68 3 0 3 C0 2.01 0 1.02 0 0 Z " fill="#5BA8EC" transform="translate(96,17)"/>
<path d="M0 0 C3.0831351 1.19899698 6.06279492 2.47700477 9 4 C9 4.66 9 5.32 9 6 C5.9168649 4.80100302 2.93720508 3.52299523 0 2 C0 1.34 0 0.68 0 0 Z " fill="#355A7F" transform="translate(18,159)"/>
<path d="M0 0 C0.66 0.99 1.32 1.98 2 3 C0.35 4.98 -1.3 6.96 -3 9 C-3.66 8.34 -4.32 7.68 -5 7 C-4.67 6.34 -4.34 5.68 -4 5 C-3.01 5 -2.02 5 -1 5 C-0.67 3.35 -0.34 1.7 0 0 Z " fill="#1F3659" transform="translate(314,126)"/>
<path d="M0 0 C0.33 0 0.66 0 1 0 C1 2.31 1 4.62 1 7 C0.01 7.495 0.01 7.495 -1 8 C-1.625 5.125 -1.625 5.125 -2 2 C-1.34 1.34 -0.68 0.68 0 0 Z " fill="#E3F0F7" transform="translate(494,117)"/>
<path d="M0 0 C0.99 0 1.98 0 3 0 C3 1.65 3 3.3 3 5 C1.68 4.67 0.36 4.34 -1 4 C-0.67 2.68 -0.34 1.36 0 0 Z " fill="#052756" transform="translate(113,169)"/>
<path d="M0 0 C3.37503669 1.1858237 5.64722731 2.27573689 8 5 C5.125 4.75 5.125 4.75 2 4 C0.625 1.9375 0.625 1.9375 0 0 Z " fill="#024899" transform="translate(108,107)"/>
<path d="M0 0 C0.99 0.33 1.98 0.66 3 1 C2.67 1.66 2.34 2.32 2 3 C-0.5625 3.625 -0.5625 3.625 -3 4 C-2.67 3.01 -2.34 2.02 -2 1 C-1.34 0.67 -0.68 0.34 0 0 Z M-7 5 C-4 6 -4 6 -4 6 Z " fill="#1273CA" transform="translate(126,104)"/>
<path d="M0 0 C0.33 1.65 0.66 3.3 1 5 C0.01 4.67 -0.98 4.34 -2 4 C-2 3.34 -2 2.68 -2 2 C-2.99 2.33 -3.98 2.66 -5 3 C-5 2.34 -5 1.68 -5 1 C-3 0 -3 0 0 0 Z " fill="#44A1EE" transform="translate(97,83)"/>
</svg>


